%TF.GenerationSoftware,KiCad,Pcbnew,(5.1.10-1-10_14)*%
%TF.CreationDate,2021-12-20T14:54:58-05:00*%
%TF.ProjectId,SmartLock,536d6172-744c-46f6-936b-2e6b69636164,rev?*%
%TF.SameCoordinates,Original*%
%TF.FileFunction,Soldermask,Bot*%
%TF.FilePolarity,Negative*%
%FSLAX46Y46*%
G04 Gerber Fmt 4.6, Leading zero omitted, Abs format (unit mm)*
G04 Created by KiCad (PCBNEW (5.1.10-1-10_14)) date 2021-12-20 14:54:58*
%MOMM*%
%LPD*%
G01*
G04 APERTURE LIST*
%ADD10O,2.400000X2.400000*%
%ADD11R,2.400000X2.400000*%
%ADD12C,2.000000*%
%ADD13R,2.000000X2.000000*%
%ADD14C,1.200000*%
%ADD15O,2.000000X1.700000*%
%ADD16O,1.700000X1.950000*%
%ADD17O,1.700000X1.700000*%
%ADD18R,1.700000X1.700000*%
%ADD19O,1.400000X1.400000*%
%ADD20C,1.400000*%
%ADD21C,2.600000*%
%ADD22R,2.600000X2.600000*%
G04 APERTURE END LIST*
D10*
X102870000Y-117856000D03*
D11*
X113030000Y-117856000D03*
D12*
X146478000Y-80010000D03*
D13*
X141478000Y-80010000D03*
D14*
X142526000Y-87808000D03*
D15*
X144526000Y-91908000D03*
G36*
G01*
X143776000Y-88558000D02*
X145276000Y-88558000D01*
G75*
G02*
X145526000Y-88808000I0J-250000D01*
G01*
X145526000Y-90008000D01*
G75*
G02*
X145276000Y-90258000I-250000J0D01*
G01*
X143776000Y-90258000D01*
G75*
G02*
X143526000Y-90008000I0J250000D01*
G01*
X143526000Y-88808000D01*
G75*
G02*
X143776000Y-88558000I250000J0D01*
G01*
G37*
D14*
X142526000Y-97206000D03*
D15*
X144526000Y-101306000D03*
G36*
G01*
X143776000Y-97956000D02*
X145276000Y-97956000D01*
G75*
G02*
X145526000Y-98206000I0J-250000D01*
G01*
X145526000Y-99406000D01*
G75*
G02*
X145276000Y-99656000I-250000J0D01*
G01*
X143776000Y-99656000D01*
G75*
G02*
X143526000Y-99406000I0J250000D01*
G01*
X143526000Y-98206000D01*
G75*
G02*
X143776000Y-97956000I250000J0D01*
G01*
G37*
D14*
X129108000Y-116872000D03*
D16*
X120008000Y-118872000D03*
X122508000Y-118872000D03*
X125008000Y-118872000D03*
G36*
G01*
X128358000Y-118147000D02*
X128358000Y-119597000D01*
G75*
G02*
X128108000Y-119847000I-250000J0D01*
G01*
X126908000Y-119847000D01*
G75*
G02*
X126658000Y-119597000I0J250000D01*
G01*
X126658000Y-118147000D01*
G75*
G02*
X126908000Y-117897000I250000J0D01*
G01*
X128108000Y-117897000D01*
G75*
G02*
X128358000Y-118147000I0J-250000D01*
G01*
G37*
D14*
X142526000Y-106604000D03*
D15*
X144526000Y-110704000D03*
G36*
G01*
X143776000Y-107354000D02*
X145276000Y-107354000D01*
G75*
G02*
X145526000Y-107604000I0J-250000D01*
G01*
X145526000Y-108804000D01*
G75*
G02*
X145276000Y-109054000I-250000J0D01*
G01*
X143776000Y-109054000D01*
G75*
G02*
X143526000Y-108804000I0J250000D01*
G01*
X143526000Y-107604000D01*
G75*
G02*
X143776000Y-107354000I250000J0D01*
G01*
G37*
D17*
X132588000Y-111760000D03*
X130048000Y-111760000D03*
X127508000Y-111760000D03*
X124968000Y-111760000D03*
X122428000Y-111760000D03*
X119888000Y-111760000D03*
X117348000Y-111760000D03*
D18*
X114808000Y-111760000D03*
D17*
X114808000Y-99060000D03*
X117348000Y-99060000D03*
X119888000Y-99060000D03*
X122428000Y-99060000D03*
X124968000Y-99060000D03*
X127508000Y-99060000D03*
X130048000Y-99060000D03*
D18*
X132588000Y-99060000D03*
D17*
X113030000Y-91186000D03*
X113030000Y-88646000D03*
X113030000Y-86106000D03*
X113030000Y-83566000D03*
X113030000Y-81026000D03*
X113030000Y-78486000D03*
X113030000Y-75946000D03*
X113030000Y-73406000D03*
X113030000Y-70866000D03*
X113030000Y-68326000D03*
X113030000Y-65786000D03*
X113030000Y-63246000D03*
X113030000Y-60706000D03*
X113030000Y-58166000D03*
D18*
X113030000Y-55626000D03*
D17*
X135890000Y-91186000D03*
X135890000Y-88646000D03*
X135890000Y-86106000D03*
X135890000Y-83566000D03*
X135890000Y-81026000D03*
X135890000Y-78486000D03*
X135890000Y-75946000D03*
X135890000Y-73406000D03*
X135890000Y-70866000D03*
X135890000Y-68326000D03*
X135890000Y-65786000D03*
X135890000Y-63246000D03*
X135890000Y-60706000D03*
X135890000Y-58166000D03*
D18*
X135890000Y-55626000D03*
D19*
X109220000Y-78994000D03*
D20*
X109220000Y-84074000D03*
D14*
X104870000Y-95326000D03*
D15*
X102870000Y-91226000D03*
G36*
G01*
X103620000Y-94576000D02*
X102120000Y-94576000D01*
G75*
G02*
X101870000Y-94326000I0J250000D01*
G01*
X101870000Y-93126000D01*
G75*
G02*
X102120000Y-92876000I250000J0D01*
G01*
X103620000Y-92876000D01*
G75*
G02*
X103870000Y-93126000I0J-250000D01*
G01*
X103870000Y-94326000D01*
G75*
G02*
X103620000Y-94576000I-250000J0D01*
G01*
G37*
D21*
X141788000Y-68580000D03*
D22*
X145288000Y-68580000D03*
D14*
X104870000Y-85166000D03*
D15*
X102870000Y-81066000D03*
G36*
G01*
X103620000Y-84416000D02*
X102120000Y-84416000D01*
G75*
G02*
X101870000Y-84166000I0J250000D01*
G01*
X101870000Y-82966000D01*
G75*
G02*
X102120000Y-82716000I250000J0D01*
G01*
X103620000Y-82716000D01*
G75*
G02*
X103870000Y-82966000I0J-250000D01*
G01*
X103870000Y-84166000D01*
G75*
G02*
X103620000Y-84416000I-250000J0D01*
G01*
G37*
D21*
X102164000Y-69088000D03*
D22*
X105664000Y-69088000D03*
M02*
