%TF.GenerationSoftware,KiCad,Pcbnew,(5.1.10-1-10_14)*%
%TF.CreationDate,2021-12-20T14:54:58-05:00*%
%TF.ProjectId,SmartLock,536d6172-744c-46f6-936b-2e6b69636164,rev?*%
%TF.SameCoordinates,Original*%
%TF.FileFunction,Copper,L1,Top*%
%TF.FilePolarity,Positive*%
%FSLAX46Y46*%
G04 Gerber Fmt 4.6, Leading zero omitted, Abs format (unit mm)*
G04 Created by KiCad (PCBNEW (5.1.10-1-10_14)) date 2021-12-20 14:54:58*
%MOMM*%
%LPD*%
G01*
G04 APERTURE LIST*
%TA.AperFunction,ComponentPad*%
%ADD10O,2.400000X2.400000*%
%TD*%
%TA.AperFunction,ComponentPad*%
%ADD11R,2.400000X2.400000*%
%TD*%
%TA.AperFunction,ComponentPad*%
%ADD12C,2.000000*%
%TD*%
%TA.AperFunction,ComponentPad*%
%ADD13R,2.000000X2.000000*%
%TD*%
%TA.AperFunction,ComponentPad*%
%ADD14O,2.000000X1.700000*%
%TD*%
%TA.AperFunction,ComponentPad*%
%ADD15O,1.700000X1.950000*%
%TD*%
%TA.AperFunction,ComponentPad*%
%ADD16O,1.700000X1.700000*%
%TD*%
%TA.AperFunction,ComponentPad*%
%ADD17R,1.700000X1.700000*%
%TD*%
%TA.AperFunction,ComponentPad*%
%ADD18O,1.400000X1.400000*%
%TD*%
%TA.AperFunction,ComponentPad*%
%ADD19C,1.400000*%
%TD*%
%TA.AperFunction,ComponentPad*%
%ADD20C,2.600000*%
%TD*%
%TA.AperFunction,ComponentPad*%
%ADD21R,2.600000X2.600000*%
%TD*%
%TA.AperFunction,Conductor*%
%ADD22C,0.250000*%
%TD*%
%TA.AperFunction,Conductor*%
%ADD23C,0.254000*%
%TD*%
%TA.AperFunction,Conductor*%
%ADD24C,0.100000*%
%TD*%
G04 APERTURE END LIST*
D10*
X102870000Y-117856000D03*
D11*
X113030000Y-117856000D03*
D12*
X146478000Y-80010000D03*
D13*
X141478000Y-80010000D03*
D14*
X144526000Y-91908000D03*
%TA.AperFunction,ComponentPad*%
G36*
G01*
X143776000Y-88558000D02*
X145276000Y-88558000D01*
G75*
G02*
X145526000Y-88808000I0J-250000D01*
G01*
X145526000Y-90008000D01*
G75*
G02*
X145276000Y-90258000I-250000J0D01*
G01*
X143776000Y-90258000D01*
G75*
G02*
X143526000Y-90008000I0J250000D01*
G01*
X143526000Y-88808000D01*
G75*
G02*
X143776000Y-88558000I250000J0D01*
G01*
G37*
%TD.AperFunction*%
X144526000Y-101306000D03*
%TA.AperFunction,ComponentPad*%
G36*
G01*
X143776000Y-97956000D02*
X145276000Y-97956000D01*
G75*
G02*
X145526000Y-98206000I0J-250000D01*
G01*
X145526000Y-99406000D01*
G75*
G02*
X145276000Y-99656000I-250000J0D01*
G01*
X143776000Y-99656000D01*
G75*
G02*
X143526000Y-99406000I0J250000D01*
G01*
X143526000Y-98206000D01*
G75*
G02*
X143776000Y-97956000I250000J0D01*
G01*
G37*
%TD.AperFunction*%
D15*
X120008000Y-118872000D03*
X122508000Y-118872000D03*
X125008000Y-118872000D03*
%TA.AperFunction,ComponentPad*%
G36*
G01*
X128358000Y-118147000D02*
X128358000Y-119597000D01*
G75*
G02*
X128108000Y-119847000I-250000J0D01*
G01*
X126908000Y-119847000D01*
G75*
G02*
X126658000Y-119597000I0J250000D01*
G01*
X126658000Y-118147000D01*
G75*
G02*
X126908000Y-117897000I250000J0D01*
G01*
X128108000Y-117897000D01*
G75*
G02*
X128358000Y-118147000I0J-250000D01*
G01*
G37*
%TD.AperFunction*%
D14*
X144526000Y-110704000D03*
%TA.AperFunction,ComponentPad*%
G36*
G01*
X143776000Y-107354000D02*
X145276000Y-107354000D01*
G75*
G02*
X145526000Y-107604000I0J-250000D01*
G01*
X145526000Y-108804000D01*
G75*
G02*
X145276000Y-109054000I-250000J0D01*
G01*
X143776000Y-109054000D01*
G75*
G02*
X143526000Y-108804000I0J250000D01*
G01*
X143526000Y-107604000D01*
G75*
G02*
X143776000Y-107354000I250000J0D01*
G01*
G37*
%TD.AperFunction*%
D16*
X132588000Y-111760000D03*
X130048000Y-111760000D03*
X127508000Y-111760000D03*
X124968000Y-111760000D03*
X122428000Y-111760000D03*
X119888000Y-111760000D03*
X117348000Y-111760000D03*
D17*
X114808000Y-111760000D03*
D16*
X114808000Y-99060000D03*
X117348000Y-99060000D03*
X119888000Y-99060000D03*
X122428000Y-99060000D03*
X124968000Y-99060000D03*
X127508000Y-99060000D03*
X130048000Y-99060000D03*
D17*
X132588000Y-99060000D03*
D16*
X113030000Y-91186000D03*
X113030000Y-88646000D03*
X113030000Y-86106000D03*
X113030000Y-83566000D03*
X113030000Y-81026000D03*
X113030000Y-78486000D03*
X113030000Y-75946000D03*
X113030000Y-73406000D03*
X113030000Y-70866000D03*
X113030000Y-68326000D03*
X113030000Y-65786000D03*
X113030000Y-63246000D03*
X113030000Y-60706000D03*
X113030000Y-58166000D03*
D17*
X113030000Y-55626000D03*
D16*
X135890000Y-91186000D03*
X135890000Y-88646000D03*
X135890000Y-86106000D03*
X135890000Y-83566000D03*
X135890000Y-81026000D03*
X135890000Y-78486000D03*
X135890000Y-75946000D03*
X135890000Y-73406000D03*
X135890000Y-70866000D03*
X135890000Y-68326000D03*
X135890000Y-65786000D03*
X135890000Y-63246000D03*
X135890000Y-60706000D03*
X135890000Y-58166000D03*
D17*
X135890000Y-55626000D03*
D18*
X109220000Y-78994000D03*
D19*
X109220000Y-84074000D03*
D14*
X102870000Y-91226000D03*
%TA.AperFunction,ComponentPad*%
G36*
G01*
X103620000Y-94576000D02*
X102120000Y-94576000D01*
G75*
G02*
X101870000Y-94326000I0J250000D01*
G01*
X101870000Y-93126000D01*
G75*
G02*
X102120000Y-92876000I250000J0D01*
G01*
X103620000Y-92876000D01*
G75*
G02*
X103870000Y-93126000I0J-250000D01*
G01*
X103870000Y-94326000D01*
G75*
G02*
X103620000Y-94576000I-250000J0D01*
G01*
G37*
%TD.AperFunction*%
D20*
X141788000Y-68580000D03*
D21*
X145288000Y-68580000D03*
D14*
X102870000Y-81066000D03*
%TA.AperFunction,ComponentPad*%
G36*
G01*
X103620000Y-84416000D02*
X102120000Y-84416000D01*
G75*
G02*
X101870000Y-84166000I0J250000D01*
G01*
X101870000Y-82966000D01*
G75*
G02*
X102120000Y-82716000I250000J0D01*
G01*
X103620000Y-82716000D01*
G75*
G02*
X103870000Y-82966000I0J-250000D01*
G01*
X103870000Y-84166000D01*
G75*
G02*
X103620000Y-84416000I-250000J0D01*
G01*
G37*
%TD.AperFunction*%
D20*
X102164000Y-69088000D03*
D21*
X105664000Y-69088000D03*
D22*
X113030000Y-58166000D02*
X111760000Y-58166000D01*
X111760000Y-58166000D02*
X109982000Y-59944000D01*
X109982000Y-59944000D02*
X110744000Y-59944000D01*
X110744000Y-59944000D02*
X111506000Y-59182000D01*
X117348000Y-95504000D02*
X113030000Y-91186000D01*
X117348000Y-99060000D02*
X117348000Y-95504000D01*
X119634000Y-86106000D02*
X113030000Y-86106000D01*
X132588000Y-99060000D02*
X119634000Y-86106000D01*
X113030000Y-82804000D02*
X113030000Y-83566000D01*
X109220000Y-78994000D02*
X113030000Y-82804000D01*
X108194999Y-60461001D02*
X113030000Y-55626000D01*
X108194999Y-79486001D02*
X108194999Y-60461001D01*
X110245001Y-81536003D02*
X108194999Y-79486001D01*
X110245001Y-84566001D02*
X110245001Y-81536003D01*
X109712001Y-85099001D02*
X110245001Y-84566001D01*
X108776003Y-85099001D02*
X109712001Y-85099001D01*
X106172000Y-82494998D02*
X108776003Y-85099001D01*
X102870000Y-85796998D02*
X106172000Y-82494998D01*
X102870000Y-91226000D02*
X102870000Y-85796998D01*
X114205001Y-82201001D02*
X113030000Y-81026000D01*
X114205001Y-84130001D02*
X114205001Y-82201001D01*
X113594001Y-84741001D02*
X114205001Y-84130001D01*
X112616999Y-84741001D02*
X113594001Y-84741001D01*
X103632000Y-93726000D02*
X112616999Y-84741001D01*
X102870000Y-93726000D02*
X103632000Y-93726000D01*
X106212000Y-81066000D02*
X109220000Y-84074000D01*
X102870000Y-81066000D02*
X106212000Y-81066000D01*
X134573002Y-94949002D02*
X113030000Y-73406000D01*
X134573002Y-100751002D02*
X134573002Y-94949002D01*
X144526000Y-110704000D02*
X134573002Y-100751002D01*
X144526000Y-74422000D02*
X135890000Y-65786000D01*
X144526000Y-89408000D02*
X144526000Y-74422000D01*
X145851010Y-97480990D02*
X144526000Y-98806000D01*
X145851010Y-89733010D02*
X145851010Y-97480990D01*
X145526000Y-89408000D02*
X145851010Y-89733010D01*
X144526000Y-89408000D02*
X145526000Y-89408000D01*
X145851010Y-106878990D02*
X144526000Y-108204000D01*
X145851010Y-100131010D02*
X145851010Y-106878990D01*
X144526000Y-98806000D02*
X145851010Y-100131010D01*
X120008000Y-111880000D02*
X119888000Y-111760000D01*
X120008000Y-118872000D02*
X120008000Y-111880000D01*
X122508000Y-111840000D02*
X122428000Y-111760000D01*
X122508000Y-118872000D02*
X122508000Y-111840000D01*
X125008000Y-111800000D02*
X124968000Y-111760000D01*
X125008000Y-118872000D02*
X125008000Y-111800000D01*
X127508000Y-118872000D02*
X127508000Y-111760000D01*
X113030000Y-71666998D02*
X113030000Y-70866000D01*
X142669002Y-101306000D02*
X113030000Y-71666998D01*
X144526000Y-101306000D02*
X142669002Y-101306000D01*
X135325999Y-92361001D02*
X114205001Y-71240003D01*
X114205001Y-71240003D02*
X114205001Y-69501001D01*
X144072999Y-92361001D02*
X135325999Y-92361001D01*
X114205001Y-69501001D02*
X113030000Y-68326000D01*
X144526000Y-91908000D02*
X144072999Y-92361001D01*
X113030000Y-116078000D02*
X117348000Y-111760000D01*
X113030000Y-117856000D02*
X113030000Y-116078000D01*
D23*
X149429001Y-121743000D02*
X98729000Y-121743000D01*
X98729000Y-117675268D01*
X101035000Y-117675268D01*
X101035000Y-118036732D01*
X101105518Y-118391250D01*
X101243844Y-118725199D01*
X101444662Y-119025744D01*
X101700256Y-119281338D01*
X102000801Y-119482156D01*
X102334750Y-119620482D01*
X102689268Y-119691000D01*
X103050732Y-119691000D01*
X103405250Y-119620482D01*
X103739199Y-119482156D01*
X104039744Y-119281338D01*
X104295338Y-119025744D01*
X104496156Y-118725199D01*
X104634482Y-118391250D01*
X104705000Y-118036732D01*
X104705000Y-117675268D01*
X104634482Y-117320750D01*
X104496156Y-116986801D01*
X104295338Y-116686256D01*
X104265082Y-116656000D01*
X111191928Y-116656000D01*
X111191928Y-119056000D01*
X111204188Y-119180482D01*
X111240498Y-119300180D01*
X111299463Y-119410494D01*
X111378815Y-119507185D01*
X111475506Y-119586537D01*
X111585820Y-119645502D01*
X111705518Y-119681812D01*
X111830000Y-119694072D01*
X114230000Y-119694072D01*
X114354482Y-119681812D01*
X114474180Y-119645502D01*
X114584494Y-119586537D01*
X114681185Y-119507185D01*
X114760537Y-119410494D01*
X114819502Y-119300180D01*
X114855812Y-119180482D01*
X114868072Y-119056000D01*
X114868072Y-116656000D01*
X114855812Y-116531518D01*
X114819502Y-116411820D01*
X114760537Y-116301506D01*
X114681185Y-116204815D01*
X114584494Y-116125463D01*
X114474180Y-116066498D01*
X114354482Y-116030188D01*
X114230000Y-116017928D01*
X114164873Y-116017928D01*
X116981592Y-113201210D01*
X117201740Y-113245000D01*
X117494260Y-113245000D01*
X117781158Y-113187932D01*
X118051411Y-113075990D01*
X118294632Y-112913475D01*
X118501475Y-112706632D01*
X118618000Y-112532240D01*
X118734525Y-112706632D01*
X118941368Y-112913475D01*
X119184589Y-113075990D01*
X119248001Y-113102256D01*
X119248000Y-117469406D01*
X119178987Y-117506294D01*
X118952866Y-117691866D01*
X118767294Y-117917986D01*
X118629401Y-118175966D01*
X118544487Y-118455889D01*
X118523000Y-118674050D01*
X118523000Y-119069949D01*
X118544487Y-119288110D01*
X118629401Y-119568033D01*
X118767294Y-119826013D01*
X118952866Y-120052134D01*
X119178986Y-120237706D01*
X119436966Y-120375599D01*
X119716889Y-120460513D01*
X120008000Y-120489185D01*
X120299110Y-120460513D01*
X120579033Y-120375599D01*
X120837013Y-120237706D01*
X121063134Y-120052134D01*
X121248706Y-119826014D01*
X121258000Y-119808626D01*
X121267294Y-119826013D01*
X121452866Y-120052134D01*
X121678986Y-120237706D01*
X121936966Y-120375599D01*
X122216889Y-120460513D01*
X122508000Y-120489185D01*
X122799110Y-120460513D01*
X123079033Y-120375599D01*
X123337013Y-120237706D01*
X123563134Y-120052134D01*
X123748706Y-119826014D01*
X123758000Y-119808626D01*
X123767294Y-119826013D01*
X123952866Y-120052134D01*
X124178986Y-120237706D01*
X124436966Y-120375599D01*
X124716889Y-120460513D01*
X125008000Y-120489185D01*
X125299110Y-120460513D01*
X125579033Y-120375599D01*
X125837013Y-120237706D01*
X126063134Y-120052134D01*
X126115223Y-119988663D01*
X126169595Y-120090386D01*
X126280038Y-120224962D01*
X126414614Y-120335405D01*
X126568150Y-120417472D01*
X126734746Y-120468008D01*
X126908000Y-120485072D01*
X128108000Y-120485072D01*
X128281254Y-120468008D01*
X128447850Y-120417472D01*
X128601386Y-120335405D01*
X128735962Y-120224962D01*
X128846405Y-120090386D01*
X128928472Y-119936850D01*
X128979008Y-119770254D01*
X128996072Y-119597000D01*
X128996072Y-118147000D01*
X128992132Y-118107000D01*
X129229637Y-118107000D01*
X129468236Y-118059540D01*
X129692992Y-117966443D01*
X129895267Y-117831287D01*
X130067287Y-117659267D01*
X130202443Y-117456992D01*
X130295540Y-117232236D01*
X130343000Y-116993637D01*
X130343000Y-116750363D01*
X130295540Y-116511764D01*
X130202443Y-116287008D01*
X130067287Y-116084733D01*
X129895267Y-115912713D01*
X129692992Y-115777557D01*
X129468236Y-115684460D01*
X129229637Y-115637000D01*
X128986363Y-115637000D01*
X128747764Y-115684460D01*
X128523008Y-115777557D01*
X128320733Y-115912713D01*
X128268000Y-115965446D01*
X128268000Y-113038178D01*
X128454632Y-112913475D01*
X128661475Y-112706632D01*
X128778000Y-112532240D01*
X128894525Y-112706632D01*
X129101368Y-112913475D01*
X129344589Y-113075990D01*
X129614842Y-113187932D01*
X129901740Y-113245000D01*
X130194260Y-113245000D01*
X130481158Y-113187932D01*
X130751411Y-113075990D01*
X130994632Y-112913475D01*
X131201475Y-112706632D01*
X131318000Y-112532240D01*
X131434525Y-112706632D01*
X131641368Y-112913475D01*
X131884589Y-113075990D01*
X132154842Y-113187932D01*
X132441740Y-113245000D01*
X132734260Y-113245000D01*
X133021158Y-113187932D01*
X133291411Y-113075990D01*
X133534632Y-112913475D01*
X133741475Y-112706632D01*
X133903990Y-112463411D01*
X134015932Y-112193158D01*
X134073000Y-111906260D01*
X134073000Y-111613740D01*
X134015932Y-111326842D01*
X133903990Y-111056589D01*
X133741475Y-110813368D01*
X133534632Y-110606525D01*
X133291411Y-110444010D01*
X133021158Y-110332068D01*
X132734260Y-110275000D01*
X132441740Y-110275000D01*
X132154842Y-110332068D01*
X131884589Y-110444010D01*
X131641368Y-110606525D01*
X131434525Y-110813368D01*
X131318000Y-110987760D01*
X131201475Y-110813368D01*
X130994632Y-110606525D01*
X130751411Y-110444010D01*
X130481158Y-110332068D01*
X130194260Y-110275000D01*
X129901740Y-110275000D01*
X129614842Y-110332068D01*
X129344589Y-110444010D01*
X129101368Y-110606525D01*
X128894525Y-110813368D01*
X128778000Y-110987760D01*
X128661475Y-110813368D01*
X128454632Y-110606525D01*
X128211411Y-110444010D01*
X127941158Y-110332068D01*
X127654260Y-110275000D01*
X127361740Y-110275000D01*
X127074842Y-110332068D01*
X126804589Y-110444010D01*
X126561368Y-110606525D01*
X126354525Y-110813368D01*
X126238000Y-110987760D01*
X126121475Y-110813368D01*
X125914632Y-110606525D01*
X125671411Y-110444010D01*
X125401158Y-110332068D01*
X125114260Y-110275000D01*
X124821740Y-110275000D01*
X124534842Y-110332068D01*
X124264589Y-110444010D01*
X124021368Y-110606525D01*
X123814525Y-110813368D01*
X123698000Y-110987760D01*
X123581475Y-110813368D01*
X123374632Y-110606525D01*
X123131411Y-110444010D01*
X122861158Y-110332068D01*
X122574260Y-110275000D01*
X122281740Y-110275000D01*
X121994842Y-110332068D01*
X121724589Y-110444010D01*
X121481368Y-110606525D01*
X121274525Y-110813368D01*
X121158000Y-110987760D01*
X121041475Y-110813368D01*
X120834632Y-110606525D01*
X120591411Y-110444010D01*
X120321158Y-110332068D01*
X120034260Y-110275000D01*
X119741740Y-110275000D01*
X119454842Y-110332068D01*
X119184589Y-110444010D01*
X118941368Y-110606525D01*
X118734525Y-110813368D01*
X118618000Y-110987760D01*
X118501475Y-110813368D01*
X118294632Y-110606525D01*
X118051411Y-110444010D01*
X117781158Y-110332068D01*
X117494260Y-110275000D01*
X117201740Y-110275000D01*
X116914842Y-110332068D01*
X116644589Y-110444010D01*
X116401368Y-110606525D01*
X116269513Y-110738380D01*
X116247502Y-110665820D01*
X116188537Y-110555506D01*
X116109185Y-110458815D01*
X116012494Y-110379463D01*
X115902180Y-110320498D01*
X115782482Y-110284188D01*
X115658000Y-110271928D01*
X115093750Y-110275000D01*
X114935000Y-110433750D01*
X114935000Y-111633000D01*
X114955000Y-111633000D01*
X114955000Y-111887000D01*
X114935000Y-111887000D01*
X114935000Y-111907000D01*
X114681000Y-111907000D01*
X114681000Y-111887000D01*
X113481750Y-111887000D01*
X113323000Y-112045750D01*
X113319928Y-112610000D01*
X113332188Y-112734482D01*
X113368498Y-112854180D01*
X113427463Y-112964494D01*
X113506815Y-113061185D01*
X113603506Y-113140537D01*
X113713820Y-113199502D01*
X113833518Y-113235812D01*
X113958000Y-113248072D01*
X114522250Y-113245000D01*
X114680998Y-113086252D01*
X114680998Y-113245000D01*
X114788198Y-113245000D01*
X112518998Y-115514201D01*
X112490000Y-115537999D01*
X112466202Y-115566997D01*
X112466201Y-115566998D01*
X112395026Y-115653724D01*
X112324454Y-115785754D01*
X112280998Y-115929015D01*
X112272241Y-116017928D01*
X111830000Y-116017928D01*
X111705518Y-116030188D01*
X111585820Y-116066498D01*
X111475506Y-116125463D01*
X111378815Y-116204815D01*
X111299463Y-116301506D01*
X111240498Y-116411820D01*
X111204188Y-116531518D01*
X111191928Y-116656000D01*
X104265082Y-116656000D01*
X104039744Y-116430662D01*
X103739199Y-116229844D01*
X103405250Y-116091518D01*
X103050732Y-116021000D01*
X102689268Y-116021000D01*
X102334750Y-116091518D01*
X102000801Y-116229844D01*
X101700256Y-116430662D01*
X101444662Y-116686256D01*
X101243844Y-116986801D01*
X101105518Y-117320750D01*
X101035000Y-117675268D01*
X98729000Y-117675268D01*
X98729000Y-110910000D01*
X113319928Y-110910000D01*
X113323000Y-111474250D01*
X113481750Y-111633000D01*
X114681000Y-111633000D01*
X114681000Y-110433750D01*
X114522250Y-110275000D01*
X113958000Y-110271928D01*
X113833518Y-110284188D01*
X113713820Y-110320498D01*
X113603506Y-110379463D01*
X113506815Y-110458815D01*
X113427463Y-110555506D01*
X113368498Y-110665820D01*
X113332188Y-110785518D01*
X113319928Y-110910000D01*
X98729000Y-110910000D01*
X98729000Y-81066000D01*
X101227815Y-81066000D01*
X101256487Y-81357111D01*
X101341401Y-81637034D01*
X101479294Y-81895014D01*
X101660608Y-82115945D01*
X101625820Y-82126498D01*
X101515506Y-82185463D01*
X101418815Y-82264815D01*
X101339463Y-82361506D01*
X101280498Y-82471820D01*
X101244188Y-82591518D01*
X101231928Y-82716000D01*
X101235000Y-83280250D01*
X101393750Y-83439000D01*
X102743000Y-83439000D01*
X102743000Y-83419000D01*
X102997000Y-83419000D01*
X102997000Y-83439000D01*
X103017000Y-83439000D01*
X103017000Y-83693000D01*
X102997000Y-83693000D01*
X102997000Y-83713000D01*
X102743000Y-83713000D01*
X102743000Y-83693000D01*
X101393750Y-83693000D01*
X101235000Y-83851750D01*
X101231928Y-84416000D01*
X101244188Y-84540482D01*
X101280498Y-84660180D01*
X101339463Y-84770494D01*
X101418815Y-84867185D01*
X101515506Y-84946537D01*
X101625820Y-85005502D01*
X101745518Y-85041812D01*
X101870000Y-85054072D01*
X102541011Y-85051186D01*
X102358998Y-85233199D01*
X102330000Y-85256997D01*
X102306202Y-85285995D01*
X102306201Y-85285996D01*
X102235026Y-85372722D01*
X102164454Y-85504752D01*
X102145876Y-85565999D01*
X102120998Y-85648012D01*
X102117678Y-85681724D01*
X102106324Y-85796998D01*
X102110001Y-85834330D01*
X102110000Y-89868229D01*
X101890986Y-89985294D01*
X101664866Y-90170866D01*
X101479294Y-90396986D01*
X101341401Y-90654966D01*
X101256487Y-90934889D01*
X101227815Y-91226000D01*
X101256487Y-91517111D01*
X101341401Y-91797034D01*
X101479294Y-92055014D01*
X101664866Y-92281134D01*
X101728337Y-92333223D01*
X101626614Y-92387595D01*
X101492038Y-92498038D01*
X101381595Y-92632614D01*
X101299528Y-92786150D01*
X101248992Y-92952746D01*
X101231928Y-93126000D01*
X101231928Y-94326000D01*
X101248992Y-94499254D01*
X101299528Y-94665850D01*
X101381595Y-94819386D01*
X101492038Y-94953962D01*
X101626614Y-95064405D01*
X101780150Y-95146472D01*
X101946746Y-95197008D01*
X102120000Y-95214072D01*
X103620000Y-95214072D01*
X103635000Y-95212595D01*
X103635000Y-95447637D01*
X103682460Y-95686236D01*
X103775557Y-95910992D01*
X103910713Y-96113267D01*
X104082733Y-96285287D01*
X104285008Y-96420443D01*
X104509764Y-96513540D01*
X104748363Y-96561000D01*
X104991637Y-96561000D01*
X105230236Y-96513540D01*
X105454992Y-96420443D01*
X105657267Y-96285287D01*
X105829287Y-96113267D01*
X105964443Y-95910992D01*
X106057540Y-95686236D01*
X106105000Y-95447637D01*
X106105000Y-95204363D01*
X106057540Y-94965764D01*
X105964443Y-94741008D01*
X105829287Y-94538733D01*
X105657267Y-94366713D01*
X105454992Y-94231557D01*
X105230236Y-94138460D01*
X104991637Y-94091000D01*
X104748363Y-94091000D01*
X104509764Y-94138460D01*
X104508072Y-94139161D01*
X104508072Y-93924729D01*
X111687469Y-86745334D01*
X111714010Y-86809411D01*
X111876525Y-87052632D01*
X112083368Y-87259475D01*
X112257760Y-87376000D01*
X112083368Y-87492525D01*
X111876525Y-87699368D01*
X111714010Y-87942589D01*
X111602068Y-88212842D01*
X111545000Y-88499740D01*
X111545000Y-88792260D01*
X111602068Y-89079158D01*
X111714010Y-89349411D01*
X111876525Y-89592632D01*
X112083368Y-89799475D01*
X112257760Y-89916000D01*
X112083368Y-90032525D01*
X111876525Y-90239368D01*
X111714010Y-90482589D01*
X111602068Y-90752842D01*
X111545000Y-91039740D01*
X111545000Y-91332260D01*
X111602068Y-91619158D01*
X111714010Y-91889411D01*
X111876525Y-92132632D01*
X112083368Y-92339475D01*
X112326589Y-92501990D01*
X112596842Y-92613932D01*
X112883740Y-92671000D01*
X113176260Y-92671000D01*
X113396408Y-92627209D01*
X116588001Y-95818803D01*
X116588000Y-97781821D01*
X116401368Y-97906525D01*
X116194525Y-98113368D01*
X116078000Y-98287760D01*
X115961475Y-98113368D01*
X115754632Y-97906525D01*
X115511411Y-97744010D01*
X115241158Y-97632068D01*
X114954260Y-97575000D01*
X114661740Y-97575000D01*
X114374842Y-97632068D01*
X114104589Y-97744010D01*
X113861368Y-97906525D01*
X113654525Y-98113368D01*
X113492010Y-98356589D01*
X113380068Y-98626842D01*
X113323000Y-98913740D01*
X113323000Y-99206260D01*
X113380068Y-99493158D01*
X113492010Y-99763411D01*
X113654525Y-100006632D01*
X113861368Y-100213475D01*
X114104589Y-100375990D01*
X114374842Y-100487932D01*
X114661740Y-100545000D01*
X114954260Y-100545000D01*
X115241158Y-100487932D01*
X115511411Y-100375990D01*
X115754632Y-100213475D01*
X115961475Y-100006632D01*
X116078000Y-99832240D01*
X116194525Y-100006632D01*
X116401368Y-100213475D01*
X116644589Y-100375990D01*
X116914842Y-100487932D01*
X117201740Y-100545000D01*
X117494260Y-100545000D01*
X117781158Y-100487932D01*
X118051411Y-100375990D01*
X118294632Y-100213475D01*
X118501475Y-100006632D01*
X118618000Y-99832240D01*
X118734525Y-100006632D01*
X118941368Y-100213475D01*
X119184589Y-100375990D01*
X119454842Y-100487932D01*
X119741740Y-100545000D01*
X120034260Y-100545000D01*
X120321158Y-100487932D01*
X120591411Y-100375990D01*
X120834632Y-100213475D01*
X121041475Y-100006632D01*
X121158000Y-99832240D01*
X121274525Y-100006632D01*
X121481368Y-100213475D01*
X121724589Y-100375990D01*
X121994842Y-100487932D01*
X122281740Y-100545000D01*
X122574260Y-100545000D01*
X122861158Y-100487932D01*
X123131411Y-100375990D01*
X123374632Y-100213475D01*
X123581475Y-100006632D01*
X123698000Y-99832240D01*
X123814525Y-100006632D01*
X124021368Y-100213475D01*
X124264589Y-100375990D01*
X124534842Y-100487932D01*
X124821740Y-100545000D01*
X125114260Y-100545000D01*
X125401158Y-100487932D01*
X125671411Y-100375990D01*
X125914632Y-100213475D01*
X126121475Y-100006632D01*
X126238000Y-99832240D01*
X126354525Y-100006632D01*
X126561368Y-100213475D01*
X126804589Y-100375990D01*
X127074842Y-100487932D01*
X127361740Y-100545000D01*
X127654260Y-100545000D01*
X127941158Y-100487932D01*
X128211411Y-100375990D01*
X128454632Y-100213475D01*
X128661475Y-100006632D01*
X128778000Y-99832240D01*
X128894525Y-100006632D01*
X129101368Y-100213475D01*
X129344589Y-100375990D01*
X129614842Y-100487932D01*
X129901740Y-100545000D01*
X130194260Y-100545000D01*
X130481158Y-100487932D01*
X130751411Y-100375990D01*
X130994632Y-100213475D01*
X131126487Y-100081620D01*
X131148498Y-100154180D01*
X131207463Y-100264494D01*
X131286815Y-100361185D01*
X131383506Y-100440537D01*
X131493820Y-100499502D01*
X131613518Y-100535812D01*
X131738000Y-100548072D01*
X133438000Y-100548072D01*
X133562482Y-100535812D01*
X133682180Y-100499502D01*
X133792494Y-100440537D01*
X133813002Y-100423707D01*
X133813002Y-100713679D01*
X133809326Y-100751002D01*
X133813002Y-100788324D01*
X133813002Y-100788334D01*
X133823999Y-100899987D01*
X133858509Y-101013753D01*
X133867456Y-101043248D01*
X133938028Y-101175278D01*
X133977873Y-101223828D01*
X134033001Y-101291003D01*
X134062005Y-101314806D01*
X142970115Y-110222917D01*
X142912487Y-110412889D01*
X142883815Y-110704000D01*
X142912487Y-110995111D01*
X142997401Y-111275034D01*
X143135294Y-111533014D01*
X143320866Y-111759134D01*
X143546986Y-111944706D01*
X143804966Y-112082599D01*
X144084889Y-112167513D01*
X144303050Y-112189000D01*
X144748950Y-112189000D01*
X144967111Y-112167513D01*
X145247034Y-112082599D01*
X145505014Y-111944706D01*
X145731134Y-111759134D01*
X145916706Y-111533014D01*
X146054599Y-111275034D01*
X146139513Y-110995111D01*
X146168185Y-110704000D01*
X146139513Y-110412889D01*
X146054599Y-110132966D01*
X145916706Y-109874986D01*
X145731134Y-109648866D01*
X145667663Y-109596777D01*
X145769386Y-109542405D01*
X145903962Y-109431962D01*
X146014405Y-109297386D01*
X146096472Y-109143850D01*
X146147008Y-108977254D01*
X146164072Y-108804000D01*
X146164072Y-107640730D01*
X146362013Y-107442789D01*
X146391011Y-107418991D01*
X146417342Y-107386907D01*
X146485984Y-107303267D01*
X146556556Y-107171237D01*
X146574945Y-107110614D01*
X146600013Y-107027976D01*
X146611010Y-106916323D01*
X146611010Y-106916314D01*
X146614686Y-106878991D01*
X146611010Y-106841668D01*
X146611010Y-100168332D01*
X146614686Y-100131009D01*
X146611010Y-100093686D01*
X146611010Y-100093677D01*
X146600013Y-99982024D01*
X146556556Y-99838763D01*
X146516279Y-99763411D01*
X146485984Y-99706733D01*
X146414809Y-99620007D01*
X146391011Y-99591009D01*
X146362014Y-99567212D01*
X146164072Y-99369270D01*
X146164072Y-98242730D01*
X146362013Y-98044789D01*
X146391011Y-98020991D01*
X146436289Y-97965820D01*
X146485984Y-97905267D01*
X146556556Y-97773237D01*
X146574945Y-97712614D01*
X146600013Y-97629976D01*
X146611010Y-97518323D01*
X146611010Y-97518314D01*
X146614686Y-97480991D01*
X146611010Y-97443668D01*
X146611010Y-89770343D01*
X146614687Y-89733010D01*
X146600013Y-89584024D01*
X146556556Y-89440763D01*
X146485984Y-89308734D01*
X146391011Y-89193009D01*
X146362008Y-89169207D01*
X146164072Y-88971271D01*
X146164072Y-88808000D01*
X146147008Y-88634746D01*
X146096472Y-88468150D01*
X146014405Y-88314614D01*
X145903962Y-88180038D01*
X145769386Y-88069595D01*
X145615850Y-87987528D01*
X145449254Y-87936992D01*
X145286000Y-87920913D01*
X145286000Y-81130239D01*
X145435748Y-81279987D01*
X145703537Y-81458918D01*
X146001088Y-81582168D01*
X146316967Y-81645000D01*
X146639033Y-81645000D01*
X146954912Y-81582168D01*
X147252463Y-81458918D01*
X147520252Y-81279987D01*
X147747987Y-81052252D01*
X147926918Y-80784463D01*
X148050168Y-80486912D01*
X148113000Y-80171033D01*
X148113000Y-79848967D01*
X148050168Y-79533088D01*
X147926918Y-79235537D01*
X147747987Y-78967748D01*
X147520252Y-78740013D01*
X147252463Y-78561082D01*
X146954912Y-78437832D01*
X146639033Y-78375000D01*
X146316967Y-78375000D01*
X146001088Y-78437832D01*
X145703537Y-78561082D01*
X145435748Y-78740013D01*
X145286000Y-78889761D01*
X145286000Y-74459322D01*
X145289676Y-74421999D01*
X145286000Y-74384676D01*
X145286000Y-74384667D01*
X145275003Y-74273014D01*
X145231546Y-74129753D01*
X145160974Y-73997724D01*
X145066001Y-73881999D01*
X145037003Y-73858201D01*
X141693802Y-70515000D01*
X141978581Y-70515000D01*
X142352419Y-70440639D01*
X142704566Y-70294775D01*
X143021491Y-70083013D01*
X143291013Y-69813491D01*
X143349928Y-69725318D01*
X143349928Y-69880000D01*
X143362188Y-70004482D01*
X143398498Y-70124180D01*
X143457463Y-70234494D01*
X143536815Y-70331185D01*
X143633506Y-70410537D01*
X143743820Y-70469502D01*
X143863518Y-70505812D01*
X143988000Y-70518072D01*
X146588000Y-70518072D01*
X146712482Y-70505812D01*
X146832180Y-70469502D01*
X146942494Y-70410537D01*
X147039185Y-70331185D01*
X147118537Y-70234494D01*
X147177502Y-70124180D01*
X147213812Y-70004482D01*
X147226072Y-69880000D01*
X147226072Y-67280000D01*
X147213812Y-67155518D01*
X147177502Y-67035820D01*
X147118537Y-66925506D01*
X147039185Y-66828815D01*
X146942494Y-66749463D01*
X146832180Y-66690498D01*
X146712482Y-66654188D01*
X146588000Y-66641928D01*
X143988000Y-66641928D01*
X143863518Y-66654188D01*
X143743820Y-66690498D01*
X143633506Y-66749463D01*
X143536815Y-66828815D01*
X143457463Y-66925506D01*
X143398498Y-67035820D01*
X143362188Y-67155518D01*
X143349928Y-67280000D01*
X143349928Y-67434682D01*
X143291013Y-67346509D01*
X143021491Y-67076987D01*
X142704566Y-66865225D01*
X142352419Y-66719361D01*
X141978581Y-66645000D01*
X141597419Y-66645000D01*
X141223581Y-66719361D01*
X140871434Y-66865225D01*
X140554509Y-67076987D01*
X140284987Y-67346509D01*
X140073225Y-67663434D01*
X139927361Y-68015581D01*
X139853000Y-68389419D01*
X139853000Y-68674199D01*
X137331209Y-66152408D01*
X137375000Y-65932260D01*
X137375000Y-65639740D01*
X137317932Y-65352842D01*
X137205990Y-65082589D01*
X137043475Y-64839368D01*
X136836632Y-64632525D01*
X136662240Y-64516000D01*
X136836632Y-64399475D01*
X137043475Y-64192632D01*
X137205990Y-63949411D01*
X137317932Y-63679158D01*
X137375000Y-63392260D01*
X137375000Y-63099740D01*
X137317932Y-62812842D01*
X137205990Y-62542589D01*
X137043475Y-62299368D01*
X136836632Y-62092525D01*
X136662240Y-61976000D01*
X136836632Y-61859475D01*
X137043475Y-61652632D01*
X137205990Y-61409411D01*
X137317932Y-61139158D01*
X137375000Y-60852260D01*
X137375000Y-60559740D01*
X137317932Y-60272842D01*
X137205990Y-60002589D01*
X137043475Y-59759368D01*
X136836632Y-59552525D01*
X136654466Y-59430805D01*
X136771355Y-59361178D01*
X136987588Y-59166269D01*
X137161641Y-58932920D01*
X137286825Y-58670099D01*
X137331476Y-58522890D01*
X137210155Y-58293000D01*
X136017000Y-58293000D01*
X136017000Y-58313000D01*
X135763000Y-58313000D01*
X135763000Y-58293000D01*
X134569845Y-58293000D01*
X134448524Y-58522890D01*
X134493175Y-58670099D01*
X134618359Y-58932920D01*
X134792412Y-59166269D01*
X135008645Y-59361178D01*
X135125534Y-59430805D01*
X134943368Y-59552525D01*
X134736525Y-59759368D01*
X134574010Y-60002589D01*
X134462068Y-60272842D01*
X134405000Y-60559740D01*
X134405000Y-60852260D01*
X134462068Y-61139158D01*
X134574010Y-61409411D01*
X134736525Y-61652632D01*
X134943368Y-61859475D01*
X135117760Y-61976000D01*
X134943368Y-62092525D01*
X134736525Y-62299368D01*
X134574010Y-62542589D01*
X134462068Y-62812842D01*
X134405000Y-63099740D01*
X134405000Y-63392260D01*
X134462068Y-63679158D01*
X134574010Y-63949411D01*
X134736525Y-64192632D01*
X134943368Y-64399475D01*
X135117760Y-64516000D01*
X134943368Y-64632525D01*
X134736525Y-64839368D01*
X134574010Y-65082589D01*
X134462068Y-65352842D01*
X134405000Y-65639740D01*
X134405000Y-65932260D01*
X134462068Y-66219158D01*
X134574010Y-66489411D01*
X134736525Y-66732632D01*
X134943368Y-66939475D01*
X135117760Y-67056000D01*
X134943368Y-67172525D01*
X134736525Y-67379368D01*
X134574010Y-67622589D01*
X134462068Y-67892842D01*
X134405000Y-68179740D01*
X134405000Y-68472260D01*
X134462068Y-68759158D01*
X134574010Y-69029411D01*
X134736525Y-69272632D01*
X134943368Y-69479475D01*
X135117760Y-69596000D01*
X134943368Y-69712525D01*
X134736525Y-69919368D01*
X134574010Y-70162589D01*
X134462068Y-70432842D01*
X134405000Y-70719740D01*
X134405000Y-71012260D01*
X134462068Y-71299158D01*
X134574010Y-71569411D01*
X134736525Y-71812632D01*
X134943368Y-72019475D01*
X135117760Y-72136000D01*
X134943368Y-72252525D01*
X134736525Y-72459368D01*
X134574010Y-72702589D01*
X134462068Y-72972842D01*
X134405000Y-73259740D01*
X134405000Y-73552260D01*
X134462068Y-73839158D01*
X134574010Y-74109411D01*
X134736525Y-74352632D01*
X134943368Y-74559475D01*
X135117760Y-74676000D01*
X134943368Y-74792525D01*
X134736525Y-74999368D01*
X134574010Y-75242589D01*
X134462068Y-75512842D01*
X134405000Y-75799740D01*
X134405000Y-76092260D01*
X134462068Y-76379158D01*
X134574010Y-76649411D01*
X134736525Y-76892632D01*
X134943368Y-77099475D01*
X135117760Y-77216000D01*
X134943368Y-77332525D01*
X134736525Y-77539368D01*
X134574010Y-77782589D01*
X134462068Y-78052842D01*
X134405000Y-78339740D01*
X134405000Y-78632260D01*
X134462068Y-78919158D01*
X134574010Y-79189411D01*
X134736525Y-79432632D01*
X134943368Y-79639475D01*
X135117760Y-79756000D01*
X134943368Y-79872525D01*
X134736525Y-80079368D01*
X134574010Y-80322589D01*
X134462068Y-80592842D01*
X134405000Y-80879740D01*
X134405000Y-81172260D01*
X134462068Y-81459158D01*
X134574010Y-81729411D01*
X134736525Y-81972632D01*
X134943368Y-82179475D01*
X135117760Y-82296000D01*
X134943368Y-82412525D01*
X134736525Y-82619368D01*
X134574010Y-82862589D01*
X134462068Y-83132842D01*
X134405000Y-83419740D01*
X134405000Y-83712260D01*
X134462068Y-83999158D01*
X134574010Y-84269411D01*
X134736525Y-84512632D01*
X134943368Y-84719475D01*
X135117760Y-84836000D01*
X134943368Y-84952525D01*
X134736525Y-85159368D01*
X134574010Y-85402589D01*
X134462068Y-85672842D01*
X134405000Y-85959740D01*
X134405000Y-86252260D01*
X134462068Y-86539158D01*
X134574010Y-86809411D01*
X134736525Y-87052632D01*
X134943368Y-87259475D01*
X135117760Y-87376000D01*
X134943368Y-87492525D01*
X134736525Y-87699368D01*
X134574010Y-87942589D01*
X134462068Y-88212842D01*
X134405000Y-88499740D01*
X134405000Y-88792260D01*
X134462068Y-89079158D01*
X134574010Y-89349411D01*
X134736525Y-89592632D01*
X134943368Y-89799475D01*
X135117760Y-89916000D01*
X134943368Y-90032525D01*
X134736525Y-90239368D01*
X134574010Y-90482589D01*
X134558891Y-90519091D01*
X114965001Y-70925202D01*
X114965001Y-69538323D01*
X114968677Y-69501000D01*
X114965001Y-69463677D01*
X114965001Y-69463668D01*
X114954004Y-69352015D01*
X114910547Y-69208754D01*
X114839975Y-69076725D01*
X114745002Y-68961000D01*
X114716004Y-68937202D01*
X114471210Y-68692408D01*
X114515000Y-68472260D01*
X114515000Y-68179740D01*
X114457932Y-67892842D01*
X114345990Y-67622589D01*
X114183475Y-67379368D01*
X113976632Y-67172525D01*
X113802240Y-67056000D01*
X113976632Y-66939475D01*
X114183475Y-66732632D01*
X114345990Y-66489411D01*
X114457932Y-66219158D01*
X114515000Y-65932260D01*
X114515000Y-65639740D01*
X114457932Y-65352842D01*
X114345990Y-65082589D01*
X114183475Y-64839368D01*
X113976632Y-64632525D01*
X113802240Y-64516000D01*
X113976632Y-64399475D01*
X114183475Y-64192632D01*
X114345990Y-63949411D01*
X114457932Y-63679158D01*
X114515000Y-63392260D01*
X114515000Y-63099740D01*
X114457932Y-62812842D01*
X114345990Y-62542589D01*
X114183475Y-62299368D01*
X113976632Y-62092525D01*
X113802240Y-61976000D01*
X113976632Y-61859475D01*
X114183475Y-61652632D01*
X114345990Y-61409411D01*
X114457932Y-61139158D01*
X114515000Y-60852260D01*
X114515000Y-60559740D01*
X114457932Y-60272842D01*
X114345990Y-60002589D01*
X114183475Y-59759368D01*
X113976632Y-59552525D01*
X113794466Y-59430805D01*
X113911355Y-59361178D01*
X114127588Y-59166269D01*
X114301641Y-58932920D01*
X114426825Y-58670099D01*
X114471476Y-58522890D01*
X114350155Y-58293000D01*
X113157000Y-58293000D01*
X113157000Y-58313000D01*
X112903000Y-58313000D01*
X112903000Y-58293000D01*
X112883000Y-58293000D01*
X112883000Y-58039000D01*
X112903000Y-58039000D01*
X112903000Y-58019000D01*
X113157000Y-58019000D01*
X113157000Y-58039000D01*
X114350155Y-58039000D01*
X114471476Y-57809110D01*
X114426825Y-57661901D01*
X114301641Y-57399080D01*
X114127588Y-57165731D01*
X114043534Y-57089966D01*
X114124180Y-57065502D01*
X114234494Y-57006537D01*
X114331185Y-56927185D01*
X114410537Y-56830494D01*
X114469502Y-56720180D01*
X114505812Y-56600482D01*
X114518072Y-56476000D01*
X114518072Y-54776000D01*
X134401928Y-54776000D01*
X134401928Y-56476000D01*
X134414188Y-56600482D01*
X134450498Y-56720180D01*
X134509463Y-56830494D01*
X134588815Y-56927185D01*
X134685506Y-57006537D01*
X134795820Y-57065502D01*
X134876466Y-57089966D01*
X134792412Y-57165731D01*
X134618359Y-57399080D01*
X134493175Y-57661901D01*
X134448524Y-57809110D01*
X134569845Y-58039000D01*
X135763000Y-58039000D01*
X135763000Y-58019000D01*
X136017000Y-58019000D01*
X136017000Y-58039000D01*
X137210155Y-58039000D01*
X137331476Y-57809110D01*
X137286825Y-57661901D01*
X137161641Y-57399080D01*
X136987588Y-57165731D01*
X136903534Y-57089966D01*
X136984180Y-57065502D01*
X137094494Y-57006537D01*
X137191185Y-56927185D01*
X137270537Y-56830494D01*
X137329502Y-56720180D01*
X137365812Y-56600482D01*
X137378072Y-56476000D01*
X137378072Y-54776000D01*
X137365812Y-54651518D01*
X137329502Y-54531820D01*
X137270537Y-54421506D01*
X137191185Y-54324815D01*
X137094494Y-54245463D01*
X136984180Y-54186498D01*
X136864482Y-54150188D01*
X136740000Y-54137928D01*
X135040000Y-54137928D01*
X134915518Y-54150188D01*
X134795820Y-54186498D01*
X134685506Y-54245463D01*
X134588815Y-54324815D01*
X134509463Y-54421506D01*
X134450498Y-54531820D01*
X134414188Y-54651518D01*
X134401928Y-54776000D01*
X114518072Y-54776000D01*
X114505812Y-54651518D01*
X114469502Y-54531820D01*
X114410537Y-54421506D01*
X114331185Y-54324815D01*
X114234494Y-54245463D01*
X114124180Y-54186498D01*
X114004482Y-54150188D01*
X113880000Y-54137928D01*
X112180000Y-54137928D01*
X112055518Y-54150188D01*
X111935820Y-54186498D01*
X111825506Y-54245463D01*
X111728815Y-54324815D01*
X111649463Y-54421506D01*
X111590498Y-54531820D01*
X111554188Y-54651518D01*
X111541928Y-54776000D01*
X111541928Y-56039270D01*
X107683997Y-59897202D01*
X107654999Y-59921000D01*
X107631201Y-59949998D01*
X107631200Y-59949999D01*
X107560025Y-60036725D01*
X107489453Y-60168755D01*
X107445997Y-60312016D01*
X107431323Y-60461001D01*
X107435000Y-60498334D01*
X107435000Y-67360959D01*
X107415185Y-67336815D01*
X107318494Y-67257463D01*
X107208180Y-67198498D01*
X107088482Y-67162188D01*
X106964000Y-67149928D01*
X105949750Y-67153000D01*
X105791000Y-67311750D01*
X105791000Y-68961000D01*
X105811000Y-68961000D01*
X105811000Y-69215000D01*
X105791000Y-69215000D01*
X105791000Y-70864250D01*
X105949750Y-71023000D01*
X106964000Y-71026072D01*
X107088482Y-71013812D01*
X107208180Y-70977502D01*
X107318494Y-70918537D01*
X107415185Y-70839185D01*
X107434999Y-70815041D01*
X107434999Y-79448679D01*
X107431323Y-79486001D01*
X107434999Y-79523323D01*
X107434999Y-79523333D01*
X107445996Y-79634986D01*
X107461896Y-79687401D01*
X107489453Y-79778247D01*
X107560025Y-79910277D01*
X107563025Y-79913932D01*
X107654998Y-80026002D01*
X107684002Y-80049805D01*
X109485002Y-81850806D01*
X109485002Y-82765558D01*
X109351486Y-82739000D01*
X109088514Y-82739000D01*
X108981157Y-82760355D01*
X106775804Y-80555003D01*
X106752001Y-80525999D01*
X106636276Y-80431026D01*
X106504247Y-80360454D01*
X106360986Y-80316997D01*
X106249333Y-80306000D01*
X106249322Y-80306000D01*
X106212000Y-80302324D01*
X106174678Y-80306000D01*
X104297595Y-80306000D01*
X104260706Y-80236986D01*
X104075134Y-80010866D01*
X103849014Y-79825294D01*
X103591034Y-79687401D01*
X103311111Y-79602487D01*
X103092950Y-79581000D01*
X102647050Y-79581000D01*
X102428889Y-79602487D01*
X102148966Y-79687401D01*
X101890986Y-79825294D01*
X101664866Y-80010866D01*
X101479294Y-80236986D01*
X101341401Y-80494966D01*
X101256487Y-80774889D01*
X101227815Y-81066000D01*
X98729000Y-81066000D01*
X98729000Y-68897419D01*
X100229000Y-68897419D01*
X100229000Y-69278581D01*
X100303361Y-69652419D01*
X100449225Y-70004566D01*
X100660987Y-70321491D01*
X100930509Y-70591013D01*
X101247434Y-70802775D01*
X101599581Y-70948639D01*
X101973419Y-71023000D01*
X102354581Y-71023000D01*
X102728419Y-70948639D01*
X103080566Y-70802775D01*
X103397491Y-70591013D01*
X103667013Y-70321491D01*
X103726399Y-70232614D01*
X103725928Y-70388000D01*
X103738188Y-70512482D01*
X103774498Y-70632180D01*
X103833463Y-70742494D01*
X103912815Y-70839185D01*
X104009506Y-70918537D01*
X104119820Y-70977502D01*
X104239518Y-71013812D01*
X104364000Y-71026072D01*
X105378250Y-71023000D01*
X105537000Y-70864250D01*
X105537000Y-69215000D01*
X105517000Y-69215000D01*
X105517000Y-68961000D01*
X105537000Y-68961000D01*
X105537000Y-67311750D01*
X105378250Y-67153000D01*
X104364000Y-67149928D01*
X104239518Y-67162188D01*
X104119820Y-67198498D01*
X104009506Y-67257463D01*
X103912815Y-67336815D01*
X103833463Y-67433506D01*
X103774498Y-67543820D01*
X103738188Y-67663518D01*
X103725928Y-67788000D01*
X103726399Y-67943386D01*
X103667013Y-67854509D01*
X103397491Y-67584987D01*
X103080566Y-67373225D01*
X102728419Y-67227361D01*
X102354581Y-67153000D01*
X101973419Y-67153000D01*
X101599581Y-67227361D01*
X101247434Y-67373225D01*
X100930509Y-67584987D01*
X100660987Y-67854509D01*
X100449225Y-68171434D01*
X100303361Y-68523581D01*
X100229000Y-68897419D01*
X98729000Y-68897419D01*
X98729000Y-53009000D01*
X149429000Y-53009000D01*
X149429001Y-121743000D01*
%TA.AperFunction,Conductor*%
D24*
G36*
X149429001Y-121743000D02*
G01*
X98729000Y-121743000D01*
X98729000Y-117675268D01*
X101035000Y-117675268D01*
X101035000Y-118036732D01*
X101105518Y-118391250D01*
X101243844Y-118725199D01*
X101444662Y-119025744D01*
X101700256Y-119281338D01*
X102000801Y-119482156D01*
X102334750Y-119620482D01*
X102689268Y-119691000D01*
X103050732Y-119691000D01*
X103405250Y-119620482D01*
X103739199Y-119482156D01*
X104039744Y-119281338D01*
X104295338Y-119025744D01*
X104496156Y-118725199D01*
X104634482Y-118391250D01*
X104705000Y-118036732D01*
X104705000Y-117675268D01*
X104634482Y-117320750D01*
X104496156Y-116986801D01*
X104295338Y-116686256D01*
X104265082Y-116656000D01*
X111191928Y-116656000D01*
X111191928Y-119056000D01*
X111204188Y-119180482D01*
X111240498Y-119300180D01*
X111299463Y-119410494D01*
X111378815Y-119507185D01*
X111475506Y-119586537D01*
X111585820Y-119645502D01*
X111705518Y-119681812D01*
X111830000Y-119694072D01*
X114230000Y-119694072D01*
X114354482Y-119681812D01*
X114474180Y-119645502D01*
X114584494Y-119586537D01*
X114681185Y-119507185D01*
X114760537Y-119410494D01*
X114819502Y-119300180D01*
X114855812Y-119180482D01*
X114868072Y-119056000D01*
X114868072Y-116656000D01*
X114855812Y-116531518D01*
X114819502Y-116411820D01*
X114760537Y-116301506D01*
X114681185Y-116204815D01*
X114584494Y-116125463D01*
X114474180Y-116066498D01*
X114354482Y-116030188D01*
X114230000Y-116017928D01*
X114164873Y-116017928D01*
X116981592Y-113201210D01*
X117201740Y-113245000D01*
X117494260Y-113245000D01*
X117781158Y-113187932D01*
X118051411Y-113075990D01*
X118294632Y-112913475D01*
X118501475Y-112706632D01*
X118618000Y-112532240D01*
X118734525Y-112706632D01*
X118941368Y-112913475D01*
X119184589Y-113075990D01*
X119248001Y-113102256D01*
X119248000Y-117469406D01*
X119178987Y-117506294D01*
X118952866Y-117691866D01*
X118767294Y-117917986D01*
X118629401Y-118175966D01*
X118544487Y-118455889D01*
X118523000Y-118674050D01*
X118523000Y-119069949D01*
X118544487Y-119288110D01*
X118629401Y-119568033D01*
X118767294Y-119826013D01*
X118952866Y-120052134D01*
X119178986Y-120237706D01*
X119436966Y-120375599D01*
X119716889Y-120460513D01*
X120008000Y-120489185D01*
X120299110Y-120460513D01*
X120579033Y-120375599D01*
X120837013Y-120237706D01*
X121063134Y-120052134D01*
X121248706Y-119826014D01*
X121258000Y-119808626D01*
X121267294Y-119826013D01*
X121452866Y-120052134D01*
X121678986Y-120237706D01*
X121936966Y-120375599D01*
X122216889Y-120460513D01*
X122508000Y-120489185D01*
X122799110Y-120460513D01*
X123079033Y-120375599D01*
X123337013Y-120237706D01*
X123563134Y-120052134D01*
X123748706Y-119826014D01*
X123758000Y-119808626D01*
X123767294Y-119826013D01*
X123952866Y-120052134D01*
X124178986Y-120237706D01*
X124436966Y-120375599D01*
X124716889Y-120460513D01*
X125008000Y-120489185D01*
X125299110Y-120460513D01*
X125579033Y-120375599D01*
X125837013Y-120237706D01*
X126063134Y-120052134D01*
X126115223Y-119988663D01*
X126169595Y-120090386D01*
X126280038Y-120224962D01*
X126414614Y-120335405D01*
X126568150Y-120417472D01*
X126734746Y-120468008D01*
X126908000Y-120485072D01*
X128108000Y-120485072D01*
X128281254Y-120468008D01*
X128447850Y-120417472D01*
X128601386Y-120335405D01*
X128735962Y-120224962D01*
X128846405Y-120090386D01*
X128928472Y-119936850D01*
X128979008Y-119770254D01*
X128996072Y-119597000D01*
X128996072Y-118147000D01*
X128992132Y-118107000D01*
X129229637Y-118107000D01*
X129468236Y-118059540D01*
X129692992Y-117966443D01*
X129895267Y-117831287D01*
X130067287Y-117659267D01*
X130202443Y-117456992D01*
X130295540Y-117232236D01*
X130343000Y-116993637D01*
X130343000Y-116750363D01*
X130295540Y-116511764D01*
X130202443Y-116287008D01*
X130067287Y-116084733D01*
X129895267Y-115912713D01*
X129692992Y-115777557D01*
X129468236Y-115684460D01*
X129229637Y-115637000D01*
X128986363Y-115637000D01*
X128747764Y-115684460D01*
X128523008Y-115777557D01*
X128320733Y-115912713D01*
X128268000Y-115965446D01*
X128268000Y-113038178D01*
X128454632Y-112913475D01*
X128661475Y-112706632D01*
X128778000Y-112532240D01*
X128894525Y-112706632D01*
X129101368Y-112913475D01*
X129344589Y-113075990D01*
X129614842Y-113187932D01*
X129901740Y-113245000D01*
X130194260Y-113245000D01*
X130481158Y-113187932D01*
X130751411Y-113075990D01*
X130994632Y-112913475D01*
X131201475Y-112706632D01*
X131318000Y-112532240D01*
X131434525Y-112706632D01*
X131641368Y-112913475D01*
X131884589Y-113075990D01*
X132154842Y-113187932D01*
X132441740Y-113245000D01*
X132734260Y-113245000D01*
X133021158Y-113187932D01*
X133291411Y-113075990D01*
X133534632Y-112913475D01*
X133741475Y-112706632D01*
X133903990Y-112463411D01*
X134015932Y-112193158D01*
X134073000Y-111906260D01*
X134073000Y-111613740D01*
X134015932Y-111326842D01*
X133903990Y-111056589D01*
X133741475Y-110813368D01*
X133534632Y-110606525D01*
X133291411Y-110444010D01*
X133021158Y-110332068D01*
X132734260Y-110275000D01*
X132441740Y-110275000D01*
X132154842Y-110332068D01*
X131884589Y-110444010D01*
X131641368Y-110606525D01*
X131434525Y-110813368D01*
X131318000Y-110987760D01*
X131201475Y-110813368D01*
X130994632Y-110606525D01*
X130751411Y-110444010D01*
X130481158Y-110332068D01*
X130194260Y-110275000D01*
X129901740Y-110275000D01*
X129614842Y-110332068D01*
X129344589Y-110444010D01*
X129101368Y-110606525D01*
X128894525Y-110813368D01*
X128778000Y-110987760D01*
X128661475Y-110813368D01*
X128454632Y-110606525D01*
X128211411Y-110444010D01*
X127941158Y-110332068D01*
X127654260Y-110275000D01*
X127361740Y-110275000D01*
X127074842Y-110332068D01*
X126804589Y-110444010D01*
X126561368Y-110606525D01*
X126354525Y-110813368D01*
X126238000Y-110987760D01*
X126121475Y-110813368D01*
X125914632Y-110606525D01*
X125671411Y-110444010D01*
X125401158Y-110332068D01*
X125114260Y-110275000D01*
X124821740Y-110275000D01*
X124534842Y-110332068D01*
X124264589Y-110444010D01*
X124021368Y-110606525D01*
X123814525Y-110813368D01*
X123698000Y-110987760D01*
X123581475Y-110813368D01*
X123374632Y-110606525D01*
X123131411Y-110444010D01*
X122861158Y-110332068D01*
X122574260Y-110275000D01*
X122281740Y-110275000D01*
X121994842Y-110332068D01*
X121724589Y-110444010D01*
X121481368Y-110606525D01*
X121274525Y-110813368D01*
X121158000Y-110987760D01*
X121041475Y-110813368D01*
X120834632Y-110606525D01*
X120591411Y-110444010D01*
X120321158Y-110332068D01*
X120034260Y-110275000D01*
X119741740Y-110275000D01*
X119454842Y-110332068D01*
X119184589Y-110444010D01*
X118941368Y-110606525D01*
X118734525Y-110813368D01*
X118618000Y-110987760D01*
X118501475Y-110813368D01*
X118294632Y-110606525D01*
X118051411Y-110444010D01*
X117781158Y-110332068D01*
X117494260Y-110275000D01*
X117201740Y-110275000D01*
X116914842Y-110332068D01*
X116644589Y-110444010D01*
X116401368Y-110606525D01*
X116269513Y-110738380D01*
X116247502Y-110665820D01*
X116188537Y-110555506D01*
X116109185Y-110458815D01*
X116012494Y-110379463D01*
X115902180Y-110320498D01*
X115782482Y-110284188D01*
X115658000Y-110271928D01*
X115093750Y-110275000D01*
X114935000Y-110433750D01*
X114935000Y-111633000D01*
X114955000Y-111633000D01*
X114955000Y-111887000D01*
X114935000Y-111887000D01*
X114935000Y-111907000D01*
X114681000Y-111907000D01*
X114681000Y-111887000D01*
X113481750Y-111887000D01*
X113323000Y-112045750D01*
X113319928Y-112610000D01*
X113332188Y-112734482D01*
X113368498Y-112854180D01*
X113427463Y-112964494D01*
X113506815Y-113061185D01*
X113603506Y-113140537D01*
X113713820Y-113199502D01*
X113833518Y-113235812D01*
X113958000Y-113248072D01*
X114522250Y-113245000D01*
X114680998Y-113086252D01*
X114680998Y-113245000D01*
X114788198Y-113245000D01*
X112518998Y-115514201D01*
X112490000Y-115537999D01*
X112466202Y-115566997D01*
X112466201Y-115566998D01*
X112395026Y-115653724D01*
X112324454Y-115785754D01*
X112280998Y-115929015D01*
X112272241Y-116017928D01*
X111830000Y-116017928D01*
X111705518Y-116030188D01*
X111585820Y-116066498D01*
X111475506Y-116125463D01*
X111378815Y-116204815D01*
X111299463Y-116301506D01*
X111240498Y-116411820D01*
X111204188Y-116531518D01*
X111191928Y-116656000D01*
X104265082Y-116656000D01*
X104039744Y-116430662D01*
X103739199Y-116229844D01*
X103405250Y-116091518D01*
X103050732Y-116021000D01*
X102689268Y-116021000D01*
X102334750Y-116091518D01*
X102000801Y-116229844D01*
X101700256Y-116430662D01*
X101444662Y-116686256D01*
X101243844Y-116986801D01*
X101105518Y-117320750D01*
X101035000Y-117675268D01*
X98729000Y-117675268D01*
X98729000Y-110910000D01*
X113319928Y-110910000D01*
X113323000Y-111474250D01*
X113481750Y-111633000D01*
X114681000Y-111633000D01*
X114681000Y-110433750D01*
X114522250Y-110275000D01*
X113958000Y-110271928D01*
X113833518Y-110284188D01*
X113713820Y-110320498D01*
X113603506Y-110379463D01*
X113506815Y-110458815D01*
X113427463Y-110555506D01*
X113368498Y-110665820D01*
X113332188Y-110785518D01*
X113319928Y-110910000D01*
X98729000Y-110910000D01*
X98729000Y-81066000D01*
X101227815Y-81066000D01*
X101256487Y-81357111D01*
X101341401Y-81637034D01*
X101479294Y-81895014D01*
X101660608Y-82115945D01*
X101625820Y-82126498D01*
X101515506Y-82185463D01*
X101418815Y-82264815D01*
X101339463Y-82361506D01*
X101280498Y-82471820D01*
X101244188Y-82591518D01*
X101231928Y-82716000D01*
X101235000Y-83280250D01*
X101393750Y-83439000D01*
X102743000Y-83439000D01*
X102743000Y-83419000D01*
X102997000Y-83419000D01*
X102997000Y-83439000D01*
X103017000Y-83439000D01*
X103017000Y-83693000D01*
X102997000Y-83693000D01*
X102997000Y-83713000D01*
X102743000Y-83713000D01*
X102743000Y-83693000D01*
X101393750Y-83693000D01*
X101235000Y-83851750D01*
X101231928Y-84416000D01*
X101244188Y-84540482D01*
X101280498Y-84660180D01*
X101339463Y-84770494D01*
X101418815Y-84867185D01*
X101515506Y-84946537D01*
X101625820Y-85005502D01*
X101745518Y-85041812D01*
X101870000Y-85054072D01*
X102541011Y-85051186D01*
X102358998Y-85233199D01*
X102330000Y-85256997D01*
X102306202Y-85285995D01*
X102306201Y-85285996D01*
X102235026Y-85372722D01*
X102164454Y-85504752D01*
X102145876Y-85565999D01*
X102120998Y-85648012D01*
X102117678Y-85681724D01*
X102106324Y-85796998D01*
X102110001Y-85834330D01*
X102110000Y-89868229D01*
X101890986Y-89985294D01*
X101664866Y-90170866D01*
X101479294Y-90396986D01*
X101341401Y-90654966D01*
X101256487Y-90934889D01*
X101227815Y-91226000D01*
X101256487Y-91517111D01*
X101341401Y-91797034D01*
X101479294Y-92055014D01*
X101664866Y-92281134D01*
X101728337Y-92333223D01*
X101626614Y-92387595D01*
X101492038Y-92498038D01*
X101381595Y-92632614D01*
X101299528Y-92786150D01*
X101248992Y-92952746D01*
X101231928Y-93126000D01*
X101231928Y-94326000D01*
X101248992Y-94499254D01*
X101299528Y-94665850D01*
X101381595Y-94819386D01*
X101492038Y-94953962D01*
X101626614Y-95064405D01*
X101780150Y-95146472D01*
X101946746Y-95197008D01*
X102120000Y-95214072D01*
X103620000Y-95214072D01*
X103635000Y-95212595D01*
X103635000Y-95447637D01*
X103682460Y-95686236D01*
X103775557Y-95910992D01*
X103910713Y-96113267D01*
X104082733Y-96285287D01*
X104285008Y-96420443D01*
X104509764Y-96513540D01*
X104748363Y-96561000D01*
X104991637Y-96561000D01*
X105230236Y-96513540D01*
X105454992Y-96420443D01*
X105657267Y-96285287D01*
X105829287Y-96113267D01*
X105964443Y-95910992D01*
X106057540Y-95686236D01*
X106105000Y-95447637D01*
X106105000Y-95204363D01*
X106057540Y-94965764D01*
X105964443Y-94741008D01*
X105829287Y-94538733D01*
X105657267Y-94366713D01*
X105454992Y-94231557D01*
X105230236Y-94138460D01*
X104991637Y-94091000D01*
X104748363Y-94091000D01*
X104509764Y-94138460D01*
X104508072Y-94139161D01*
X104508072Y-93924729D01*
X111687469Y-86745334D01*
X111714010Y-86809411D01*
X111876525Y-87052632D01*
X112083368Y-87259475D01*
X112257760Y-87376000D01*
X112083368Y-87492525D01*
X111876525Y-87699368D01*
X111714010Y-87942589D01*
X111602068Y-88212842D01*
X111545000Y-88499740D01*
X111545000Y-88792260D01*
X111602068Y-89079158D01*
X111714010Y-89349411D01*
X111876525Y-89592632D01*
X112083368Y-89799475D01*
X112257760Y-89916000D01*
X112083368Y-90032525D01*
X111876525Y-90239368D01*
X111714010Y-90482589D01*
X111602068Y-90752842D01*
X111545000Y-91039740D01*
X111545000Y-91332260D01*
X111602068Y-91619158D01*
X111714010Y-91889411D01*
X111876525Y-92132632D01*
X112083368Y-92339475D01*
X112326589Y-92501990D01*
X112596842Y-92613932D01*
X112883740Y-92671000D01*
X113176260Y-92671000D01*
X113396408Y-92627209D01*
X116588001Y-95818803D01*
X116588000Y-97781821D01*
X116401368Y-97906525D01*
X116194525Y-98113368D01*
X116078000Y-98287760D01*
X115961475Y-98113368D01*
X115754632Y-97906525D01*
X115511411Y-97744010D01*
X115241158Y-97632068D01*
X114954260Y-97575000D01*
X114661740Y-97575000D01*
X114374842Y-97632068D01*
X114104589Y-97744010D01*
X113861368Y-97906525D01*
X113654525Y-98113368D01*
X113492010Y-98356589D01*
X113380068Y-98626842D01*
X113323000Y-98913740D01*
X113323000Y-99206260D01*
X113380068Y-99493158D01*
X113492010Y-99763411D01*
X113654525Y-100006632D01*
X113861368Y-100213475D01*
X114104589Y-100375990D01*
X114374842Y-100487932D01*
X114661740Y-100545000D01*
X114954260Y-100545000D01*
X115241158Y-100487932D01*
X115511411Y-100375990D01*
X115754632Y-100213475D01*
X115961475Y-100006632D01*
X116078000Y-99832240D01*
X116194525Y-100006632D01*
X116401368Y-100213475D01*
X116644589Y-100375990D01*
X116914842Y-100487932D01*
X117201740Y-100545000D01*
X117494260Y-100545000D01*
X117781158Y-100487932D01*
X118051411Y-100375990D01*
X118294632Y-100213475D01*
X118501475Y-100006632D01*
X118618000Y-99832240D01*
X118734525Y-100006632D01*
X118941368Y-100213475D01*
X119184589Y-100375990D01*
X119454842Y-100487932D01*
X119741740Y-100545000D01*
X120034260Y-100545000D01*
X120321158Y-100487932D01*
X120591411Y-100375990D01*
X120834632Y-100213475D01*
X121041475Y-100006632D01*
X121158000Y-99832240D01*
X121274525Y-100006632D01*
X121481368Y-100213475D01*
X121724589Y-100375990D01*
X121994842Y-100487932D01*
X122281740Y-100545000D01*
X122574260Y-100545000D01*
X122861158Y-100487932D01*
X123131411Y-100375990D01*
X123374632Y-100213475D01*
X123581475Y-100006632D01*
X123698000Y-99832240D01*
X123814525Y-100006632D01*
X124021368Y-100213475D01*
X124264589Y-100375990D01*
X124534842Y-100487932D01*
X124821740Y-100545000D01*
X125114260Y-100545000D01*
X125401158Y-100487932D01*
X125671411Y-100375990D01*
X125914632Y-100213475D01*
X126121475Y-100006632D01*
X126238000Y-99832240D01*
X126354525Y-100006632D01*
X126561368Y-100213475D01*
X126804589Y-100375990D01*
X127074842Y-100487932D01*
X127361740Y-100545000D01*
X127654260Y-100545000D01*
X127941158Y-100487932D01*
X128211411Y-100375990D01*
X128454632Y-100213475D01*
X128661475Y-100006632D01*
X128778000Y-99832240D01*
X128894525Y-100006632D01*
X129101368Y-100213475D01*
X129344589Y-100375990D01*
X129614842Y-100487932D01*
X129901740Y-100545000D01*
X130194260Y-100545000D01*
X130481158Y-100487932D01*
X130751411Y-100375990D01*
X130994632Y-100213475D01*
X131126487Y-100081620D01*
X131148498Y-100154180D01*
X131207463Y-100264494D01*
X131286815Y-100361185D01*
X131383506Y-100440537D01*
X131493820Y-100499502D01*
X131613518Y-100535812D01*
X131738000Y-100548072D01*
X133438000Y-100548072D01*
X133562482Y-100535812D01*
X133682180Y-100499502D01*
X133792494Y-100440537D01*
X133813002Y-100423707D01*
X133813002Y-100713679D01*
X133809326Y-100751002D01*
X133813002Y-100788324D01*
X133813002Y-100788334D01*
X133823999Y-100899987D01*
X133858509Y-101013753D01*
X133867456Y-101043248D01*
X133938028Y-101175278D01*
X133977873Y-101223828D01*
X134033001Y-101291003D01*
X134062005Y-101314806D01*
X142970115Y-110222917D01*
X142912487Y-110412889D01*
X142883815Y-110704000D01*
X142912487Y-110995111D01*
X142997401Y-111275034D01*
X143135294Y-111533014D01*
X143320866Y-111759134D01*
X143546986Y-111944706D01*
X143804966Y-112082599D01*
X144084889Y-112167513D01*
X144303050Y-112189000D01*
X144748950Y-112189000D01*
X144967111Y-112167513D01*
X145247034Y-112082599D01*
X145505014Y-111944706D01*
X145731134Y-111759134D01*
X145916706Y-111533014D01*
X146054599Y-111275034D01*
X146139513Y-110995111D01*
X146168185Y-110704000D01*
X146139513Y-110412889D01*
X146054599Y-110132966D01*
X145916706Y-109874986D01*
X145731134Y-109648866D01*
X145667663Y-109596777D01*
X145769386Y-109542405D01*
X145903962Y-109431962D01*
X146014405Y-109297386D01*
X146096472Y-109143850D01*
X146147008Y-108977254D01*
X146164072Y-108804000D01*
X146164072Y-107640730D01*
X146362013Y-107442789D01*
X146391011Y-107418991D01*
X146417342Y-107386907D01*
X146485984Y-107303267D01*
X146556556Y-107171237D01*
X146574945Y-107110614D01*
X146600013Y-107027976D01*
X146611010Y-106916323D01*
X146611010Y-106916314D01*
X146614686Y-106878991D01*
X146611010Y-106841668D01*
X146611010Y-100168332D01*
X146614686Y-100131009D01*
X146611010Y-100093686D01*
X146611010Y-100093677D01*
X146600013Y-99982024D01*
X146556556Y-99838763D01*
X146516279Y-99763411D01*
X146485984Y-99706733D01*
X146414809Y-99620007D01*
X146391011Y-99591009D01*
X146362014Y-99567212D01*
X146164072Y-99369270D01*
X146164072Y-98242730D01*
X146362013Y-98044789D01*
X146391011Y-98020991D01*
X146436289Y-97965820D01*
X146485984Y-97905267D01*
X146556556Y-97773237D01*
X146574945Y-97712614D01*
X146600013Y-97629976D01*
X146611010Y-97518323D01*
X146611010Y-97518314D01*
X146614686Y-97480991D01*
X146611010Y-97443668D01*
X146611010Y-89770343D01*
X146614687Y-89733010D01*
X146600013Y-89584024D01*
X146556556Y-89440763D01*
X146485984Y-89308734D01*
X146391011Y-89193009D01*
X146362008Y-89169207D01*
X146164072Y-88971271D01*
X146164072Y-88808000D01*
X146147008Y-88634746D01*
X146096472Y-88468150D01*
X146014405Y-88314614D01*
X145903962Y-88180038D01*
X145769386Y-88069595D01*
X145615850Y-87987528D01*
X145449254Y-87936992D01*
X145286000Y-87920913D01*
X145286000Y-81130239D01*
X145435748Y-81279987D01*
X145703537Y-81458918D01*
X146001088Y-81582168D01*
X146316967Y-81645000D01*
X146639033Y-81645000D01*
X146954912Y-81582168D01*
X147252463Y-81458918D01*
X147520252Y-81279987D01*
X147747987Y-81052252D01*
X147926918Y-80784463D01*
X148050168Y-80486912D01*
X148113000Y-80171033D01*
X148113000Y-79848967D01*
X148050168Y-79533088D01*
X147926918Y-79235537D01*
X147747987Y-78967748D01*
X147520252Y-78740013D01*
X147252463Y-78561082D01*
X146954912Y-78437832D01*
X146639033Y-78375000D01*
X146316967Y-78375000D01*
X146001088Y-78437832D01*
X145703537Y-78561082D01*
X145435748Y-78740013D01*
X145286000Y-78889761D01*
X145286000Y-74459322D01*
X145289676Y-74421999D01*
X145286000Y-74384676D01*
X145286000Y-74384667D01*
X145275003Y-74273014D01*
X145231546Y-74129753D01*
X145160974Y-73997724D01*
X145066001Y-73881999D01*
X145037003Y-73858201D01*
X141693802Y-70515000D01*
X141978581Y-70515000D01*
X142352419Y-70440639D01*
X142704566Y-70294775D01*
X143021491Y-70083013D01*
X143291013Y-69813491D01*
X143349928Y-69725318D01*
X143349928Y-69880000D01*
X143362188Y-70004482D01*
X143398498Y-70124180D01*
X143457463Y-70234494D01*
X143536815Y-70331185D01*
X143633506Y-70410537D01*
X143743820Y-70469502D01*
X143863518Y-70505812D01*
X143988000Y-70518072D01*
X146588000Y-70518072D01*
X146712482Y-70505812D01*
X146832180Y-70469502D01*
X146942494Y-70410537D01*
X147039185Y-70331185D01*
X147118537Y-70234494D01*
X147177502Y-70124180D01*
X147213812Y-70004482D01*
X147226072Y-69880000D01*
X147226072Y-67280000D01*
X147213812Y-67155518D01*
X147177502Y-67035820D01*
X147118537Y-66925506D01*
X147039185Y-66828815D01*
X146942494Y-66749463D01*
X146832180Y-66690498D01*
X146712482Y-66654188D01*
X146588000Y-66641928D01*
X143988000Y-66641928D01*
X143863518Y-66654188D01*
X143743820Y-66690498D01*
X143633506Y-66749463D01*
X143536815Y-66828815D01*
X143457463Y-66925506D01*
X143398498Y-67035820D01*
X143362188Y-67155518D01*
X143349928Y-67280000D01*
X143349928Y-67434682D01*
X143291013Y-67346509D01*
X143021491Y-67076987D01*
X142704566Y-66865225D01*
X142352419Y-66719361D01*
X141978581Y-66645000D01*
X141597419Y-66645000D01*
X141223581Y-66719361D01*
X140871434Y-66865225D01*
X140554509Y-67076987D01*
X140284987Y-67346509D01*
X140073225Y-67663434D01*
X139927361Y-68015581D01*
X139853000Y-68389419D01*
X139853000Y-68674199D01*
X137331209Y-66152408D01*
X137375000Y-65932260D01*
X137375000Y-65639740D01*
X137317932Y-65352842D01*
X137205990Y-65082589D01*
X137043475Y-64839368D01*
X136836632Y-64632525D01*
X136662240Y-64516000D01*
X136836632Y-64399475D01*
X137043475Y-64192632D01*
X137205990Y-63949411D01*
X137317932Y-63679158D01*
X137375000Y-63392260D01*
X137375000Y-63099740D01*
X137317932Y-62812842D01*
X137205990Y-62542589D01*
X137043475Y-62299368D01*
X136836632Y-62092525D01*
X136662240Y-61976000D01*
X136836632Y-61859475D01*
X137043475Y-61652632D01*
X137205990Y-61409411D01*
X137317932Y-61139158D01*
X137375000Y-60852260D01*
X137375000Y-60559740D01*
X137317932Y-60272842D01*
X137205990Y-60002589D01*
X137043475Y-59759368D01*
X136836632Y-59552525D01*
X136654466Y-59430805D01*
X136771355Y-59361178D01*
X136987588Y-59166269D01*
X137161641Y-58932920D01*
X137286825Y-58670099D01*
X137331476Y-58522890D01*
X137210155Y-58293000D01*
X136017000Y-58293000D01*
X136017000Y-58313000D01*
X135763000Y-58313000D01*
X135763000Y-58293000D01*
X134569845Y-58293000D01*
X134448524Y-58522890D01*
X134493175Y-58670099D01*
X134618359Y-58932920D01*
X134792412Y-59166269D01*
X135008645Y-59361178D01*
X135125534Y-59430805D01*
X134943368Y-59552525D01*
X134736525Y-59759368D01*
X134574010Y-60002589D01*
X134462068Y-60272842D01*
X134405000Y-60559740D01*
X134405000Y-60852260D01*
X134462068Y-61139158D01*
X134574010Y-61409411D01*
X134736525Y-61652632D01*
X134943368Y-61859475D01*
X135117760Y-61976000D01*
X134943368Y-62092525D01*
X134736525Y-62299368D01*
X134574010Y-62542589D01*
X134462068Y-62812842D01*
X134405000Y-63099740D01*
X134405000Y-63392260D01*
X134462068Y-63679158D01*
X134574010Y-63949411D01*
X134736525Y-64192632D01*
X134943368Y-64399475D01*
X135117760Y-64516000D01*
X134943368Y-64632525D01*
X134736525Y-64839368D01*
X134574010Y-65082589D01*
X134462068Y-65352842D01*
X134405000Y-65639740D01*
X134405000Y-65932260D01*
X134462068Y-66219158D01*
X134574010Y-66489411D01*
X134736525Y-66732632D01*
X134943368Y-66939475D01*
X135117760Y-67056000D01*
X134943368Y-67172525D01*
X134736525Y-67379368D01*
X134574010Y-67622589D01*
X134462068Y-67892842D01*
X134405000Y-68179740D01*
X134405000Y-68472260D01*
X134462068Y-68759158D01*
X134574010Y-69029411D01*
X134736525Y-69272632D01*
X134943368Y-69479475D01*
X135117760Y-69596000D01*
X134943368Y-69712525D01*
X134736525Y-69919368D01*
X134574010Y-70162589D01*
X134462068Y-70432842D01*
X134405000Y-70719740D01*
X134405000Y-71012260D01*
X134462068Y-71299158D01*
X134574010Y-71569411D01*
X134736525Y-71812632D01*
X134943368Y-72019475D01*
X135117760Y-72136000D01*
X134943368Y-72252525D01*
X134736525Y-72459368D01*
X134574010Y-72702589D01*
X134462068Y-72972842D01*
X134405000Y-73259740D01*
X134405000Y-73552260D01*
X134462068Y-73839158D01*
X134574010Y-74109411D01*
X134736525Y-74352632D01*
X134943368Y-74559475D01*
X135117760Y-74676000D01*
X134943368Y-74792525D01*
X134736525Y-74999368D01*
X134574010Y-75242589D01*
X134462068Y-75512842D01*
X134405000Y-75799740D01*
X134405000Y-76092260D01*
X134462068Y-76379158D01*
X134574010Y-76649411D01*
X134736525Y-76892632D01*
X134943368Y-77099475D01*
X135117760Y-77216000D01*
X134943368Y-77332525D01*
X134736525Y-77539368D01*
X134574010Y-77782589D01*
X134462068Y-78052842D01*
X134405000Y-78339740D01*
X134405000Y-78632260D01*
X134462068Y-78919158D01*
X134574010Y-79189411D01*
X134736525Y-79432632D01*
X134943368Y-79639475D01*
X135117760Y-79756000D01*
X134943368Y-79872525D01*
X134736525Y-80079368D01*
X134574010Y-80322589D01*
X134462068Y-80592842D01*
X134405000Y-80879740D01*
X134405000Y-81172260D01*
X134462068Y-81459158D01*
X134574010Y-81729411D01*
X134736525Y-81972632D01*
X134943368Y-82179475D01*
X135117760Y-82296000D01*
X134943368Y-82412525D01*
X134736525Y-82619368D01*
X134574010Y-82862589D01*
X134462068Y-83132842D01*
X134405000Y-83419740D01*
X134405000Y-83712260D01*
X134462068Y-83999158D01*
X134574010Y-84269411D01*
X134736525Y-84512632D01*
X134943368Y-84719475D01*
X135117760Y-84836000D01*
X134943368Y-84952525D01*
X134736525Y-85159368D01*
X134574010Y-85402589D01*
X134462068Y-85672842D01*
X134405000Y-85959740D01*
X134405000Y-86252260D01*
X134462068Y-86539158D01*
X134574010Y-86809411D01*
X134736525Y-87052632D01*
X134943368Y-87259475D01*
X135117760Y-87376000D01*
X134943368Y-87492525D01*
X134736525Y-87699368D01*
X134574010Y-87942589D01*
X134462068Y-88212842D01*
X134405000Y-88499740D01*
X134405000Y-88792260D01*
X134462068Y-89079158D01*
X134574010Y-89349411D01*
X134736525Y-89592632D01*
X134943368Y-89799475D01*
X135117760Y-89916000D01*
X134943368Y-90032525D01*
X134736525Y-90239368D01*
X134574010Y-90482589D01*
X134558891Y-90519091D01*
X114965001Y-70925202D01*
X114965001Y-69538323D01*
X114968677Y-69501000D01*
X114965001Y-69463677D01*
X114965001Y-69463668D01*
X114954004Y-69352015D01*
X114910547Y-69208754D01*
X114839975Y-69076725D01*
X114745002Y-68961000D01*
X114716004Y-68937202D01*
X114471210Y-68692408D01*
X114515000Y-68472260D01*
X114515000Y-68179740D01*
X114457932Y-67892842D01*
X114345990Y-67622589D01*
X114183475Y-67379368D01*
X113976632Y-67172525D01*
X113802240Y-67056000D01*
X113976632Y-66939475D01*
X114183475Y-66732632D01*
X114345990Y-66489411D01*
X114457932Y-66219158D01*
X114515000Y-65932260D01*
X114515000Y-65639740D01*
X114457932Y-65352842D01*
X114345990Y-65082589D01*
X114183475Y-64839368D01*
X113976632Y-64632525D01*
X113802240Y-64516000D01*
X113976632Y-64399475D01*
X114183475Y-64192632D01*
X114345990Y-63949411D01*
X114457932Y-63679158D01*
X114515000Y-63392260D01*
X114515000Y-63099740D01*
X114457932Y-62812842D01*
X114345990Y-62542589D01*
X114183475Y-62299368D01*
X113976632Y-62092525D01*
X113802240Y-61976000D01*
X113976632Y-61859475D01*
X114183475Y-61652632D01*
X114345990Y-61409411D01*
X114457932Y-61139158D01*
X114515000Y-60852260D01*
X114515000Y-60559740D01*
X114457932Y-60272842D01*
X114345990Y-60002589D01*
X114183475Y-59759368D01*
X113976632Y-59552525D01*
X113794466Y-59430805D01*
X113911355Y-59361178D01*
X114127588Y-59166269D01*
X114301641Y-58932920D01*
X114426825Y-58670099D01*
X114471476Y-58522890D01*
X114350155Y-58293000D01*
X113157000Y-58293000D01*
X113157000Y-58313000D01*
X112903000Y-58313000D01*
X112903000Y-58293000D01*
X112883000Y-58293000D01*
X112883000Y-58039000D01*
X112903000Y-58039000D01*
X112903000Y-58019000D01*
X113157000Y-58019000D01*
X113157000Y-58039000D01*
X114350155Y-58039000D01*
X114471476Y-57809110D01*
X114426825Y-57661901D01*
X114301641Y-57399080D01*
X114127588Y-57165731D01*
X114043534Y-57089966D01*
X114124180Y-57065502D01*
X114234494Y-57006537D01*
X114331185Y-56927185D01*
X114410537Y-56830494D01*
X114469502Y-56720180D01*
X114505812Y-56600482D01*
X114518072Y-56476000D01*
X114518072Y-54776000D01*
X134401928Y-54776000D01*
X134401928Y-56476000D01*
X134414188Y-56600482D01*
X134450498Y-56720180D01*
X134509463Y-56830494D01*
X134588815Y-56927185D01*
X134685506Y-57006537D01*
X134795820Y-57065502D01*
X134876466Y-57089966D01*
X134792412Y-57165731D01*
X134618359Y-57399080D01*
X134493175Y-57661901D01*
X134448524Y-57809110D01*
X134569845Y-58039000D01*
X135763000Y-58039000D01*
X135763000Y-58019000D01*
X136017000Y-58019000D01*
X136017000Y-58039000D01*
X137210155Y-58039000D01*
X137331476Y-57809110D01*
X137286825Y-57661901D01*
X137161641Y-57399080D01*
X136987588Y-57165731D01*
X136903534Y-57089966D01*
X136984180Y-57065502D01*
X137094494Y-57006537D01*
X137191185Y-56927185D01*
X137270537Y-56830494D01*
X137329502Y-56720180D01*
X137365812Y-56600482D01*
X137378072Y-56476000D01*
X137378072Y-54776000D01*
X137365812Y-54651518D01*
X137329502Y-54531820D01*
X137270537Y-54421506D01*
X137191185Y-54324815D01*
X137094494Y-54245463D01*
X136984180Y-54186498D01*
X136864482Y-54150188D01*
X136740000Y-54137928D01*
X135040000Y-54137928D01*
X134915518Y-54150188D01*
X134795820Y-54186498D01*
X134685506Y-54245463D01*
X134588815Y-54324815D01*
X134509463Y-54421506D01*
X134450498Y-54531820D01*
X134414188Y-54651518D01*
X134401928Y-54776000D01*
X114518072Y-54776000D01*
X114505812Y-54651518D01*
X114469502Y-54531820D01*
X114410537Y-54421506D01*
X114331185Y-54324815D01*
X114234494Y-54245463D01*
X114124180Y-54186498D01*
X114004482Y-54150188D01*
X113880000Y-54137928D01*
X112180000Y-54137928D01*
X112055518Y-54150188D01*
X111935820Y-54186498D01*
X111825506Y-54245463D01*
X111728815Y-54324815D01*
X111649463Y-54421506D01*
X111590498Y-54531820D01*
X111554188Y-54651518D01*
X111541928Y-54776000D01*
X111541928Y-56039270D01*
X107683997Y-59897202D01*
X107654999Y-59921000D01*
X107631201Y-59949998D01*
X107631200Y-59949999D01*
X107560025Y-60036725D01*
X107489453Y-60168755D01*
X107445997Y-60312016D01*
X107431323Y-60461001D01*
X107435000Y-60498334D01*
X107435000Y-67360959D01*
X107415185Y-67336815D01*
X107318494Y-67257463D01*
X107208180Y-67198498D01*
X107088482Y-67162188D01*
X106964000Y-67149928D01*
X105949750Y-67153000D01*
X105791000Y-67311750D01*
X105791000Y-68961000D01*
X105811000Y-68961000D01*
X105811000Y-69215000D01*
X105791000Y-69215000D01*
X105791000Y-70864250D01*
X105949750Y-71023000D01*
X106964000Y-71026072D01*
X107088482Y-71013812D01*
X107208180Y-70977502D01*
X107318494Y-70918537D01*
X107415185Y-70839185D01*
X107434999Y-70815041D01*
X107434999Y-79448679D01*
X107431323Y-79486001D01*
X107434999Y-79523323D01*
X107434999Y-79523333D01*
X107445996Y-79634986D01*
X107461896Y-79687401D01*
X107489453Y-79778247D01*
X107560025Y-79910277D01*
X107563025Y-79913932D01*
X107654998Y-80026002D01*
X107684002Y-80049805D01*
X109485002Y-81850806D01*
X109485002Y-82765558D01*
X109351486Y-82739000D01*
X109088514Y-82739000D01*
X108981157Y-82760355D01*
X106775804Y-80555003D01*
X106752001Y-80525999D01*
X106636276Y-80431026D01*
X106504247Y-80360454D01*
X106360986Y-80316997D01*
X106249333Y-80306000D01*
X106249322Y-80306000D01*
X106212000Y-80302324D01*
X106174678Y-80306000D01*
X104297595Y-80306000D01*
X104260706Y-80236986D01*
X104075134Y-80010866D01*
X103849014Y-79825294D01*
X103591034Y-79687401D01*
X103311111Y-79602487D01*
X103092950Y-79581000D01*
X102647050Y-79581000D01*
X102428889Y-79602487D01*
X102148966Y-79687401D01*
X101890986Y-79825294D01*
X101664866Y-80010866D01*
X101479294Y-80236986D01*
X101341401Y-80494966D01*
X101256487Y-80774889D01*
X101227815Y-81066000D01*
X98729000Y-81066000D01*
X98729000Y-68897419D01*
X100229000Y-68897419D01*
X100229000Y-69278581D01*
X100303361Y-69652419D01*
X100449225Y-70004566D01*
X100660987Y-70321491D01*
X100930509Y-70591013D01*
X101247434Y-70802775D01*
X101599581Y-70948639D01*
X101973419Y-71023000D01*
X102354581Y-71023000D01*
X102728419Y-70948639D01*
X103080566Y-70802775D01*
X103397491Y-70591013D01*
X103667013Y-70321491D01*
X103726399Y-70232614D01*
X103725928Y-70388000D01*
X103738188Y-70512482D01*
X103774498Y-70632180D01*
X103833463Y-70742494D01*
X103912815Y-70839185D01*
X104009506Y-70918537D01*
X104119820Y-70977502D01*
X104239518Y-71013812D01*
X104364000Y-71026072D01*
X105378250Y-71023000D01*
X105537000Y-70864250D01*
X105537000Y-69215000D01*
X105517000Y-69215000D01*
X105517000Y-68961000D01*
X105537000Y-68961000D01*
X105537000Y-67311750D01*
X105378250Y-67153000D01*
X104364000Y-67149928D01*
X104239518Y-67162188D01*
X104119820Y-67198498D01*
X104009506Y-67257463D01*
X103912815Y-67336815D01*
X103833463Y-67433506D01*
X103774498Y-67543820D01*
X103738188Y-67663518D01*
X103725928Y-67788000D01*
X103726399Y-67943386D01*
X103667013Y-67854509D01*
X103397491Y-67584987D01*
X103080566Y-67373225D01*
X102728419Y-67227361D01*
X102354581Y-67153000D01*
X101973419Y-67153000D01*
X101599581Y-67227361D01*
X101247434Y-67373225D01*
X100930509Y-67584987D01*
X100660987Y-67854509D01*
X100449225Y-68171434D01*
X100303361Y-68523581D01*
X100229000Y-68897419D01*
X98729000Y-68897419D01*
X98729000Y-53009000D01*
X149429000Y-53009000D01*
X149429001Y-121743000D01*
G37*
%TD.AperFunction*%
D23*
X111545000Y-58293002D02*
X111709844Y-58293002D01*
X111588524Y-58522890D01*
X111633175Y-58670099D01*
X111758359Y-58932920D01*
X111932412Y-59166269D01*
X112148645Y-59361178D01*
X112265534Y-59430805D01*
X112083368Y-59552525D01*
X111876525Y-59759368D01*
X111714010Y-60002589D01*
X111602068Y-60272842D01*
X111545000Y-60559740D01*
X111545000Y-60852260D01*
X111602068Y-61139158D01*
X111714010Y-61409411D01*
X111876525Y-61652632D01*
X112083368Y-61859475D01*
X112257760Y-61976000D01*
X112083368Y-62092525D01*
X111876525Y-62299368D01*
X111714010Y-62542589D01*
X111602068Y-62812842D01*
X111545000Y-63099740D01*
X111545000Y-63392260D01*
X111602068Y-63679158D01*
X111714010Y-63949411D01*
X111876525Y-64192632D01*
X112083368Y-64399475D01*
X112257760Y-64516000D01*
X112083368Y-64632525D01*
X111876525Y-64839368D01*
X111714010Y-65082589D01*
X111602068Y-65352842D01*
X111545000Y-65639740D01*
X111545000Y-65932260D01*
X111602068Y-66219158D01*
X111714010Y-66489411D01*
X111876525Y-66732632D01*
X112083368Y-66939475D01*
X112257760Y-67056000D01*
X112083368Y-67172525D01*
X111876525Y-67379368D01*
X111714010Y-67622589D01*
X111602068Y-67892842D01*
X111545000Y-68179740D01*
X111545000Y-68472260D01*
X111602068Y-68759158D01*
X111714010Y-69029411D01*
X111876525Y-69272632D01*
X112083368Y-69479475D01*
X112257760Y-69596000D01*
X112083368Y-69712525D01*
X111876525Y-69919368D01*
X111714010Y-70162589D01*
X111602068Y-70432842D01*
X111545000Y-70719740D01*
X111545000Y-71012260D01*
X111602068Y-71299158D01*
X111714010Y-71569411D01*
X111876525Y-71812632D01*
X112083368Y-72019475D01*
X112257760Y-72136000D01*
X112083368Y-72252525D01*
X111876525Y-72459368D01*
X111714010Y-72702589D01*
X111602068Y-72972842D01*
X111545000Y-73259740D01*
X111545000Y-73552260D01*
X111602068Y-73839158D01*
X111714010Y-74109411D01*
X111876525Y-74352632D01*
X112083368Y-74559475D01*
X112265534Y-74681195D01*
X112148645Y-74750822D01*
X111932412Y-74945731D01*
X111758359Y-75179080D01*
X111633175Y-75441901D01*
X111588524Y-75589110D01*
X111709845Y-75819000D01*
X112903000Y-75819000D01*
X112903000Y-75799000D01*
X113157000Y-75799000D01*
X113157000Y-75819000D01*
X113177000Y-75819000D01*
X113177000Y-76073000D01*
X113157000Y-76073000D01*
X113157000Y-76093000D01*
X112903000Y-76093000D01*
X112903000Y-76073000D01*
X111709845Y-76073000D01*
X111588524Y-76302890D01*
X111633175Y-76450099D01*
X111758359Y-76712920D01*
X111932412Y-76946269D01*
X112148645Y-77141178D01*
X112265534Y-77210805D01*
X112083368Y-77332525D01*
X111876525Y-77539368D01*
X111714010Y-77782589D01*
X111602068Y-78052842D01*
X111545000Y-78339740D01*
X111545000Y-78632260D01*
X111602068Y-78919158D01*
X111714010Y-79189411D01*
X111876525Y-79432632D01*
X112083368Y-79639475D01*
X112257760Y-79756000D01*
X112083368Y-79872525D01*
X111876525Y-80079368D01*
X111714010Y-80322589D01*
X111687468Y-80386667D01*
X110533645Y-79232844D01*
X110555000Y-79125486D01*
X110555000Y-78862514D01*
X110503696Y-78604595D01*
X110403061Y-78361641D01*
X110256962Y-78142987D01*
X110071013Y-77957038D01*
X109852359Y-77810939D01*
X109609405Y-77710304D01*
X109351486Y-77659000D01*
X109088514Y-77659000D01*
X108954999Y-77685558D01*
X108954999Y-60775802D01*
X111545000Y-58185801D01*
X111545000Y-58293002D01*
%TA.AperFunction,Conductor*%
D24*
G36*
X111545000Y-58293002D02*
G01*
X111709844Y-58293002D01*
X111588524Y-58522890D01*
X111633175Y-58670099D01*
X111758359Y-58932920D01*
X111932412Y-59166269D01*
X112148645Y-59361178D01*
X112265534Y-59430805D01*
X112083368Y-59552525D01*
X111876525Y-59759368D01*
X111714010Y-60002589D01*
X111602068Y-60272842D01*
X111545000Y-60559740D01*
X111545000Y-60852260D01*
X111602068Y-61139158D01*
X111714010Y-61409411D01*
X111876525Y-61652632D01*
X112083368Y-61859475D01*
X112257760Y-61976000D01*
X112083368Y-62092525D01*
X111876525Y-62299368D01*
X111714010Y-62542589D01*
X111602068Y-62812842D01*
X111545000Y-63099740D01*
X111545000Y-63392260D01*
X111602068Y-63679158D01*
X111714010Y-63949411D01*
X111876525Y-64192632D01*
X112083368Y-64399475D01*
X112257760Y-64516000D01*
X112083368Y-64632525D01*
X111876525Y-64839368D01*
X111714010Y-65082589D01*
X111602068Y-65352842D01*
X111545000Y-65639740D01*
X111545000Y-65932260D01*
X111602068Y-66219158D01*
X111714010Y-66489411D01*
X111876525Y-66732632D01*
X112083368Y-66939475D01*
X112257760Y-67056000D01*
X112083368Y-67172525D01*
X111876525Y-67379368D01*
X111714010Y-67622589D01*
X111602068Y-67892842D01*
X111545000Y-68179740D01*
X111545000Y-68472260D01*
X111602068Y-68759158D01*
X111714010Y-69029411D01*
X111876525Y-69272632D01*
X112083368Y-69479475D01*
X112257760Y-69596000D01*
X112083368Y-69712525D01*
X111876525Y-69919368D01*
X111714010Y-70162589D01*
X111602068Y-70432842D01*
X111545000Y-70719740D01*
X111545000Y-71012260D01*
X111602068Y-71299158D01*
X111714010Y-71569411D01*
X111876525Y-71812632D01*
X112083368Y-72019475D01*
X112257760Y-72136000D01*
X112083368Y-72252525D01*
X111876525Y-72459368D01*
X111714010Y-72702589D01*
X111602068Y-72972842D01*
X111545000Y-73259740D01*
X111545000Y-73552260D01*
X111602068Y-73839158D01*
X111714010Y-74109411D01*
X111876525Y-74352632D01*
X112083368Y-74559475D01*
X112265534Y-74681195D01*
X112148645Y-74750822D01*
X111932412Y-74945731D01*
X111758359Y-75179080D01*
X111633175Y-75441901D01*
X111588524Y-75589110D01*
X111709845Y-75819000D01*
X112903000Y-75819000D01*
X112903000Y-75799000D01*
X113157000Y-75799000D01*
X113157000Y-75819000D01*
X113177000Y-75819000D01*
X113177000Y-76073000D01*
X113157000Y-76073000D01*
X113157000Y-76093000D01*
X112903000Y-76093000D01*
X112903000Y-76073000D01*
X111709845Y-76073000D01*
X111588524Y-76302890D01*
X111633175Y-76450099D01*
X111758359Y-76712920D01*
X111932412Y-76946269D01*
X112148645Y-77141178D01*
X112265534Y-77210805D01*
X112083368Y-77332525D01*
X111876525Y-77539368D01*
X111714010Y-77782589D01*
X111602068Y-78052842D01*
X111545000Y-78339740D01*
X111545000Y-78632260D01*
X111602068Y-78919158D01*
X111714010Y-79189411D01*
X111876525Y-79432632D01*
X112083368Y-79639475D01*
X112257760Y-79756000D01*
X112083368Y-79872525D01*
X111876525Y-80079368D01*
X111714010Y-80322589D01*
X111687468Y-80386667D01*
X110533645Y-79232844D01*
X110555000Y-79125486D01*
X110555000Y-78862514D01*
X110503696Y-78604595D01*
X110403061Y-78361641D01*
X110256962Y-78142987D01*
X110071013Y-77957038D01*
X109852359Y-77810939D01*
X109609405Y-77710304D01*
X109351486Y-77659000D01*
X109088514Y-77659000D01*
X108954999Y-77685558D01*
X108954999Y-60775802D01*
X111545000Y-58185801D01*
X111545000Y-58293002D01*
G37*
%TD.AperFunction*%
M02*
