%TF.GenerationSoftware,KiCad,Pcbnew,(5.1.10-1-10_14)*%
%TF.CreationDate,2021-12-20T14:54:58-05:00*%
%TF.ProjectId,SmartLock,536d6172-744c-46f6-936b-2e6b69636164,rev?*%
%TF.SameCoordinates,Original*%
%TF.FileFunction,Legend,Top*%
%TF.FilePolarity,Positive*%
%FSLAX46Y46*%
G04 Gerber Fmt 4.6, Leading zero omitted, Abs format (unit mm)*
G04 Created by KiCad (PCBNEW (5.1.10-1-10_14)) date 2021-12-20 14:54:58*
%MOMM*%
%LPD*%
G01*
G04 APERTURE LIST*
%ADD10C,0.120000*%
%ADD11C,0.150000*%
%ADD12O,2.400000X2.400000*%
%ADD13R,2.400000X2.400000*%
%ADD14C,2.000000*%
%ADD15R,2.000000X2.000000*%
%ADD16C,1.200000*%
%ADD17O,2.000000X1.700000*%
%ADD18O,1.700000X1.950000*%
%ADD19O,1.700000X1.700000*%
%ADD20R,1.700000X1.700000*%
%ADD21O,1.400000X1.400000*%
%ADD22C,1.400000*%
%ADD23C,2.600000*%
%ADD24R,2.600000X2.600000*%
G04 APERTURE END LIST*
D10*
X111870000Y-119296000D02*
X111870000Y-119776000D01*
X111870000Y-119776000D02*
X104030000Y-119776000D01*
X104030000Y-119776000D02*
X104030000Y-119296000D01*
X111870000Y-116416000D02*
X111870000Y-115936000D01*
X111870000Y-115936000D02*
X104030000Y-115936000D01*
X104030000Y-115936000D02*
X104030000Y-116416000D01*
X110610000Y-119776000D02*
X110610000Y-115936000D01*
X110490000Y-119776000D02*
X110490000Y-115936000D01*
X110730000Y-119776000D02*
X110730000Y-115936000D01*
X149098000Y-80010000D02*
G75*
G03*
X149098000Y-80010000I-5120000J0D01*
G01*
X143978000Y-74930000D02*
X143978000Y-85090000D01*
X144018000Y-74930000D02*
X144018000Y-85090000D01*
X144058000Y-74930000D02*
X144058000Y-85090000D01*
X144098000Y-74931000D02*
X144098000Y-85089000D01*
X144138000Y-74932000D02*
X144138000Y-85088000D01*
X144178000Y-74933000D02*
X144178000Y-85087000D01*
X144218000Y-74935000D02*
X144218000Y-85085000D01*
X144258000Y-74937000D02*
X144258000Y-85083000D01*
X144298000Y-74940000D02*
X144298000Y-85080000D01*
X144338000Y-74942000D02*
X144338000Y-85078000D01*
X144378000Y-74945000D02*
X144378000Y-85075000D01*
X144418000Y-74948000D02*
X144418000Y-85072000D01*
X144458000Y-74952000D02*
X144458000Y-85068000D01*
X144498000Y-74956000D02*
X144498000Y-85064000D01*
X144538000Y-74960000D02*
X144538000Y-85060000D01*
X144578000Y-74965000D02*
X144578000Y-85055000D01*
X144618000Y-74970000D02*
X144618000Y-85050000D01*
X144658000Y-74975000D02*
X144658000Y-85045000D01*
X144699000Y-74980000D02*
X144699000Y-85040000D01*
X144739000Y-74986000D02*
X144739000Y-85034000D01*
X144779000Y-74992000D02*
X144779000Y-85028000D01*
X144819000Y-74999000D02*
X144819000Y-85021000D01*
X144859000Y-75006000D02*
X144859000Y-85014000D01*
X144899000Y-75013000D02*
X144899000Y-85007000D01*
X144939000Y-75020000D02*
X144939000Y-85000000D01*
X144979000Y-75028000D02*
X144979000Y-84992000D01*
X145019000Y-75036000D02*
X145019000Y-84984000D01*
X145059000Y-75045000D02*
X145059000Y-84975000D01*
X145099000Y-75054000D02*
X145099000Y-84966000D01*
X145139000Y-75063000D02*
X145139000Y-84957000D01*
X145179000Y-75072000D02*
X145179000Y-84948000D01*
X145219000Y-75082000D02*
X145219000Y-84938000D01*
X145259000Y-75092000D02*
X145259000Y-78769000D01*
X145259000Y-81251000D02*
X145259000Y-84928000D01*
X145299000Y-75103000D02*
X145299000Y-78769000D01*
X145299000Y-81251000D02*
X145299000Y-84917000D01*
X145339000Y-75113000D02*
X145339000Y-78769000D01*
X145339000Y-81251000D02*
X145339000Y-84907000D01*
X145379000Y-75125000D02*
X145379000Y-78769000D01*
X145379000Y-81251000D02*
X145379000Y-84895000D01*
X145419000Y-75136000D02*
X145419000Y-78769000D01*
X145419000Y-81251000D02*
X145419000Y-84884000D01*
X145459000Y-75148000D02*
X145459000Y-78769000D01*
X145459000Y-81251000D02*
X145459000Y-84872000D01*
X145499000Y-75160000D02*
X145499000Y-78769000D01*
X145499000Y-81251000D02*
X145499000Y-84860000D01*
X145539000Y-75173000D02*
X145539000Y-78769000D01*
X145539000Y-81251000D02*
X145539000Y-84847000D01*
X145579000Y-75186000D02*
X145579000Y-78769000D01*
X145579000Y-81251000D02*
X145579000Y-84834000D01*
X145619000Y-75199000D02*
X145619000Y-78769000D01*
X145619000Y-81251000D02*
X145619000Y-84821000D01*
X145659000Y-75213000D02*
X145659000Y-78769000D01*
X145659000Y-81251000D02*
X145659000Y-84807000D01*
X145699000Y-75227000D02*
X145699000Y-78769000D01*
X145699000Y-81251000D02*
X145699000Y-84793000D01*
X145739000Y-75242000D02*
X145739000Y-78769000D01*
X145739000Y-81251000D02*
X145739000Y-84778000D01*
X145779000Y-75256000D02*
X145779000Y-78769000D01*
X145779000Y-81251000D02*
X145779000Y-84764000D01*
X145819000Y-75272000D02*
X145819000Y-78769000D01*
X145819000Y-81251000D02*
X145819000Y-84748000D01*
X145859000Y-75287000D02*
X145859000Y-78769000D01*
X145859000Y-81251000D02*
X145859000Y-84733000D01*
X145899000Y-75303000D02*
X145899000Y-78769000D01*
X145899000Y-81251000D02*
X145899000Y-84717000D01*
X145939000Y-75320000D02*
X145939000Y-78769000D01*
X145939000Y-81251000D02*
X145939000Y-84700000D01*
X145979000Y-75336000D02*
X145979000Y-78769000D01*
X145979000Y-81251000D02*
X145979000Y-84684000D01*
X146019000Y-75353000D02*
X146019000Y-78769000D01*
X146019000Y-81251000D02*
X146019000Y-84667000D01*
X146059000Y-75371000D02*
X146059000Y-78769000D01*
X146059000Y-81251000D02*
X146059000Y-84649000D01*
X146099000Y-75389000D02*
X146099000Y-78769000D01*
X146099000Y-81251000D02*
X146099000Y-84631000D01*
X146139000Y-75407000D02*
X146139000Y-78769000D01*
X146139000Y-81251000D02*
X146139000Y-84613000D01*
X146179000Y-75426000D02*
X146179000Y-78769000D01*
X146179000Y-81251000D02*
X146179000Y-84594000D01*
X146219000Y-75446000D02*
X146219000Y-78769000D01*
X146219000Y-81251000D02*
X146219000Y-84574000D01*
X146259000Y-75465000D02*
X146259000Y-78769000D01*
X146259000Y-81251000D02*
X146259000Y-84555000D01*
X146299000Y-75485000D02*
X146299000Y-78769000D01*
X146299000Y-81251000D02*
X146299000Y-84535000D01*
X146339000Y-75506000D02*
X146339000Y-78769000D01*
X146339000Y-81251000D02*
X146339000Y-84514000D01*
X146379000Y-75527000D02*
X146379000Y-78769000D01*
X146379000Y-81251000D02*
X146379000Y-84493000D01*
X146419000Y-75548000D02*
X146419000Y-78769000D01*
X146419000Y-81251000D02*
X146419000Y-84472000D01*
X146459000Y-75570000D02*
X146459000Y-78769000D01*
X146459000Y-81251000D02*
X146459000Y-84450000D01*
X146499000Y-75593000D02*
X146499000Y-78769000D01*
X146499000Y-81251000D02*
X146499000Y-84427000D01*
X146539000Y-75615000D02*
X146539000Y-78769000D01*
X146539000Y-81251000D02*
X146539000Y-84405000D01*
X146579000Y-75639000D02*
X146579000Y-78769000D01*
X146579000Y-81251000D02*
X146579000Y-84381000D01*
X146619000Y-75663000D02*
X146619000Y-78769000D01*
X146619000Y-81251000D02*
X146619000Y-84357000D01*
X146659000Y-75687000D02*
X146659000Y-78769000D01*
X146659000Y-81251000D02*
X146659000Y-84333000D01*
X146699000Y-75712000D02*
X146699000Y-78769000D01*
X146699000Y-81251000D02*
X146699000Y-84308000D01*
X146739000Y-75737000D02*
X146739000Y-78769000D01*
X146739000Y-81251000D02*
X146739000Y-84283000D01*
X146779000Y-75763000D02*
X146779000Y-78769000D01*
X146779000Y-81251000D02*
X146779000Y-84257000D01*
X146819000Y-75789000D02*
X146819000Y-78769000D01*
X146819000Y-81251000D02*
X146819000Y-84231000D01*
X146859000Y-75816000D02*
X146859000Y-78769000D01*
X146859000Y-81251000D02*
X146859000Y-84204000D01*
X146899000Y-75844000D02*
X146899000Y-78769000D01*
X146899000Y-81251000D02*
X146899000Y-84176000D01*
X146939000Y-75872000D02*
X146939000Y-78769000D01*
X146939000Y-81251000D02*
X146939000Y-84148000D01*
X146979000Y-75900000D02*
X146979000Y-78769000D01*
X146979000Y-81251000D02*
X146979000Y-84120000D01*
X147019000Y-75930000D02*
X147019000Y-78769000D01*
X147019000Y-81251000D02*
X147019000Y-84090000D01*
X147059000Y-75960000D02*
X147059000Y-78769000D01*
X147059000Y-81251000D02*
X147059000Y-84060000D01*
X147099000Y-75990000D02*
X147099000Y-78769000D01*
X147099000Y-81251000D02*
X147099000Y-84030000D01*
X147139000Y-76021000D02*
X147139000Y-78769000D01*
X147139000Y-81251000D02*
X147139000Y-83999000D01*
X147179000Y-76053000D02*
X147179000Y-78769000D01*
X147179000Y-81251000D02*
X147179000Y-83967000D01*
X147219000Y-76085000D02*
X147219000Y-78769000D01*
X147219000Y-81251000D02*
X147219000Y-83935000D01*
X147259000Y-76118000D02*
X147259000Y-78769000D01*
X147259000Y-81251000D02*
X147259000Y-83902000D01*
X147299000Y-76152000D02*
X147299000Y-78769000D01*
X147299000Y-81251000D02*
X147299000Y-83868000D01*
X147339000Y-76186000D02*
X147339000Y-78769000D01*
X147339000Y-81251000D02*
X147339000Y-83834000D01*
X147379000Y-76221000D02*
X147379000Y-78769000D01*
X147379000Y-81251000D02*
X147379000Y-83799000D01*
X147419000Y-76257000D02*
X147419000Y-78769000D01*
X147419000Y-81251000D02*
X147419000Y-83763000D01*
X147459000Y-76294000D02*
X147459000Y-78769000D01*
X147459000Y-81251000D02*
X147459000Y-83726000D01*
X147499000Y-76331000D02*
X147499000Y-78769000D01*
X147499000Y-81251000D02*
X147499000Y-83689000D01*
X147539000Y-76370000D02*
X147539000Y-78769000D01*
X147539000Y-81251000D02*
X147539000Y-83650000D01*
X147579000Y-76409000D02*
X147579000Y-78769000D01*
X147579000Y-81251000D02*
X147579000Y-83611000D01*
X147619000Y-76449000D02*
X147619000Y-78769000D01*
X147619000Y-81251000D02*
X147619000Y-83571000D01*
X147659000Y-76490000D02*
X147659000Y-78769000D01*
X147659000Y-81251000D02*
X147659000Y-83530000D01*
X147699000Y-76532000D02*
X147699000Y-78769000D01*
X147699000Y-81251000D02*
X147699000Y-83488000D01*
X147739000Y-76574000D02*
X147739000Y-83446000D01*
X147779000Y-76618000D02*
X147779000Y-83402000D01*
X147819000Y-76663000D02*
X147819000Y-83357000D01*
X147859000Y-76709000D02*
X147859000Y-83311000D01*
X147899000Y-76756000D02*
X147899000Y-83264000D01*
X147939000Y-76804000D02*
X147939000Y-83216000D01*
X147979000Y-76854000D02*
X147979000Y-83166000D01*
X148019000Y-76904000D02*
X148019000Y-83116000D01*
X148059000Y-76956000D02*
X148059000Y-83064000D01*
X148099000Y-77010000D02*
X148099000Y-83010000D01*
X148139000Y-77065000D02*
X148139000Y-82955000D01*
X148179000Y-77121000D02*
X148179000Y-82899000D01*
X148219000Y-77180000D02*
X148219000Y-82840000D01*
X148259000Y-77240000D02*
X148259000Y-82780000D01*
X148299000Y-77301000D02*
X148299000Y-82719000D01*
X148339000Y-77365000D02*
X148339000Y-82655000D01*
X148379000Y-77431000D02*
X148379000Y-82589000D01*
X148419000Y-77500000D02*
X148419000Y-82520000D01*
X148459000Y-77571000D02*
X148459000Y-82449000D01*
X148499000Y-77645000D02*
X148499000Y-82375000D01*
X148539000Y-77721000D02*
X148539000Y-82299000D01*
X148579000Y-77801000D02*
X148579000Y-82219000D01*
X148619000Y-77885000D02*
X148619000Y-82135000D01*
X148659000Y-77973000D02*
X148659000Y-82047000D01*
X148699000Y-78066000D02*
X148699000Y-81954000D01*
X148739000Y-78164000D02*
X148739000Y-81856000D01*
X148779000Y-78268000D02*
X148779000Y-81752000D01*
X148819000Y-78380000D02*
X148819000Y-81640000D01*
X148859000Y-78500000D02*
X148859000Y-81520000D01*
X148899000Y-78632000D02*
X148899000Y-81388000D01*
X148939000Y-78780000D02*
X148939000Y-81240000D01*
X148979000Y-78948000D02*
X148979000Y-81072000D01*
X149019000Y-79148000D02*
X149019000Y-80872000D01*
X149059000Y-79411000D02*
X149059000Y-80609000D01*
X138498354Y-77135000D02*
X139498354Y-77135000D01*
X138998354Y-76635000D02*
X138998354Y-77635000D01*
X146986000Y-86848000D02*
X141016000Y-86848000D01*
X141016000Y-86848000D02*
X141016000Y-94468000D01*
X141016000Y-94468000D02*
X146986000Y-94468000D01*
X146986000Y-94468000D02*
X146986000Y-86848000D01*
X146976000Y-90158000D02*
X146226000Y-90158000D01*
X146226000Y-90158000D02*
X146226000Y-91158000D01*
X146226000Y-91158000D02*
X146976000Y-91158000D01*
X146976000Y-91158000D02*
X146976000Y-90158000D01*
X146976000Y-86858000D02*
X146226000Y-86858000D01*
X146226000Y-86858000D02*
X146226000Y-88658000D01*
X146226000Y-88658000D02*
X146976000Y-88658000D01*
X146976000Y-88658000D02*
X146976000Y-86858000D01*
X146976000Y-92658000D02*
X146226000Y-92658000D01*
X146226000Y-92658000D02*
X146226000Y-94458000D01*
X146226000Y-94458000D02*
X146976000Y-94458000D01*
X146976000Y-94458000D02*
X146976000Y-92658000D01*
X144726000Y-86858000D02*
X144726000Y-87608000D01*
X144726000Y-87608000D02*
X143386000Y-87608000D01*
X141776000Y-90658000D02*
X141776000Y-88668000D01*
X144726000Y-94458000D02*
X144726000Y-93708000D01*
X144726000Y-93708000D02*
X141776000Y-93708000D01*
X141776000Y-93708000D02*
X141776000Y-90658000D01*
X147276000Y-87808000D02*
X147276000Y-86558000D01*
X147276000Y-86558000D02*
X146026000Y-86558000D01*
X146986000Y-96246000D02*
X141016000Y-96246000D01*
X141016000Y-96246000D02*
X141016000Y-103866000D01*
X141016000Y-103866000D02*
X146986000Y-103866000D01*
X146986000Y-103866000D02*
X146986000Y-96246000D01*
X146976000Y-99556000D02*
X146226000Y-99556000D01*
X146226000Y-99556000D02*
X146226000Y-100556000D01*
X146226000Y-100556000D02*
X146976000Y-100556000D01*
X146976000Y-100556000D02*
X146976000Y-99556000D01*
X146976000Y-96256000D02*
X146226000Y-96256000D01*
X146226000Y-96256000D02*
X146226000Y-98056000D01*
X146226000Y-98056000D02*
X146976000Y-98056000D01*
X146976000Y-98056000D02*
X146976000Y-96256000D01*
X146976000Y-102056000D02*
X146226000Y-102056000D01*
X146226000Y-102056000D02*
X146226000Y-103856000D01*
X146226000Y-103856000D02*
X146976000Y-103856000D01*
X146976000Y-103856000D02*
X146976000Y-102056000D01*
X144726000Y-96256000D02*
X144726000Y-97006000D01*
X144726000Y-97006000D02*
X143386000Y-97006000D01*
X141776000Y-100056000D02*
X141776000Y-98066000D01*
X144726000Y-103856000D02*
X144726000Y-103106000D01*
X144726000Y-103106000D02*
X141776000Y-103106000D01*
X141776000Y-103106000D02*
X141776000Y-100056000D01*
X147276000Y-97206000D02*
X147276000Y-95956000D01*
X147276000Y-95956000D02*
X146026000Y-95956000D01*
X130068000Y-121332000D02*
X130068000Y-115362000D01*
X130068000Y-115362000D02*
X117448000Y-115362000D01*
X117448000Y-115362000D02*
X117448000Y-121332000D01*
X117448000Y-121332000D02*
X130068000Y-121332000D01*
X126758000Y-121322000D02*
X126758000Y-120572000D01*
X126758000Y-120572000D02*
X120758000Y-120572000D01*
X120758000Y-120572000D02*
X120758000Y-121322000D01*
X120758000Y-121322000D02*
X126758000Y-121322000D01*
X130058000Y-121322000D02*
X130058000Y-120572000D01*
X130058000Y-120572000D02*
X128258000Y-120572000D01*
X128258000Y-120572000D02*
X128258000Y-121322000D01*
X128258000Y-121322000D02*
X130058000Y-121322000D01*
X119258000Y-121322000D02*
X119258000Y-120572000D01*
X119258000Y-120572000D02*
X117458000Y-120572000D01*
X117458000Y-120572000D02*
X117458000Y-121322000D01*
X117458000Y-121322000D02*
X119258000Y-121322000D01*
X130058000Y-119072000D02*
X129308000Y-119072000D01*
X129308000Y-119072000D02*
X129308000Y-117732000D01*
X123758000Y-116122000D02*
X128248000Y-116122000D01*
X117458000Y-119072000D02*
X118208000Y-119072000D01*
X118208000Y-119072000D02*
X118208000Y-116122000D01*
X118208000Y-116122000D02*
X123758000Y-116122000D01*
X129108000Y-121622000D02*
X130358000Y-121622000D01*
X130358000Y-121622000D02*
X130358000Y-120372000D01*
X146986000Y-105644000D02*
X141016000Y-105644000D01*
X141016000Y-105644000D02*
X141016000Y-113264000D01*
X141016000Y-113264000D02*
X146986000Y-113264000D01*
X146986000Y-113264000D02*
X146986000Y-105644000D01*
X146976000Y-108954000D02*
X146226000Y-108954000D01*
X146226000Y-108954000D02*
X146226000Y-109954000D01*
X146226000Y-109954000D02*
X146976000Y-109954000D01*
X146976000Y-109954000D02*
X146976000Y-108954000D01*
X146976000Y-105654000D02*
X146226000Y-105654000D01*
X146226000Y-105654000D02*
X146226000Y-107454000D01*
X146226000Y-107454000D02*
X146976000Y-107454000D01*
X146976000Y-107454000D02*
X146976000Y-105654000D01*
X146976000Y-111454000D02*
X146226000Y-111454000D01*
X146226000Y-111454000D02*
X146226000Y-113254000D01*
X146226000Y-113254000D02*
X146976000Y-113254000D01*
X146976000Y-113254000D02*
X146976000Y-111454000D01*
X144726000Y-105654000D02*
X144726000Y-106404000D01*
X144726000Y-106404000D02*
X143386000Y-106404000D01*
X141776000Y-109454000D02*
X141776000Y-107464000D01*
X144726000Y-113254000D02*
X144726000Y-112504000D01*
X144726000Y-112504000D02*
X141776000Y-112504000D01*
X141776000Y-112504000D02*
X141776000Y-109454000D01*
X147276000Y-106604000D02*
X147276000Y-105354000D01*
X147276000Y-105354000D02*
X146026000Y-105354000D01*
X116078000Y-113090000D02*
X116078000Y-110430000D01*
X116078000Y-113090000D02*
X133918000Y-113090000D01*
X133918000Y-113090000D02*
X133918000Y-110430000D01*
X116078000Y-110430000D02*
X133918000Y-110430000D01*
X113478000Y-110430000D02*
X114808000Y-110430000D01*
X113478000Y-111760000D02*
X113478000Y-110430000D01*
X131318000Y-97730000D02*
X131318000Y-100390000D01*
X131318000Y-97730000D02*
X113478000Y-97730000D01*
X113478000Y-97730000D02*
X113478000Y-100390000D01*
X131318000Y-100390000D02*
X113478000Y-100390000D01*
X133918000Y-100390000D02*
X132588000Y-100390000D01*
X133918000Y-99060000D02*
X133918000Y-100390000D01*
X111700000Y-56896000D02*
X114360000Y-56896000D01*
X111700000Y-56896000D02*
X111700000Y-92516000D01*
X111700000Y-92516000D02*
X114360000Y-92516000D01*
X114360000Y-56896000D02*
X114360000Y-92516000D01*
X114360000Y-54296000D02*
X114360000Y-55626000D01*
X113030000Y-54296000D02*
X114360000Y-54296000D01*
X134560000Y-56896000D02*
X137220000Y-56896000D01*
X134560000Y-56896000D02*
X134560000Y-92516000D01*
X134560000Y-92516000D02*
X137220000Y-92516000D01*
X137220000Y-56896000D02*
X137220000Y-92516000D01*
X137220000Y-54296000D02*
X137220000Y-55626000D01*
X135890000Y-54296000D02*
X137220000Y-54296000D01*
X108300000Y-83454000D02*
X108300000Y-79614000D01*
X110140000Y-83454000D02*
X110140000Y-79614000D01*
X100410000Y-96286000D02*
X106380000Y-96286000D01*
X106380000Y-96286000D02*
X106380000Y-88666000D01*
X106380000Y-88666000D02*
X100410000Y-88666000D01*
X100410000Y-88666000D02*
X100410000Y-96286000D01*
X100420000Y-92976000D02*
X101170000Y-92976000D01*
X101170000Y-92976000D02*
X101170000Y-91976000D01*
X101170000Y-91976000D02*
X100420000Y-91976000D01*
X100420000Y-91976000D02*
X100420000Y-92976000D01*
X100420000Y-96276000D02*
X101170000Y-96276000D01*
X101170000Y-96276000D02*
X101170000Y-94476000D01*
X101170000Y-94476000D02*
X100420000Y-94476000D01*
X100420000Y-94476000D02*
X100420000Y-96276000D01*
X100420000Y-90476000D02*
X101170000Y-90476000D01*
X101170000Y-90476000D02*
X101170000Y-88676000D01*
X101170000Y-88676000D02*
X100420000Y-88676000D01*
X100420000Y-88676000D02*
X100420000Y-90476000D01*
X102670000Y-96276000D02*
X102670000Y-95526000D01*
X102670000Y-95526000D02*
X104010000Y-95526000D01*
X105620000Y-92476000D02*
X105620000Y-94466000D01*
X102670000Y-88676000D02*
X102670000Y-89426000D01*
X102670000Y-89426000D02*
X105620000Y-89426000D01*
X105620000Y-89426000D02*
X105620000Y-92476000D01*
X100120000Y-95326000D02*
X100120000Y-96576000D01*
X100120000Y-96576000D02*
X101370000Y-96576000D01*
X147598000Y-67479000D02*
X146828000Y-67479000D01*
X143748000Y-67479000D02*
X142921000Y-67479000D01*
X140654000Y-67479000D02*
X139478000Y-67479000D01*
X147598000Y-72340000D02*
X139478000Y-72340000D01*
X147598000Y-63920000D02*
X139478000Y-63920000D01*
X147598000Y-72340000D02*
X147598000Y-63920000D01*
X139478000Y-72340000D02*
X139478000Y-63920000D01*
X146688000Y-71580000D02*
X143888000Y-71580000D01*
X146688000Y-71580000D02*
X146688000Y-70120000D01*
X143888000Y-71580000D02*
X143888000Y-70120000D01*
X143188000Y-71580000D02*
X140388000Y-71580000D01*
X143188000Y-67830000D02*
X143187000Y-67830000D01*
X140388000Y-67830000D02*
X140388000Y-67830000D01*
X143188000Y-71580000D02*
X143188000Y-69269000D01*
X143188000Y-67891000D02*
X143188000Y-67830000D01*
X140388000Y-71580000D02*
X140388000Y-69269000D01*
X140388000Y-67891000D02*
X140388000Y-67830000D01*
X147838000Y-65920000D02*
X147838000Y-63680000D01*
X147838000Y-63680000D02*
X145838000Y-63680000D01*
X142727915Y-69837767D02*
G75*
G02*
X140848000Y-69838000I-939915J-342233D01*
G01*
X146285890Y-70109434D02*
G75*
G02*
X144290000Y-70111000I-997890J-70566D01*
G01*
X100410000Y-86126000D02*
X106380000Y-86126000D01*
X106380000Y-86126000D02*
X106380000Y-78506000D01*
X106380000Y-78506000D02*
X100410000Y-78506000D01*
X100410000Y-78506000D02*
X100410000Y-86126000D01*
X100420000Y-82816000D02*
X101170000Y-82816000D01*
X101170000Y-82816000D02*
X101170000Y-81816000D01*
X101170000Y-81816000D02*
X100420000Y-81816000D01*
X100420000Y-81816000D02*
X100420000Y-82816000D01*
X100420000Y-86116000D02*
X101170000Y-86116000D01*
X101170000Y-86116000D02*
X101170000Y-84316000D01*
X101170000Y-84316000D02*
X100420000Y-84316000D01*
X100420000Y-84316000D02*
X100420000Y-86116000D01*
X100420000Y-80316000D02*
X101170000Y-80316000D01*
X101170000Y-80316000D02*
X101170000Y-78516000D01*
X101170000Y-78516000D02*
X100420000Y-78516000D01*
X100420000Y-78516000D02*
X100420000Y-80316000D01*
X102670000Y-86116000D02*
X102670000Y-85366000D01*
X102670000Y-85366000D02*
X104010000Y-85366000D01*
X105620000Y-82316000D02*
X105620000Y-84306000D01*
X102670000Y-78516000D02*
X102670000Y-79266000D01*
X102670000Y-79266000D02*
X105620000Y-79266000D01*
X105620000Y-79266000D02*
X105620000Y-82316000D01*
X100120000Y-85166000D02*
X100120000Y-86416000D01*
X100120000Y-86416000D02*
X101370000Y-86416000D01*
X108214000Y-64188000D02*
X106214000Y-64188000D01*
X108214000Y-66428000D02*
X108214000Y-64188000D01*
X100764000Y-68399000D02*
X100764000Y-68338000D01*
X100764000Y-72088000D02*
X100764000Y-69777000D01*
X103564000Y-68399000D02*
X103564000Y-68338000D01*
X103564000Y-72088000D02*
X103564000Y-69777000D01*
X100764000Y-68338000D02*
X100764000Y-68338000D01*
X103564000Y-68338000D02*
X103563000Y-68338000D01*
X103564000Y-72088000D02*
X100764000Y-72088000D01*
X104264000Y-72088000D02*
X104264000Y-70628000D01*
X107064000Y-72088000D02*
X107064000Y-70628000D01*
X107064000Y-72088000D02*
X104264000Y-72088000D01*
X99854000Y-72848000D02*
X99854000Y-64428000D01*
X107974000Y-72848000D02*
X107974000Y-64428000D01*
X107974000Y-64428000D02*
X99854000Y-64428000D01*
X107974000Y-72848000D02*
X99854000Y-72848000D01*
X101030000Y-67987000D02*
X99854000Y-67987000D01*
X104124000Y-67987000D02*
X103297000Y-67987000D01*
X107974000Y-67987000D02*
X107204000Y-67987000D01*
X103103915Y-70345767D02*
G75*
G02*
X101224000Y-70346000I-939915J-342233D01*
G01*
X106661890Y-70617434D02*
G75*
G02*
X104666000Y-70619000I-997890J-70566D01*
G01*
D11*
X107211904Y-121228380D02*
X107211904Y-120228380D01*
X107450000Y-120228380D01*
X107592857Y-120276000D01*
X107688095Y-120371238D01*
X107735714Y-120466476D01*
X107783333Y-120656952D01*
X107783333Y-120799809D01*
X107735714Y-120990285D01*
X107688095Y-121085523D01*
X107592857Y-121180761D01*
X107450000Y-121228380D01*
X107211904Y-121228380D01*
X108735714Y-121228380D02*
X108164285Y-121228380D01*
X108450000Y-121228380D02*
X108450000Y-120228380D01*
X108354761Y-120371238D01*
X108259523Y-120466476D01*
X108164285Y-120514095D01*
X112768095Y-120508380D02*
X112768095Y-119508380D01*
X113339523Y-120508380D02*
X112910952Y-119936952D01*
X113339523Y-119508380D02*
X112768095Y-120079809D01*
X141501809Y-74117142D02*
X141454190Y-74164761D01*
X141311333Y-74212380D01*
X141216095Y-74212380D01*
X141073238Y-74164761D01*
X140978000Y-74069523D01*
X140930380Y-73974285D01*
X140882761Y-73783809D01*
X140882761Y-73640952D01*
X140930380Y-73450476D01*
X140978000Y-73355238D01*
X141073238Y-73260000D01*
X141216095Y-73212380D01*
X141311333Y-73212380D01*
X141454190Y-73260000D01*
X141501809Y-73307619D01*
X142358952Y-73545714D02*
X142358952Y-74212380D01*
X142120857Y-73164761D02*
X141882761Y-73879047D01*
X142501809Y-73879047D01*
X142787523Y-73212380D02*
X143454190Y-73212380D01*
X143025619Y-74212380D01*
X144025619Y-73212380D02*
X144120857Y-73212380D01*
X144216095Y-73260000D01*
X144263714Y-73307619D01*
X144311333Y-73402857D01*
X144358952Y-73593333D01*
X144358952Y-73831428D01*
X144311333Y-74021904D01*
X144263714Y-74117142D01*
X144216095Y-74164761D01*
X144120857Y-74212380D01*
X144025619Y-74212380D01*
X143930380Y-74164761D01*
X143882761Y-74117142D01*
X143835142Y-74021904D01*
X143787523Y-73831428D01*
X143787523Y-73593333D01*
X143835142Y-73402857D01*
X143882761Y-73307619D01*
X143930380Y-73260000D01*
X144025619Y-73212380D01*
X144787523Y-73545714D02*
X144787523Y-74212380D01*
X144787523Y-73640952D02*
X144835142Y-73593333D01*
X144930380Y-73545714D01*
X145073238Y-73545714D01*
X145168476Y-73593333D01*
X145216095Y-73688571D01*
X145216095Y-74212380D01*
X146025619Y-73688571D02*
X145692285Y-73688571D01*
X145692285Y-74212380D02*
X145692285Y-73212380D01*
X146168476Y-73212380D01*
X147073238Y-74212380D02*
X146501809Y-74212380D01*
X146787523Y-74212380D02*
X146787523Y-73212380D01*
X146692285Y-73355238D01*
X146597047Y-73450476D01*
X146501809Y-73498095D01*
X147528380Y-93515142D02*
X148242666Y-93515142D01*
X148385523Y-93562761D01*
X148480761Y-93658000D01*
X148528380Y-93800857D01*
X148528380Y-93896095D01*
X148480761Y-93086571D02*
X148528380Y-92943714D01*
X148528380Y-92705619D01*
X148480761Y-92610380D01*
X148433142Y-92562761D01*
X148337904Y-92515142D01*
X148242666Y-92515142D01*
X148147428Y-92562761D01*
X148099809Y-92610380D01*
X148052190Y-92705619D01*
X148004571Y-92896095D01*
X147956952Y-92991333D01*
X147909333Y-93038952D01*
X147814095Y-93086571D01*
X147718857Y-93086571D01*
X147623619Y-93038952D01*
X147576000Y-92991333D01*
X147528380Y-92896095D01*
X147528380Y-92658000D01*
X147576000Y-92515142D01*
X148480761Y-91705619D02*
X148528380Y-91800857D01*
X148528380Y-91991333D01*
X148480761Y-92086571D01*
X148385523Y-92134190D01*
X148004571Y-92134190D01*
X147909333Y-92086571D01*
X147861714Y-91991333D01*
X147861714Y-91800857D01*
X147909333Y-91705619D01*
X148004571Y-91658000D01*
X148099809Y-91658000D01*
X148195047Y-92134190D01*
X147861714Y-91229428D02*
X148528380Y-91229428D01*
X147956952Y-91229428D02*
X147909333Y-91181809D01*
X147861714Y-91086571D01*
X147861714Y-90943714D01*
X147909333Y-90848476D01*
X148004571Y-90800857D01*
X148528380Y-90800857D01*
X148480761Y-90372285D02*
X148528380Y-90277047D01*
X148528380Y-90086571D01*
X148480761Y-89991333D01*
X148385523Y-89943714D01*
X148337904Y-89943714D01*
X148242666Y-89991333D01*
X148195047Y-90086571D01*
X148195047Y-90229428D01*
X148147428Y-90324666D01*
X148052190Y-90372285D01*
X148004571Y-90372285D01*
X147909333Y-90324666D01*
X147861714Y-90229428D01*
X147861714Y-90086571D01*
X147909333Y-89991333D01*
X148528380Y-89372285D02*
X148480761Y-89467523D01*
X148433142Y-89515142D01*
X148337904Y-89562761D01*
X148052190Y-89562761D01*
X147956952Y-89515142D01*
X147909333Y-89467523D01*
X147861714Y-89372285D01*
X147861714Y-89229428D01*
X147909333Y-89134190D01*
X147956952Y-89086571D01*
X148052190Y-89038952D01*
X148337904Y-89038952D01*
X148433142Y-89086571D01*
X148480761Y-89134190D01*
X148528380Y-89229428D01*
X148528380Y-89372285D01*
X148528380Y-88610380D02*
X147861714Y-88610380D01*
X148052190Y-88610380D02*
X147956952Y-88562761D01*
X147909333Y-88515142D01*
X147861714Y-88419904D01*
X147861714Y-88324666D01*
X147623619Y-88038952D02*
X147576000Y-87991333D01*
X147528380Y-87896095D01*
X147528380Y-87658000D01*
X147576000Y-87562761D01*
X147623619Y-87515142D01*
X147718857Y-87467523D01*
X147814095Y-87467523D01*
X147956952Y-87515142D01*
X148528380Y-88086571D01*
X148528380Y-87467523D01*
X147528380Y-102246476D02*
X148242666Y-102246476D01*
X148385523Y-102294095D01*
X148480761Y-102389333D01*
X148528380Y-102532190D01*
X148528380Y-102627428D01*
X147528380Y-101579809D02*
X147528380Y-101389333D01*
X147576000Y-101294095D01*
X147671238Y-101198857D01*
X147861714Y-101151238D01*
X148195047Y-101151238D01*
X148385523Y-101198857D01*
X148480761Y-101294095D01*
X148528380Y-101389333D01*
X148528380Y-101579809D01*
X148480761Y-101675047D01*
X148385523Y-101770285D01*
X148195047Y-101817904D01*
X147861714Y-101817904D01*
X147671238Y-101770285D01*
X147576000Y-101675047D01*
X147528380Y-101579809D01*
X147861714Y-100722666D02*
X148861714Y-100722666D01*
X147909333Y-100722666D02*
X147861714Y-100627428D01*
X147861714Y-100436952D01*
X147909333Y-100341714D01*
X147956952Y-100294095D01*
X148052190Y-100246476D01*
X148337904Y-100246476D01*
X148433142Y-100294095D01*
X148480761Y-100341714D01*
X148528380Y-100436952D01*
X148528380Y-100627428D01*
X148480761Y-100722666D01*
X148480761Y-99436952D02*
X148528380Y-99532190D01*
X148528380Y-99722666D01*
X148480761Y-99817904D01*
X148385523Y-99865523D01*
X148004571Y-99865523D01*
X147909333Y-99817904D01*
X147861714Y-99722666D01*
X147861714Y-99532190D01*
X147909333Y-99436952D01*
X148004571Y-99389333D01*
X148099809Y-99389333D01*
X148195047Y-99865523D01*
X147861714Y-98960761D02*
X148528380Y-98960761D01*
X147956952Y-98960761D02*
X147909333Y-98913142D01*
X147861714Y-98817904D01*
X147861714Y-98675047D01*
X147909333Y-98579809D01*
X148004571Y-98532190D01*
X148528380Y-98532190D01*
X147623619Y-98103619D02*
X147576000Y-98056000D01*
X147528380Y-97960761D01*
X147528380Y-97722666D01*
X147576000Y-97627428D01*
X147623619Y-97579809D01*
X147718857Y-97532190D01*
X147814095Y-97532190D01*
X147956952Y-97579809D01*
X148528380Y-98151238D01*
X148528380Y-97532190D01*
X132215238Y-118324380D02*
X132215238Y-119038666D01*
X132167619Y-119181523D01*
X132072380Y-119276761D01*
X131929523Y-119324380D01*
X131834285Y-119324380D01*
X132691428Y-119324380D02*
X132691428Y-118324380D01*
X133024761Y-119038666D01*
X133358095Y-118324380D01*
X133358095Y-119324380D01*
X133977142Y-119324380D02*
X133881904Y-119276761D01*
X133834285Y-119229142D01*
X133786666Y-119133904D01*
X133786666Y-118848190D01*
X133834285Y-118752952D01*
X133881904Y-118705333D01*
X133977142Y-118657714D01*
X134120000Y-118657714D01*
X134215238Y-118705333D01*
X134262857Y-118752952D01*
X134310476Y-118848190D01*
X134310476Y-119133904D01*
X134262857Y-119229142D01*
X134215238Y-119276761D01*
X134120000Y-119324380D01*
X133977142Y-119324380D01*
X134596190Y-118657714D02*
X134977142Y-118657714D01*
X134739047Y-118324380D02*
X134739047Y-119181523D01*
X134786666Y-119276761D01*
X134881904Y-119324380D01*
X134977142Y-119324380D01*
X135453333Y-119324380D02*
X135358095Y-119276761D01*
X135310476Y-119229142D01*
X135262857Y-119133904D01*
X135262857Y-118848190D01*
X135310476Y-118752952D01*
X135358095Y-118705333D01*
X135453333Y-118657714D01*
X135596190Y-118657714D01*
X135691428Y-118705333D01*
X135739047Y-118752952D01*
X135786666Y-118848190D01*
X135786666Y-119133904D01*
X135739047Y-119229142D01*
X135691428Y-119276761D01*
X135596190Y-119324380D01*
X135453333Y-119324380D01*
X136215238Y-119324380D02*
X136215238Y-118657714D01*
X136215238Y-118848190D02*
X136262857Y-118752952D01*
X136310476Y-118705333D01*
X136405714Y-118657714D01*
X136500952Y-118657714D01*
X136786666Y-118419619D02*
X136834285Y-118372000D01*
X136929523Y-118324380D01*
X137167619Y-118324380D01*
X137262857Y-118372000D01*
X137310476Y-118419619D01*
X137358095Y-118514857D01*
X137358095Y-118610095D01*
X137310476Y-118752952D01*
X136739047Y-119324380D01*
X137358095Y-119324380D01*
X147528380Y-112287333D02*
X148242666Y-112287333D01*
X148385523Y-112334952D01*
X148480761Y-112430190D01*
X148528380Y-112573047D01*
X148528380Y-112668285D01*
X148433142Y-111239714D02*
X148480761Y-111287333D01*
X148528380Y-111430190D01*
X148528380Y-111525428D01*
X148480761Y-111668285D01*
X148385523Y-111763523D01*
X148290285Y-111811142D01*
X148099809Y-111858761D01*
X147956952Y-111858761D01*
X147766476Y-111811142D01*
X147671238Y-111763523D01*
X147576000Y-111668285D01*
X147528380Y-111525428D01*
X147528380Y-111430190D01*
X147576000Y-111287333D01*
X147623619Y-111239714D01*
X148528380Y-110668285D02*
X148480761Y-110763523D01*
X148385523Y-110811142D01*
X147528380Y-110811142D01*
X148528380Y-110144476D02*
X148480761Y-110239714D01*
X148433142Y-110287333D01*
X148337904Y-110334952D01*
X148052190Y-110334952D01*
X147956952Y-110287333D01*
X147909333Y-110239714D01*
X147861714Y-110144476D01*
X147861714Y-110001619D01*
X147909333Y-109906380D01*
X147956952Y-109858761D01*
X148052190Y-109811142D01*
X148337904Y-109811142D01*
X148433142Y-109858761D01*
X148480761Y-109906380D01*
X148528380Y-110001619D01*
X148528380Y-110144476D01*
X148480761Y-109430190D02*
X148528380Y-109334952D01*
X148528380Y-109144476D01*
X148480761Y-109049238D01*
X148385523Y-109001619D01*
X148337904Y-109001619D01*
X148242666Y-109049238D01*
X148195047Y-109144476D01*
X148195047Y-109287333D01*
X148147428Y-109382571D01*
X148052190Y-109430190D01*
X148004571Y-109430190D01*
X147909333Y-109382571D01*
X147861714Y-109287333D01*
X147861714Y-109144476D01*
X147909333Y-109049238D01*
X148480761Y-108192095D02*
X148528380Y-108287333D01*
X148528380Y-108477809D01*
X148480761Y-108573047D01*
X148385523Y-108620666D01*
X148004571Y-108620666D01*
X147909333Y-108573047D01*
X147861714Y-108477809D01*
X147861714Y-108287333D01*
X147909333Y-108192095D01*
X148004571Y-108144476D01*
X148099809Y-108144476D01*
X148195047Y-108620666D01*
X148528380Y-107287333D02*
X147528380Y-107287333D01*
X148480761Y-107287333D02*
X148528380Y-107382571D01*
X148528380Y-107573047D01*
X148480761Y-107668285D01*
X148433142Y-107715904D01*
X148337904Y-107763523D01*
X148052190Y-107763523D01*
X147956952Y-107715904D01*
X147909333Y-107668285D01*
X147861714Y-107573047D01*
X147861714Y-107382571D01*
X147909333Y-107287333D01*
X147623619Y-106858761D02*
X147576000Y-106811142D01*
X147528380Y-106715904D01*
X147528380Y-106477809D01*
X147576000Y-106382571D01*
X147623619Y-106334952D01*
X147718857Y-106287333D01*
X147814095Y-106287333D01*
X147956952Y-106334952D01*
X148528380Y-106906380D01*
X148528380Y-106287333D01*
X107752380Y-83391142D02*
X107276190Y-83724476D01*
X107752380Y-83962571D02*
X106752380Y-83962571D01*
X106752380Y-83581619D01*
X106800000Y-83486380D01*
X106847619Y-83438761D01*
X106942857Y-83391142D01*
X107085714Y-83391142D01*
X107180952Y-83438761D01*
X107228571Y-83486380D01*
X107276190Y-83581619D01*
X107276190Y-83962571D01*
X106752380Y-82486380D02*
X106752380Y-82962571D01*
X107228571Y-83010190D01*
X107180952Y-82962571D01*
X107133333Y-82867333D01*
X107133333Y-82629238D01*
X107180952Y-82534000D01*
X107228571Y-82486380D01*
X107323809Y-82438761D01*
X107561904Y-82438761D01*
X107657142Y-82486380D01*
X107704761Y-82534000D01*
X107752380Y-82629238D01*
X107752380Y-82867333D01*
X107704761Y-82962571D01*
X107657142Y-83010190D01*
X107657142Y-82010190D02*
X107704761Y-81962571D01*
X107752380Y-82010190D01*
X107704761Y-82057809D01*
X107657142Y-82010190D01*
X107752380Y-82010190D01*
X106847619Y-81581619D02*
X106800000Y-81534000D01*
X106752380Y-81438761D01*
X106752380Y-81200666D01*
X106800000Y-81105428D01*
X106847619Y-81057809D01*
X106942857Y-81010190D01*
X107038095Y-81010190D01*
X107180952Y-81057809D01*
X107752380Y-81629238D01*
X107752380Y-81010190D01*
X107752380Y-80581619D02*
X106752380Y-80581619D01*
X107752380Y-80010190D02*
X107180952Y-80438761D01*
X106752380Y-80010190D02*
X107323809Y-80581619D01*
X107752380Y-79057809D02*
X107752380Y-79629238D01*
X107752380Y-79343523D02*
X106752380Y-79343523D01*
X106895238Y-79438761D01*
X106990476Y-79534000D01*
X107038095Y-79629238D01*
X98772380Y-95237904D02*
X99486666Y-95237904D01*
X99629523Y-95285523D01*
X99724761Y-95380761D01*
X99772380Y-95523619D01*
X99772380Y-95618857D01*
X99248571Y-94428380D02*
X99296190Y-94285523D01*
X99343809Y-94237904D01*
X99439047Y-94190285D01*
X99581904Y-94190285D01*
X99677142Y-94237904D01*
X99724761Y-94285523D01*
X99772380Y-94380761D01*
X99772380Y-94761714D01*
X98772380Y-94761714D01*
X98772380Y-94428380D01*
X98820000Y-94333142D01*
X98867619Y-94285523D01*
X98962857Y-94237904D01*
X99058095Y-94237904D01*
X99153333Y-94285523D01*
X99200952Y-94333142D01*
X99248571Y-94428380D01*
X99248571Y-94761714D01*
X99105714Y-93333142D02*
X99772380Y-93333142D01*
X99105714Y-93761714D02*
X99629523Y-93761714D01*
X99724761Y-93714095D01*
X99772380Y-93618857D01*
X99772380Y-93476000D01*
X99724761Y-93380761D01*
X99677142Y-93333142D01*
X99105714Y-92999809D02*
X99105714Y-92618857D01*
X98772380Y-92856952D02*
X99629523Y-92856952D01*
X99724761Y-92809333D01*
X99772380Y-92714095D01*
X99772380Y-92618857D01*
X99105714Y-92428380D02*
X99105714Y-92047428D01*
X98772380Y-92285523D02*
X99629523Y-92285523D01*
X99724761Y-92237904D01*
X99772380Y-92142666D01*
X99772380Y-92047428D01*
X99772380Y-91571238D02*
X99724761Y-91666476D01*
X99677142Y-91714095D01*
X99581904Y-91761714D01*
X99296190Y-91761714D01*
X99200952Y-91714095D01*
X99153333Y-91666476D01*
X99105714Y-91571238D01*
X99105714Y-91428380D01*
X99153333Y-91333142D01*
X99200952Y-91285523D01*
X99296190Y-91237904D01*
X99581904Y-91237904D01*
X99677142Y-91285523D01*
X99724761Y-91333142D01*
X99772380Y-91428380D01*
X99772380Y-91571238D01*
X99105714Y-90809333D02*
X99772380Y-90809333D01*
X99200952Y-90809333D02*
X99153333Y-90761714D01*
X99105714Y-90666476D01*
X99105714Y-90523619D01*
X99153333Y-90428380D01*
X99248571Y-90380761D01*
X99772380Y-90380761D01*
X99772380Y-89380761D02*
X99772380Y-89952190D01*
X99772380Y-89666476D02*
X98772380Y-89666476D01*
X98915238Y-89761714D01*
X99010476Y-89856952D01*
X99058095Y-89952190D01*
X142573523Y-59237619D02*
X142621142Y-59190000D01*
X142716380Y-59142380D01*
X142954476Y-59142380D01*
X143049714Y-59190000D01*
X143097333Y-59237619D01*
X143144952Y-59332857D01*
X143144952Y-59428095D01*
X143097333Y-59570952D01*
X142525904Y-60142380D01*
X143144952Y-60142380D01*
X144002095Y-59475714D02*
X144002095Y-60142380D01*
X143764000Y-59094761D02*
X143525904Y-59809047D01*
X144144952Y-59809047D01*
X144383047Y-59142380D02*
X144716380Y-60142380D01*
X145049714Y-59142380D01*
X98772380Y-83935047D02*
X99486666Y-83935047D01*
X99629523Y-83982666D01*
X99724761Y-84077904D01*
X99772380Y-84220761D01*
X99772380Y-84316000D01*
X99772380Y-82982666D02*
X99772380Y-83458857D01*
X98772380Y-83458857D01*
X99724761Y-82268380D02*
X99772380Y-82363619D01*
X99772380Y-82554095D01*
X99724761Y-82649333D01*
X99629523Y-82696952D01*
X99248571Y-82696952D01*
X99153333Y-82649333D01*
X99105714Y-82554095D01*
X99105714Y-82363619D01*
X99153333Y-82268380D01*
X99248571Y-82220761D01*
X99343809Y-82220761D01*
X99439047Y-82696952D01*
X99772380Y-81363619D02*
X98772380Y-81363619D01*
X99724761Y-81363619D02*
X99772380Y-81458857D01*
X99772380Y-81649333D01*
X99724761Y-81744571D01*
X99677142Y-81792190D01*
X99581904Y-81839809D01*
X99296190Y-81839809D01*
X99200952Y-81792190D01*
X99153333Y-81744571D01*
X99105714Y-81649333D01*
X99105714Y-81458857D01*
X99153333Y-81363619D01*
X99772380Y-80363619D02*
X99772380Y-80935047D01*
X99772380Y-80649333D02*
X98772380Y-80649333D01*
X98915238Y-80744571D01*
X99010476Y-80839809D01*
X99058095Y-80935047D01*
X103723523Y-59650380D02*
X103247333Y-59650380D01*
X103199714Y-60126571D01*
X103247333Y-60078952D01*
X103342571Y-60031333D01*
X103580666Y-60031333D01*
X103675904Y-60078952D01*
X103723523Y-60126571D01*
X103771142Y-60221809D01*
X103771142Y-60459904D01*
X103723523Y-60555142D01*
X103675904Y-60602761D01*
X103580666Y-60650380D01*
X103342571Y-60650380D01*
X103247333Y-60602761D01*
X103199714Y-60555142D01*
X104056857Y-59650380D02*
X104390190Y-60650380D01*
X104723523Y-59650380D01*
%LPC*%
D12*
X102870000Y-117856000D03*
D13*
X113030000Y-117856000D03*
D14*
X146478000Y-80010000D03*
D15*
X141478000Y-80010000D03*
D16*
X142526000Y-87808000D03*
D17*
X144526000Y-91908000D03*
G36*
G01*
X143776000Y-88558000D02*
X145276000Y-88558000D01*
G75*
G02*
X145526000Y-88808000I0J-250000D01*
G01*
X145526000Y-90008000D01*
G75*
G02*
X145276000Y-90258000I-250000J0D01*
G01*
X143776000Y-90258000D01*
G75*
G02*
X143526000Y-90008000I0J250000D01*
G01*
X143526000Y-88808000D01*
G75*
G02*
X143776000Y-88558000I250000J0D01*
G01*
G37*
D16*
X142526000Y-97206000D03*
D17*
X144526000Y-101306000D03*
G36*
G01*
X143776000Y-97956000D02*
X145276000Y-97956000D01*
G75*
G02*
X145526000Y-98206000I0J-250000D01*
G01*
X145526000Y-99406000D01*
G75*
G02*
X145276000Y-99656000I-250000J0D01*
G01*
X143776000Y-99656000D01*
G75*
G02*
X143526000Y-99406000I0J250000D01*
G01*
X143526000Y-98206000D01*
G75*
G02*
X143776000Y-97956000I250000J0D01*
G01*
G37*
D16*
X129108000Y-116872000D03*
D18*
X120008000Y-118872000D03*
X122508000Y-118872000D03*
X125008000Y-118872000D03*
G36*
G01*
X128358000Y-118147000D02*
X128358000Y-119597000D01*
G75*
G02*
X128108000Y-119847000I-250000J0D01*
G01*
X126908000Y-119847000D01*
G75*
G02*
X126658000Y-119597000I0J250000D01*
G01*
X126658000Y-118147000D01*
G75*
G02*
X126908000Y-117897000I250000J0D01*
G01*
X128108000Y-117897000D01*
G75*
G02*
X128358000Y-118147000I0J-250000D01*
G01*
G37*
D16*
X142526000Y-106604000D03*
D17*
X144526000Y-110704000D03*
G36*
G01*
X143776000Y-107354000D02*
X145276000Y-107354000D01*
G75*
G02*
X145526000Y-107604000I0J-250000D01*
G01*
X145526000Y-108804000D01*
G75*
G02*
X145276000Y-109054000I-250000J0D01*
G01*
X143776000Y-109054000D01*
G75*
G02*
X143526000Y-108804000I0J250000D01*
G01*
X143526000Y-107604000D01*
G75*
G02*
X143776000Y-107354000I250000J0D01*
G01*
G37*
D19*
X132588000Y-111760000D03*
X130048000Y-111760000D03*
X127508000Y-111760000D03*
X124968000Y-111760000D03*
X122428000Y-111760000D03*
X119888000Y-111760000D03*
X117348000Y-111760000D03*
D20*
X114808000Y-111760000D03*
D19*
X114808000Y-99060000D03*
X117348000Y-99060000D03*
X119888000Y-99060000D03*
X122428000Y-99060000D03*
X124968000Y-99060000D03*
X127508000Y-99060000D03*
X130048000Y-99060000D03*
D20*
X132588000Y-99060000D03*
D19*
X113030000Y-91186000D03*
X113030000Y-88646000D03*
X113030000Y-86106000D03*
X113030000Y-83566000D03*
X113030000Y-81026000D03*
X113030000Y-78486000D03*
X113030000Y-75946000D03*
X113030000Y-73406000D03*
X113030000Y-70866000D03*
X113030000Y-68326000D03*
X113030000Y-65786000D03*
X113030000Y-63246000D03*
X113030000Y-60706000D03*
X113030000Y-58166000D03*
D20*
X113030000Y-55626000D03*
D19*
X135890000Y-91186000D03*
X135890000Y-88646000D03*
X135890000Y-86106000D03*
X135890000Y-83566000D03*
X135890000Y-81026000D03*
X135890000Y-78486000D03*
X135890000Y-75946000D03*
X135890000Y-73406000D03*
X135890000Y-70866000D03*
X135890000Y-68326000D03*
X135890000Y-65786000D03*
X135890000Y-63246000D03*
X135890000Y-60706000D03*
X135890000Y-58166000D03*
D20*
X135890000Y-55626000D03*
D21*
X109220000Y-78994000D03*
D22*
X109220000Y-84074000D03*
D16*
X104870000Y-95326000D03*
D17*
X102870000Y-91226000D03*
G36*
G01*
X103620000Y-94576000D02*
X102120000Y-94576000D01*
G75*
G02*
X101870000Y-94326000I0J250000D01*
G01*
X101870000Y-93126000D01*
G75*
G02*
X102120000Y-92876000I250000J0D01*
G01*
X103620000Y-92876000D01*
G75*
G02*
X103870000Y-93126000I0J-250000D01*
G01*
X103870000Y-94326000D01*
G75*
G02*
X103620000Y-94576000I-250000J0D01*
G01*
G37*
D23*
X141788000Y-68580000D03*
D24*
X145288000Y-68580000D03*
D16*
X104870000Y-85166000D03*
D17*
X102870000Y-81066000D03*
G36*
G01*
X103620000Y-84416000D02*
X102120000Y-84416000D01*
G75*
G02*
X101870000Y-84166000I0J250000D01*
G01*
X101870000Y-82966000D01*
G75*
G02*
X102120000Y-82716000I250000J0D01*
G01*
X103620000Y-82716000D01*
G75*
G02*
X103870000Y-82966000I0J-250000D01*
G01*
X103870000Y-84166000D01*
G75*
G02*
X103620000Y-84416000I-250000J0D01*
G01*
G37*
D23*
X102164000Y-69088000D03*
D24*
X105664000Y-69088000D03*
M02*
