M48
; DRILL file {KiCad (5.1.10-1-10_14)} date Monday, December 20, 2021 at 02:55:57 PM
; FORMAT={-:-/ absolute / metric / decimal}
; #@! TF.CreationDate,2021-12-20T14:55:57-05:00
; #@! TF.GenerationSoftware,Kicad,Pcbnew,(5.1.10-1-10_14)
; #@! TF.FileFunction,Plated,1,2,PTH
FMAT,2
METRIC
T1C0.700
T2C0.950
T3C1.000
T4C1.200
T5C1.300
%
G90
G05
T1
X109.22Y-78.994
X109.22Y-84.074
T2
X120.008Y-118.872
X122.508Y-118.872
X125.008Y-118.872
X127.508Y-118.872
T3
X102.87Y-81.066
X102.87Y-83.566
X102.87Y-91.226
X102.87Y-93.726
X113.03Y-55.626
X113.03Y-58.166
X113.03Y-60.706
X113.03Y-63.246
X113.03Y-65.786
X113.03Y-68.326
X113.03Y-70.866
X113.03Y-73.406
X113.03Y-75.946
X113.03Y-78.486
X113.03Y-81.026
X113.03Y-83.566
X113.03Y-86.106
X113.03Y-88.646
X113.03Y-91.186
X114.808Y-99.06
X114.808Y-111.76
X117.348Y-99.06
X117.348Y-111.76
X119.888Y-99.06
X119.888Y-111.76
X122.428Y-99.06
X122.428Y-111.76
X124.968Y-99.06
X124.968Y-111.76
X127.508Y-99.06
X127.508Y-111.76
X130.048Y-99.06
X130.048Y-111.76
X132.588Y-99.06
X132.588Y-111.76
X135.89Y-55.626
X135.89Y-58.166
X135.89Y-60.706
X135.89Y-63.246
X135.89Y-65.786
X135.89Y-68.326
X135.89Y-70.866
X135.89Y-73.406
X135.89Y-75.946
X135.89Y-78.486
X135.89Y-81.026
X135.89Y-83.566
X135.89Y-86.106
X135.89Y-88.646
X135.89Y-91.186
X141.478Y-80.01
X144.526Y-89.408
X144.526Y-91.908
X144.526Y-98.806
X144.526Y-101.306
X144.526Y-108.204
X144.526Y-110.704
X146.478Y-80.01
T4
X102.87Y-117.856
X113.03Y-117.856
T5
X102.164Y-69.088
X105.664Y-69.088
X141.788Y-68.58
X145.288Y-68.58
T0
M30
