%FSLAX45Y45*%
G04 Gerber Fmt 4.5, Leading zero omitted, Abs format (unit mm)*
G04 Created by KiCad (PCBNEW (5.1.10-1-10_14)) date 2021-12-20 14:56:10*
%MOMM*%
%LPD*%
G01*
G04 APERTURE LIST*
%TA.AperFunction,Profile*%
%ADD10C,0.100000*%
%TD*%
%ADD11C,0.200000*%
%ADD12C,0.300000*%
G04 APERTURE END LIST*
D10*
X15011400Y-5232400D02*
X15011400Y-12242800D01*
X9804400Y-5232400D02*
X15011400Y-5232400D01*
X9804400Y-12242800D02*
X9804400Y-5232400D01*
X15011400Y-12242800D02*
X9804400Y-12242800D01*
D11*
X10887000Y-7864400D02*
X10957000Y-7934400D01*
X10957000Y-7864400D02*
X10887000Y-7934400D01*
X10887000Y-8372400D02*
X10957000Y-8442400D01*
X10957000Y-8372400D02*
X10887000Y-8442400D01*
X12048300Y-11887200D02*
G75*
G03*
X12048300Y-11887200I-47500J0D01*
G01*
X12298300Y-11887200D02*
G75*
G03*
X12298300Y-11887200I-47500J0D01*
G01*
X12548300Y-11887200D02*
G75*
G03*
X12548300Y-11887200I-47500J0D01*
G01*
X12798300Y-11887200D02*
G75*
G03*
X12798300Y-11887200I-47500J0D01*
G01*
X10287000Y-8056600D02*
X10287000Y-8156600D01*
X10237000Y-8106600D02*
X10337000Y-8106600D01*
X10287000Y-8306600D02*
X10287000Y-8406600D01*
X10237000Y-8356600D02*
X10337000Y-8356600D01*
X10287000Y-9072600D02*
X10287000Y-9172600D01*
X10237000Y-9122600D02*
X10337000Y-9122600D01*
X10287000Y-9322600D02*
X10287000Y-9422600D01*
X10237000Y-9372600D02*
X10337000Y-9372600D01*
X11303000Y-5512600D02*
X11303000Y-5612600D01*
X11253000Y-5562600D02*
X11353000Y-5562600D01*
X11303000Y-5766600D02*
X11303000Y-5866600D01*
X11253000Y-5816600D02*
X11353000Y-5816600D01*
X11303000Y-6020600D02*
X11303000Y-6120600D01*
X11253000Y-6070600D02*
X11353000Y-6070600D01*
X11303000Y-6274600D02*
X11303000Y-6374600D01*
X11253000Y-6324600D02*
X11353000Y-6324600D01*
X11303000Y-6528600D02*
X11303000Y-6628600D01*
X11253000Y-6578600D02*
X11353000Y-6578600D01*
X11303000Y-6782600D02*
X11303000Y-6882600D01*
X11253000Y-6832600D02*
X11353000Y-6832600D01*
X11303000Y-7036600D02*
X11303000Y-7136600D01*
X11253000Y-7086600D02*
X11353000Y-7086600D01*
X11303000Y-7290600D02*
X11303000Y-7390600D01*
X11253000Y-7340600D02*
X11353000Y-7340600D01*
X11303000Y-7544600D02*
X11303000Y-7644600D01*
X11253000Y-7594600D02*
X11353000Y-7594600D01*
X11303000Y-7798600D02*
X11303000Y-7898600D01*
X11253000Y-7848600D02*
X11353000Y-7848600D01*
X11303000Y-8052600D02*
X11303000Y-8152600D01*
X11253000Y-8102600D02*
X11353000Y-8102600D01*
X11303000Y-8306600D02*
X11303000Y-8406600D01*
X11253000Y-8356600D02*
X11353000Y-8356600D01*
X11303000Y-8560600D02*
X11303000Y-8660600D01*
X11253000Y-8610600D02*
X11353000Y-8610600D01*
X11303000Y-8814600D02*
X11303000Y-8914600D01*
X11253000Y-8864600D02*
X11353000Y-8864600D01*
X11303000Y-9068600D02*
X11303000Y-9168600D01*
X11253000Y-9118600D02*
X11353000Y-9118600D01*
X11480800Y-9856000D02*
X11480800Y-9956000D01*
X11430800Y-9906000D02*
X11530800Y-9906000D01*
X11480800Y-11126000D02*
X11480800Y-11226000D01*
X11430800Y-11176000D02*
X11530800Y-11176000D01*
X11734800Y-9856000D02*
X11734800Y-9956000D01*
X11684800Y-9906000D02*
X11784800Y-9906000D01*
X11734800Y-11126000D02*
X11734800Y-11226000D01*
X11684800Y-11176000D02*
X11784800Y-11176000D01*
X11988800Y-9856000D02*
X11988800Y-9956000D01*
X11938800Y-9906000D02*
X12038800Y-9906000D01*
X11988800Y-11126000D02*
X11988800Y-11226000D01*
X11938800Y-11176000D02*
X12038800Y-11176000D01*
X12242800Y-9856000D02*
X12242800Y-9956000D01*
X12192800Y-9906000D02*
X12292800Y-9906000D01*
X12242800Y-11126000D02*
X12242800Y-11226000D01*
X12192800Y-11176000D02*
X12292800Y-11176000D01*
X12496800Y-9856000D02*
X12496800Y-9956000D01*
X12446800Y-9906000D02*
X12546800Y-9906000D01*
X12496800Y-11126000D02*
X12496800Y-11226000D01*
X12446800Y-11176000D02*
X12546800Y-11176000D01*
X12750800Y-9856000D02*
X12750800Y-9956000D01*
X12700800Y-9906000D02*
X12800800Y-9906000D01*
X12750800Y-11126000D02*
X12750800Y-11226000D01*
X12700800Y-11176000D02*
X12800800Y-11176000D01*
X13004800Y-9856000D02*
X13004800Y-9956000D01*
X12954800Y-9906000D02*
X13054800Y-9906000D01*
X13004800Y-11126000D02*
X13004800Y-11226000D01*
X12954800Y-11176000D02*
X13054800Y-11176000D01*
X13258800Y-9856000D02*
X13258800Y-9956000D01*
X13208800Y-9906000D02*
X13308800Y-9906000D01*
X13258800Y-11126000D02*
X13258800Y-11226000D01*
X13208800Y-11176000D02*
X13308800Y-11176000D01*
X13589000Y-5512600D02*
X13589000Y-5612600D01*
X13539000Y-5562600D02*
X13639000Y-5562600D01*
X13589000Y-5766600D02*
X13589000Y-5866600D01*
X13539000Y-5816600D02*
X13639000Y-5816600D01*
X13589000Y-6020600D02*
X13589000Y-6120600D01*
X13539000Y-6070600D02*
X13639000Y-6070600D01*
X13589000Y-6274600D02*
X13589000Y-6374600D01*
X13539000Y-6324600D02*
X13639000Y-6324600D01*
X13589000Y-6528600D02*
X13589000Y-6628600D01*
X13539000Y-6578600D02*
X13639000Y-6578600D01*
X13589000Y-6782600D02*
X13589000Y-6882600D01*
X13539000Y-6832600D02*
X13639000Y-6832600D01*
X13589000Y-7036600D02*
X13589000Y-7136600D01*
X13539000Y-7086600D02*
X13639000Y-7086600D01*
X13589000Y-7290600D02*
X13589000Y-7390600D01*
X13539000Y-7340600D02*
X13639000Y-7340600D01*
X13589000Y-7544600D02*
X13589000Y-7644600D01*
X13539000Y-7594600D02*
X13639000Y-7594600D01*
X13589000Y-7798600D02*
X13589000Y-7898600D01*
X13539000Y-7848600D02*
X13639000Y-7848600D01*
X13589000Y-8052600D02*
X13589000Y-8152600D01*
X13539000Y-8102600D02*
X13639000Y-8102600D01*
X13589000Y-8306600D02*
X13589000Y-8406600D01*
X13539000Y-8356600D02*
X13639000Y-8356600D01*
X13589000Y-8560600D02*
X13589000Y-8660600D01*
X13539000Y-8610600D02*
X13639000Y-8610600D01*
X13589000Y-8814600D02*
X13589000Y-8914600D01*
X13539000Y-8864600D02*
X13639000Y-8864600D01*
X13589000Y-9068600D02*
X13589000Y-9168600D01*
X13539000Y-9118600D02*
X13639000Y-9118600D01*
X14147800Y-7951000D02*
X14147800Y-8051000D01*
X14097800Y-8001000D02*
X14197800Y-8001000D01*
X14452600Y-8890800D02*
X14452600Y-8990800D01*
X14402600Y-8940800D02*
X14502600Y-8940800D01*
X14452600Y-9140800D02*
X14452600Y-9240800D01*
X14402600Y-9190800D02*
X14502600Y-9190800D01*
X14452600Y-9830600D02*
X14452600Y-9930600D01*
X14402600Y-9880600D02*
X14502600Y-9880600D01*
X14452600Y-10080600D02*
X14452600Y-10180600D01*
X14402600Y-10130600D02*
X14502600Y-10130600D01*
X14452600Y-10770400D02*
X14452600Y-10870400D01*
X14402600Y-10820400D02*
X14502600Y-10820400D01*
X14452600Y-11020400D02*
X14452600Y-11120400D01*
X14402600Y-11070400D02*
X14502600Y-11070400D01*
X14647800Y-7951000D02*
X14647800Y-8051000D01*
X14597800Y-8001000D02*
X14697800Y-8001000D01*
X10329427Y-11828027D02*
X10329427Y-11743173D01*
X10244573Y-11743173D01*
X10244573Y-11828027D01*
X10329427Y-11828027D01*
X11345427Y-11828027D02*
X11345427Y-11743173D01*
X11260573Y-11743173D01*
X11260573Y-11828027D01*
X11345427Y-11828027D01*
X10216400Y-6973800D02*
X10281400Y-6908800D01*
X10216400Y-6843800D01*
X10151400Y-6908800D01*
X10216400Y-6973800D01*
X10566400Y-6973800D02*
X10631400Y-6908800D01*
X10566400Y-6843800D01*
X10501400Y-6908800D01*
X10566400Y-6973800D01*
X14178800Y-6923000D02*
X14243800Y-6858000D01*
X14178800Y-6793000D01*
X14113800Y-6858000D01*
X14178800Y-6923000D01*
X14528800Y-6923000D02*
X14593800Y-6858000D01*
X14528800Y-6793000D01*
X14463800Y-6858000D01*
X14528800Y-6923000D01*
D12*
X10085828Y-12713514D02*
X10085828Y-12413514D01*
X10157257Y-12413514D01*
X10200114Y-12427800D01*
X10228686Y-12456371D01*
X10242971Y-12484943D01*
X10257257Y-12542086D01*
X10257257Y-12584943D01*
X10242971Y-12642086D01*
X10228686Y-12670657D01*
X10200114Y-12699229D01*
X10157257Y-12713514D01*
X10085828Y-12713514D01*
X10385828Y-12713514D02*
X10385828Y-12513514D01*
X10385828Y-12570657D02*
X10400114Y-12542086D01*
X10414400Y-12527800D01*
X10442971Y-12513514D01*
X10471543Y-12513514D01*
X10571543Y-12713514D02*
X10571543Y-12513514D01*
X10571543Y-12413514D02*
X10557257Y-12427800D01*
X10571543Y-12442086D01*
X10585828Y-12427800D01*
X10571543Y-12413514D01*
X10571543Y-12442086D01*
X10757257Y-12713514D02*
X10728686Y-12699229D01*
X10714400Y-12670657D01*
X10714400Y-12413514D01*
X10914400Y-12713514D02*
X10885828Y-12699229D01*
X10871543Y-12670657D01*
X10871543Y-12413514D01*
X11257257Y-12713514D02*
X11257257Y-12413514D01*
X11357257Y-12627800D01*
X11457257Y-12413514D01*
X11457257Y-12713514D01*
X11728686Y-12713514D02*
X11728686Y-12556371D01*
X11714400Y-12527800D01*
X11685828Y-12513514D01*
X11628686Y-12513514D01*
X11600114Y-12527800D01*
X11728686Y-12699229D02*
X11700114Y-12713514D01*
X11628686Y-12713514D01*
X11600114Y-12699229D01*
X11585828Y-12670657D01*
X11585828Y-12642086D01*
X11600114Y-12613514D01*
X11628686Y-12599229D01*
X11700114Y-12599229D01*
X11728686Y-12584943D01*
X11871543Y-12513514D02*
X11871543Y-12813514D01*
X11871543Y-12527800D02*
X11900114Y-12513514D01*
X11957257Y-12513514D01*
X11985828Y-12527800D01*
X12000114Y-12542086D01*
X12014400Y-12570657D01*
X12014400Y-12656371D01*
X12000114Y-12684943D01*
X11985828Y-12699229D01*
X11957257Y-12713514D01*
X11900114Y-12713514D01*
X11871543Y-12699229D01*
X12142971Y-12684943D02*
X12157257Y-12699229D01*
X12142971Y-12713514D01*
X12128686Y-12699229D01*
X12142971Y-12684943D01*
X12142971Y-12713514D01*
X12142971Y-12527800D02*
X12157257Y-12542086D01*
X12142971Y-12556371D01*
X12128686Y-12542086D01*
X12142971Y-12527800D01*
X12142971Y-12556371D01*
X9729400Y-13172800D02*
X9799400Y-13242800D01*
X9799400Y-13172800D02*
X9729400Y-13242800D01*
X10142971Y-13043514D02*
X10171543Y-13043514D01*
X10200114Y-13057800D01*
X10214400Y-13072086D01*
X10228686Y-13100657D01*
X10242971Y-13157800D01*
X10242971Y-13229229D01*
X10228686Y-13286371D01*
X10214400Y-13314943D01*
X10200114Y-13329229D01*
X10171543Y-13343514D01*
X10142971Y-13343514D01*
X10114400Y-13329229D01*
X10100114Y-13314943D01*
X10085828Y-13286371D01*
X10071543Y-13229229D01*
X10071543Y-13157800D01*
X10085828Y-13100657D01*
X10100114Y-13072086D01*
X10114400Y-13057800D01*
X10142971Y-13043514D01*
X10371543Y-13314943D02*
X10385828Y-13329229D01*
X10371543Y-13343514D01*
X10357257Y-13329229D01*
X10371543Y-13314943D01*
X10371543Y-13343514D01*
X10485828Y-13043514D02*
X10685828Y-13043514D01*
X10557257Y-13343514D01*
X10857257Y-13043514D02*
X10885828Y-13043514D01*
X10914400Y-13057800D01*
X10928686Y-13072086D01*
X10942971Y-13100657D01*
X10957257Y-13157800D01*
X10957257Y-13229229D01*
X10942971Y-13286371D01*
X10928686Y-13314943D01*
X10914400Y-13329229D01*
X10885828Y-13343514D01*
X10857257Y-13343514D01*
X10828686Y-13329229D01*
X10814400Y-13314943D01*
X10800114Y-13286371D01*
X10785828Y-13229229D01*
X10785828Y-13157800D01*
X10800114Y-13100657D01*
X10814400Y-13072086D01*
X10828686Y-13057800D01*
X10857257Y-13043514D01*
X11142971Y-13043514D02*
X11171543Y-13043514D01*
X11200114Y-13057800D01*
X11214400Y-13072086D01*
X11228686Y-13100657D01*
X11242971Y-13157800D01*
X11242971Y-13229229D01*
X11228686Y-13286371D01*
X11214400Y-13314943D01*
X11200114Y-13329229D01*
X11171543Y-13343514D01*
X11142971Y-13343514D01*
X11114400Y-13329229D01*
X11100114Y-13314943D01*
X11085828Y-13286371D01*
X11071543Y-13229229D01*
X11071543Y-13157800D01*
X11085828Y-13100657D01*
X11100114Y-13072086D01*
X11114400Y-13057800D01*
X11142971Y-13043514D01*
X11371543Y-13343514D02*
X11371543Y-13143514D01*
X11371543Y-13172086D02*
X11385828Y-13157800D01*
X11414400Y-13143514D01*
X11457257Y-13143514D01*
X11485828Y-13157800D01*
X11500114Y-13186371D01*
X11500114Y-13343514D01*
X11500114Y-13186371D02*
X11514400Y-13157800D01*
X11542971Y-13143514D01*
X11585828Y-13143514D01*
X11614400Y-13157800D01*
X11628686Y-13186371D01*
X11628686Y-13343514D01*
X11771543Y-13343514D02*
X11771543Y-13143514D01*
X11771543Y-13172086D02*
X11785828Y-13157800D01*
X11814400Y-13143514D01*
X11857257Y-13143514D01*
X11885828Y-13157800D01*
X11900114Y-13186371D01*
X11900114Y-13343514D01*
X11900114Y-13186371D02*
X11914400Y-13157800D01*
X11942971Y-13143514D01*
X11985828Y-13143514D01*
X12014400Y-13157800D01*
X12028686Y-13186371D01*
X12028686Y-13343514D01*
X12614400Y-13029229D02*
X12357257Y-13414943D01*
X13000114Y-13043514D02*
X13028686Y-13043514D01*
X13057257Y-13057800D01*
X13071543Y-13072086D01*
X13085828Y-13100657D01*
X13100114Y-13157800D01*
X13100114Y-13229229D01*
X13085828Y-13286371D01*
X13071543Y-13314943D01*
X13057257Y-13329229D01*
X13028686Y-13343514D01*
X13000114Y-13343514D01*
X12971543Y-13329229D01*
X12957257Y-13314943D01*
X12942971Y-13286371D01*
X12928686Y-13229229D01*
X12928686Y-13157800D01*
X12942971Y-13100657D01*
X12957257Y-13072086D01*
X12971543Y-13057800D01*
X13000114Y-13043514D01*
X13228686Y-13314943D02*
X13242971Y-13329229D01*
X13228686Y-13343514D01*
X13214400Y-13329229D01*
X13228686Y-13314943D01*
X13228686Y-13343514D01*
X13428686Y-13043514D02*
X13457257Y-13043514D01*
X13485828Y-13057800D01*
X13500114Y-13072086D01*
X13514400Y-13100657D01*
X13528686Y-13157800D01*
X13528686Y-13229229D01*
X13514400Y-13286371D01*
X13500114Y-13314943D01*
X13485828Y-13329229D01*
X13457257Y-13343514D01*
X13428686Y-13343514D01*
X13400114Y-13329229D01*
X13385828Y-13314943D01*
X13371543Y-13286371D01*
X13357257Y-13229229D01*
X13357257Y-13157800D01*
X13371543Y-13100657D01*
X13385828Y-13072086D01*
X13400114Y-13057800D01*
X13428686Y-13043514D01*
X13642971Y-13072086D02*
X13657257Y-13057800D01*
X13685828Y-13043514D01*
X13757257Y-13043514D01*
X13785828Y-13057800D01*
X13800114Y-13072086D01*
X13814400Y-13100657D01*
X13814400Y-13129229D01*
X13800114Y-13172086D01*
X13628686Y-13343514D01*
X13814400Y-13343514D01*
X13914400Y-13043514D02*
X14114400Y-13043514D01*
X13985828Y-13343514D01*
X14357257Y-13043514D02*
X14300114Y-13043514D01*
X14271543Y-13057800D01*
X14257257Y-13072086D01*
X14228686Y-13114943D01*
X14214400Y-13172086D01*
X14214400Y-13286371D01*
X14228686Y-13314943D01*
X14242971Y-13329229D01*
X14271543Y-13343514D01*
X14328686Y-13343514D01*
X14357257Y-13329229D01*
X14371543Y-13314943D01*
X14385828Y-13286371D01*
X14385828Y-13214943D01*
X14371543Y-13186371D01*
X14357257Y-13172086D01*
X14328686Y-13157800D01*
X14271543Y-13157800D01*
X14242971Y-13172086D01*
X14228686Y-13186371D01*
X14214400Y-13214943D01*
X14500114Y-13043514D02*
X14500114Y-13100657D01*
X14614400Y-13043514D02*
X14614400Y-13100657D01*
X15057257Y-13457800D02*
X15042971Y-13443514D01*
X15014400Y-13400657D01*
X15000114Y-13372086D01*
X14985828Y-13329229D01*
X14971543Y-13257800D01*
X14971543Y-13200657D01*
X14985828Y-13129229D01*
X15000114Y-13086371D01*
X15014400Y-13057800D01*
X15042971Y-13014943D01*
X15057257Y-13000657D01*
X15157257Y-13072086D02*
X15171543Y-13057800D01*
X15200114Y-13043514D01*
X15271543Y-13043514D01*
X15300114Y-13057800D01*
X15314400Y-13072086D01*
X15328686Y-13100657D01*
X15328686Y-13129229D01*
X15314400Y-13172086D01*
X15142971Y-13343514D01*
X15328686Y-13343514D01*
X15685828Y-13343514D02*
X15685828Y-13043514D01*
X15814400Y-13343514D02*
X15814400Y-13186371D01*
X15800114Y-13157800D01*
X15771543Y-13143514D01*
X15728686Y-13143514D01*
X15700114Y-13157800D01*
X15685828Y-13172086D01*
X16000114Y-13343514D02*
X15971543Y-13329229D01*
X15957257Y-13314943D01*
X15942971Y-13286371D01*
X15942971Y-13200657D01*
X15957257Y-13172086D01*
X15971543Y-13157800D01*
X16000114Y-13143514D01*
X16042971Y-13143514D01*
X16071543Y-13157800D01*
X16085828Y-13172086D01*
X16100114Y-13200657D01*
X16100114Y-13286371D01*
X16085828Y-13314943D01*
X16071543Y-13329229D01*
X16042971Y-13343514D01*
X16000114Y-13343514D01*
X16271543Y-13343514D02*
X16242971Y-13329229D01*
X16228686Y-13300657D01*
X16228686Y-13043514D01*
X16500114Y-13329229D02*
X16471543Y-13343514D01*
X16414400Y-13343514D01*
X16385828Y-13329229D01*
X16371543Y-13300657D01*
X16371543Y-13186371D01*
X16385828Y-13157800D01*
X16414400Y-13143514D01*
X16471543Y-13143514D01*
X16500114Y-13157800D01*
X16514400Y-13186371D01*
X16514400Y-13214943D01*
X16371543Y-13243514D01*
X16628686Y-13329229D02*
X16657257Y-13343514D01*
X16714400Y-13343514D01*
X16742971Y-13329229D01*
X16757257Y-13300657D01*
X16757257Y-13286371D01*
X16742971Y-13257800D01*
X16714400Y-13243514D01*
X16671543Y-13243514D01*
X16642971Y-13229229D01*
X16628686Y-13200657D01*
X16628686Y-13186371D01*
X16642971Y-13157800D01*
X16671543Y-13143514D01*
X16714400Y-13143514D01*
X16742971Y-13157800D01*
X16857257Y-13457800D02*
X16871543Y-13443514D01*
X16900114Y-13400657D01*
X16914400Y-13372086D01*
X16928686Y-13329229D01*
X16942971Y-13257800D01*
X16942971Y-13200657D01*
X16928686Y-13129229D01*
X16914400Y-13086371D01*
X16900114Y-13057800D01*
X16871543Y-13014943D01*
X16857257Y-13000657D01*
X9799400Y-13603800D02*
G75*
G03*
X9799400Y-13603800I-47500J0D01*
G01*
X10142971Y-13439514D02*
X10171543Y-13439514D01*
X10200114Y-13453800D01*
X10214400Y-13468086D01*
X10228686Y-13496657D01*
X10242971Y-13553800D01*
X10242971Y-13625229D01*
X10228686Y-13682371D01*
X10214400Y-13710943D01*
X10200114Y-13725229D01*
X10171543Y-13739514D01*
X10142971Y-13739514D01*
X10114400Y-13725229D01*
X10100114Y-13710943D01*
X10085828Y-13682371D01*
X10071543Y-13625229D01*
X10071543Y-13553800D01*
X10085828Y-13496657D01*
X10100114Y-13468086D01*
X10114400Y-13453800D01*
X10142971Y-13439514D01*
X10371543Y-13710943D02*
X10385828Y-13725229D01*
X10371543Y-13739514D01*
X10357257Y-13725229D01*
X10371543Y-13710943D01*
X10371543Y-13739514D01*
X10528686Y-13739514D02*
X10585828Y-13739514D01*
X10614400Y-13725229D01*
X10628686Y-13710943D01*
X10657257Y-13668086D01*
X10671543Y-13610943D01*
X10671543Y-13496657D01*
X10657257Y-13468086D01*
X10642971Y-13453800D01*
X10614400Y-13439514D01*
X10557257Y-13439514D01*
X10528686Y-13453800D01*
X10514400Y-13468086D01*
X10500114Y-13496657D01*
X10500114Y-13568086D01*
X10514400Y-13596657D01*
X10528686Y-13610943D01*
X10557257Y-13625229D01*
X10614400Y-13625229D01*
X10642971Y-13610943D01*
X10657257Y-13596657D01*
X10671543Y-13568086D01*
X10942971Y-13439514D02*
X10800114Y-13439514D01*
X10785828Y-13582371D01*
X10800114Y-13568086D01*
X10828686Y-13553800D01*
X10900114Y-13553800D01*
X10928686Y-13568086D01*
X10942971Y-13582371D01*
X10957257Y-13610943D01*
X10957257Y-13682371D01*
X10942971Y-13710943D01*
X10928686Y-13725229D01*
X10900114Y-13739514D01*
X10828686Y-13739514D01*
X10800114Y-13725229D01*
X10785828Y-13710943D01*
X11142971Y-13439514D02*
X11171543Y-13439514D01*
X11200114Y-13453800D01*
X11214400Y-13468086D01*
X11228686Y-13496657D01*
X11242971Y-13553800D01*
X11242971Y-13625229D01*
X11228686Y-13682371D01*
X11214400Y-13710943D01*
X11200114Y-13725229D01*
X11171543Y-13739514D01*
X11142971Y-13739514D01*
X11114400Y-13725229D01*
X11100114Y-13710943D01*
X11085828Y-13682371D01*
X11071543Y-13625229D01*
X11071543Y-13553800D01*
X11085828Y-13496657D01*
X11100114Y-13468086D01*
X11114400Y-13453800D01*
X11142971Y-13439514D01*
X11371543Y-13739514D02*
X11371543Y-13539514D01*
X11371543Y-13568086D02*
X11385828Y-13553800D01*
X11414400Y-13539514D01*
X11457257Y-13539514D01*
X11485828Y-13553800D01*
X11500114Y-13582371D01*
X11500114Y-13739514D01*
X11500114Y-13582371D02*
X11514400Y-13553800D01*
X11542971Y-13539514D01*
X11585828Y-13539514D01*
X11614400Y-13553800D01*
X11628686Y-13582371D01*
X11628686Y-13739514D01*
X11771543Y-13739514D02*
X11771543Y-13539514D01*
X11771543Y-13568086D02*
X11785828Y-13553800D01*
X11814400Y-13539514D01*
X11857257Y-13539514D01*
X11885828Y-13553800D01*
X11900114Y-13582371D01*
X11900114Y-13739514D01*
X11900114Y-13582371D02*
X11914400Y-13553800D01*
X11942971Y-13539514D01*
X11985828Y-13539514D01*
X12014400Y-13553800D01*
X12028686Y-13582371D01*
X12028686Y-13739514D01*
X12614400Y-13425229D02*
X12357257Y-13810943D01*
X13000114Y-13439514D02*
X13028686Y-13439514D01*
X13057257Y-13453800D01*
X13071543Y-13468086D01*
X13085828Y-13496657D01*
X13100114Y-13553800D01*
X13100114Y-13625229D01*
X13085828Y-13682371D01*
X13071543Y-13710943D01*
X13057257Y-13725229D01*
X13028686Y-13739514D01*
X13000114Y-13739514D01*
X12971543Y-13725229D01*
X12957257Y-13710943D01*
X12942971Y-13682371D01*
X12928686Y-13625229D01*
X12928686Y-13553800D01*
X12942971Y-13496657D01*
X12957257Y-13468086D01*
X12971543Y-13453800D01*
X13000114Y-13439514D01*
X13228686Y-13710943D02*
X13242971Y-13725229D01*
X13228686Y-13739514D01*
X13214400Y-13725229D01*
X13228686Y-13710943D01*
X13228686Y-13739514D01*
X13428686Y-13439514D02*
X13457257Y-13439514D01*
X13485828Y-13453800D01*
X13500114Y-13468086D01*
X13514400Y-13496657D01*
X13528686Y-13553800D01*
X13528686Y-13625229D01*
X13514400Y-13682371D01*
X13500114Y-13710943D01*
X13485828Y-13725229D01*
X13457257Y-13739514D01*
X13428686Y-13739514D01*
X13400114Y-13725229D01*
X13385828Y-13710943D01*
X13371543Y-13682371D01*
X13357257Y-13625229D01*
X13357257Y-13553800D01*
X13371543Y-13496657D01*
X13385828Y-13468086D01*
X13400114Y-13453800D01*
X13428686Y-13439514D01*
X13628686Y-13439514D02*
X13814400Y-13439514D01*
X13714400Y-13553800D01*
X13757257Y-13553800D01*
X13785828Y-13568086D01*
X13800114Y-13582371D01*
X13814400Y-13610943D01*
X13814400Y-13682371D01*
X13800114Y-13710943D01*
X13785828Y-13725229D01*
X13757257Y-13739514D01*
X13671543Y-13739514D01*
X13642971Y-13725229D01*
X13628686Y-13710943D01*
X13914400Y-13439514D02*
X14114400Y-13439514D01*
X13985828Y-13739514D01*
X14357257Y-13539514D02*
X14357257Y-13739514D01*
X14285828Y-13425229D02*
X14214400Y-13639514D01*
X14400114Y-13639514D01*
X14500114Y-13439514D02*
X14500114Y-13496657D01*
X14614400Y-13439514D02*
X14614400Y-13496657D01*
X15057257Y-13853800D02*
X15042971Y-13839514D01*
X15014400Y-13796657D01*
X15000114Y-13768086D01*
X14985828Y-13725229D01*
X14971543Y-13653800D01*
X14971543Y-13596657D01*
X14985828Y-13525229D01*
X15000114Y-13482371D01*
X15014400Y-13453800D01*
X15042971Y-13410943D01*
X15057257Y-13396657D01*
X15300114Y-13539514D02*
X15300114Y-13739514D01*
X15228686Y-13425229D02*
X15157257Y-13639514D01*
X15342971Y-13639514D01*
X15685828Y-13739514D02*
X15685828Y-13439514D01*
X15814400Y-13739514D02*
X15814400Y-13582371D01*
X15800114Y-13553800D01*
X15771543Y-13539514D01*
X15728686Y-13539514D01*
X15700114Y-13553800D01*
X15685828Y-13568086D01*
X16000114Y-13739514D02*
X15971543Y-13725229D01*
X15957257Y-13710943D01*
X15942971Y-13682371D01*
X15942971Y-13596657D01*
X15957257Y-13568086D01*
X15971543Y-13553800D01*
X16000114Y-13539514D01*
X16042971Y-13539514D01*
X16071543Y-13553800D01*
X16085828Y-13568086D01*
X16100114Y-13596657D01*
X16100114Y-13682371D01*
X16085828Y-13710943D01*
X16071543Y-13725229D01*
X16042971Y-13739514D01*
X16000114Y-13739514D01*
X16271543Y-13739514D02*
X16242971Y-13725229D01*
X16228686Y-13696657D01*
X16228686Y-13439514D01*
X16500114Y-13725229D02*
X16471543Y-13739514D01*
X16414400Y-13739514D01*
X16385828Y-13725229D01*
X16371543Y-13696657D01*
X16371543Y-13582371D01*
X16385828Y-13553800D01*
X16414400Y-13539514D01*
X16471543Y-13539514D01*
X16500114Y-13553800D01*
X16514400Y-13582371D01*
X16514400Y-13610943D01*
X16371543Y-13639514D01*
X16628686Y-13725229D02*
X16657257Y-13739514D01*
X16714400Y-13739514D01*
X16742971Y-13725229D01*
X16757257Y-13696657D01*
X16757257Y-13682371D01*
X16742971Y-13653800D01*
X16714400Y-13639514D01*
X16671543Y-13639514D01*
X16642971Y-13625229D01*
X16628686Y-13596657D01*
X16628686Y-13582371D01*
X16642971Y-13553800D01*
X16671543Y-13539514D01*
X16714400Y-13539514D01*
X16742971Y-13553800D01*
X16857257Y-13853800D02*
X16871543Y-13839514D01*
X16900114Y-13796657D01*
X16914400Y-13768086D01*
X16928686Y-13725229D01*
X16942971Y-13653800D01*
X16942971Y-13596657D01*
X16928686Y-13525229D01*
X16914400Y-13482371D01*
X16900114Y-13453800D01*
X16871543Y-13410943D01*
X16857257Y-13396657D01*
X9749400Y-13949800D02*
X9749400Y-14049800D01*
X9699400Y-13999800D02*
X9799400Y-13999800D01*
X10242971Y-14135514D02*
X10071543Y-14135514D01*
X10157257Y-14135514D02*
X10157257Y-13835514D01*
X10128686Y-13878371D01*
X10100114Y-13906943D01*
X10071543Y-13921229D01*
X10371543Y-14106943D02*
X10385828Y-14121229D01*
X10371543Y-14135514D01*
X10357257Y-14121229D01*
X10371543Y-14106943D01*
X10371543Y-14135514D01*
X10571543Y-13835514D02*
X10600114Y-13835514D01*
X10628686Y-13849800D01*
X10642971Y-13864086D01*
X10657257Y-13892657D01*
X10671543Y-13949800D01*
X10671543Y-14021229D01*
X10657257Y-14078371D01*
X10642971Y-14106943D01*
X10628686Y-14121229D01*
X10600114Y-14135514D01*
X10571543Y-14135514D01*
X10542971Y-14121229D01*
X10528686Y-14106943D01*
X10514400Y-14078371D01*
X10500114Y-14021229D01*
X10500114Y-13949800D01*
X10514400Y-13892657D01*
X10528686Y-13864086D01*
X10542971Y-13849800D01*
X10571543Y-13835514D01*
X10857257Y-13835514D02*
X10885828Y-13835514D01*
X10914400Y-13849800D01*
X10928686Y-13864086D01*
X10942971Y-13892657D01*
X10957257Y-13949800D01*
X10957257Y-14021229D01*
X10942971Y-14078371D01*
X10928686Y-14106943D01*
X10914400Y-14121229D01*
X10885828Y-14135514D01*
X10857257Y-14135514D01*
X10828686Y-14121229D01*
X10814400Y-14106943D01*
X10800114Y-14078371D01*
X10785828Y-14021229D01*
X10785828Y-13949800D01*
X10800114Y-13892657D01*
X10814400Y-13864086D01*
X10828686Y-13849800D01*
X10857257Y-13835514D01*
X11142971Y-13835514D02*
X11171543Y-13835514D01*
X11200114Y-13849800D01*
X11214400Y-13864086D01*
X11228686Y-13892657D01*
X11242971Y-13949800D01*
X11242971Y-14021229D01*
X11228686Y-14078371D01*
X11214400Y-14106943D01*
X11200114Y-14121229D01*
X11171543Y-14135514D01*
X11142971Y-14135514D01*
X11114400Y-14121229D01*
X11100114Y-14106943D01*
X11085828Y-14078371D01*
X11071543Y-14021229D01*
X11071543Y-13949800D01*
X11085828Y-13892657D01*
X11100114Y-13864086D01*
X11114400Y-13849800D01*
X11142971Y-13835514D01*
X11371543Y-14135514D02*
X11371543Y-13935514D01*
X11371543Y-13964086D02*
X11385828Y-13949800D01*
X11414400Y-13935514D01*
X11457257Y-13935514D01*
X11485828Y-13949800D01*
X11500114Y-13978371D01*
X11500114Y-14135514D01*
X11500114Y-13978371D02*
X11514400Y-13949800D01*
X11542971Y-13935514D01*
X11585828Y-13935514D01*
X11614400Y-13949800D01*
X11628686Y-13978371D01*
X11628686Y-14135514D01*
X11771543Y-14135514D02*
X11771543Y-13935514D01*
X11771543Y-13964086D02*
X11785828Y-13949800D01*
X11814400Y-13935514D01*
X11857257Y-13935514D01*
X11885828Y-13949800D01*
X11900114Y-13978371D01*
X11900114Y-14135514D01*
X11900114Y-13978371D02*
X11914400Y-13949800D01*
X11942971Y-13935514D01*
X11985828Y-13935514D01*
X12014400Y-13949800D01*
X12028686Y-13978371D01*
X12028686Y-14135514D01*
X12614400Y-13821229D02*
X12357257Y-14206943D01*
X13000114Y-13835514D02*
X13028686Y-13835514D01*
X13057257Y-13849800D01*
X13071543Y-13864086D01*
X13085828Y-13892657D01*
X13100114Y-13949800D01*
X13100114Y-14021229D01*
X13085828Y-14078371D01*
X13071543Y-14106943D01*
X13057257Y-14121229D01*
X13028686Y-14135514D01*
X13000114Y-14135514D01*
X12971543Y-14121229D01*
X12957257Y-14106943D01*
X12942971Y-14078371D01*
X12928686Y-14021229D01*
X12928686Y-13949800D01*
X12942971Y-13892657D01*
X12957257Y-13864086D01*
X12971543Y-13849800D01*
X13000114Y-13835514D01*
X13228686Y-14106943D02*
X13242971Y-14121229D01*
X13228686Y-14135514D01*
X13214400Y-14121229D01*
X13228686Y-14106943D01*
X13228686Y-14135514D01*
X13428686Y-13835514D02*
X13457257Y-13835514D01*
X13485828Y-13849800D01*
X13500114Y-13864086D01*
X13514400Y-13892657D01*
X13528686Y-13949800D01*
X13528686Y-14021229D01*
X13514400Y-14078371D01*
X13500114Y-14106943D01*
X13485828Y-14121229D01*
X13457257Y-14135514D01*
X13428686Y-14135514D01*
X13400114Y-14121229D01*
X13385828Y-14106943D01*
X13371543Y-14078371D01*
X13357257Y-14021229D01*
X13357257Y-13949800D01*
X13371543Y-13892657D01*
X13385828Y-13864086D01*
X13400114Y-13849800D01*
X13428686Y-13835514D01*
X13628686Y-13835514D02*
X13814400Y-13835514D01*
X13714400Y-13949800D01*
X13757257Y-13949800D01*
X13785828Y-13964086D01*
X13800114Y-13978371D01*
X13814400Y-14006943D01*
X13814400Y-14078371D01*
X13800114Y-14106943D01*
X13785828Y-14121229D01*
X13757257Y-14135514D01*
X13671543Y-14135514D01*
X13642971Y-14121229D01*
X13628686Y-14106943D01*
X13957257Y-14135514D02*
X14014400Y-14135514D01*
X14042971Y-14121229D01*
X14057257Y-14106943D01*
X14085828Y-14064086D01*
X14100114Y-14006943D01*
X14100114Y-13892657D01*
X14085828Y-13864086D01*
X14071543Y-13849800D01*
X14042971Y-13835514D01*
X13985828Y-13835514D01*
X13957257Y-13849800D01*
X13942971Y-13864086D01*
X13928686Y-13892657D01*
X13928686Y-13964086D01*
X13942971Y-13992657D01*
X13957257Y-14006943D01*
X13985828Y-14021229D01*
X14042971Y-14021229D01*
X14071543Y-14006943D01*
X14085828Y-13992657D01*
X14100114Y-13964086D01*
X14357257Y-13935514D02*
X14357257Y-14135514D01*
X14285828Y-13821229D02*
X14214400Y-14035514D01*
X14400114Y-14035514D01*
X14500114Y-13835514D02*
X14500114Y-13892657D01*
X14614400Y-13835514D02*
X14614400Y-13892657D01*
X15057257Y-14249800D02*
X15042971Y-14235514D01*
X15014400Y-14192657D01*
X15000114Y-14164086D01*
X14985828Y-14121229D01*
X14971543Y-14049800D01*
X14971543Y-13992657D01*
X14985828Y-13921229D01*
X15000114Y-13878371D01*
X15014400Y-13849800D01*
X15042971Y-13806943D01*
X15057257Y-13792657D01*
X15314400Y-13835514D02*
X15171543Y-13835514D01*
X15157257Y-13978371D01*
X15171543Y-13964086D01*
X15200114Y-13949800D01*
X15271543Y-13949800D01*
X15300114Y-13964086D01*
X15314400Y-13978371D01*
X15328686Y-14006943D01*
X15328686Y-14078371D01*
X15314400Y-14106943D01*
X15300114Y-14121229D01*
X15271543Y-14135514D01*
X15200114Y-14135514D01*
X15171543Y-14121229D01*
X15157257Y-14106943D01*
X15500114Y-13964086D02*
X15471543Y-13949800D01*
X15457257Y-13935514D01*
X15442971Y-13906943D01*
X15442971Y-13892657D01*
X15457257Y-13864086D01*
X15471543Y-13849800D01*
X15500114Y-13835514D01*
X15557257Y-13835514D01*
X15585828Y-13849800D01*
X15600114Y-13864086D01*
X15614400Y-13892657D01*
X15614400Y-13906943D01*
X15600114Y-13935514D01*
X15585828Y-13949800D01*
X15557257Y-13964086D01*
X15500114Y-13964086D01*
X15471543Y-13978371D01*
X15457257Y-13992657D01*
X15442971Y-14021229D01*
X15442971Y-14078371D01*
X15457257Y-14106943D01*
X15471543Y-14121229D01*
X15500114Y-14135514D01*
X15557257Y-14135514D01*
X15585828Y-14121229D01*
X15600114Y-14106943D01*
X15614400Y-14078371D01*
X15614400Y-14021229D01*
X15600114Y-13992657D01*
X15585828Y-13978371D01*
X15557257Y-13964086D01*
X15971543Y-14135514D02*
X15971543Y-13835514D01*
X16100114Y-14135514D02*
X16100114Y-13978371D01*
X16085828Y-13949800D01*
X16057257Y-13935514D01*
X16014400Y-13935514D01*
X15985828Y-13949800D01*
X15971543Y-13964086D01*
X16285828Y-14135514D02*
X16257257Y-14121229D01*
X16242971Y-14106943D01*
X16228686Y-14078371D01*
X16228686Y-13992657D01*
X16242971Y-13964086D01*
X16257257Y-13949800D01*
X16285828Y-13935514D01*
X16328686Y-13935514D01*
X16357257Y-13949800D01*
X16371543Y-13964086D01*
X16385828Y-13992657D01*
X16385828Y-14078371D01*
X16371543Y-14106943D01*
X16357257Y-14121229D01*
X16328686Y-14135514D01*
X16285828Y-14135514D01*
X16557257Y-14135514D02*
X16528686Y-14121229D01*
X16514400Y-14092657D01*
X16514400Y-13835514D01*
X16785828Y-14121229D02*
X16757257Y-14135514D01*
X16700114Y-14135514D01*
X16671543Y-14121229D01*
X16657257Y-14092657D01*
X16657257Y-13978371D01*
X16671543Y-13949800D01*
X16700114Y-13935514D01*
X16757257Y-13935514D01*
X16785828Y-13949800D01*
X16800114Y-13978371D01*
X16800114Y-14006943D01*
X16657257Y-14035514D01*
X16914400Y-14121229D02*
X16942971Y-14135514D01*
X17000114Y-14135514D01*
X17028686Y-14121229D01*
X17042971Y-14092657D01*
X17042971Y-14078371D01*
X17028686Y-14049800D01*
X17000114Y-14035514D01*
X16957257Y-14035514D01*
X16928686Y-14021229D01*
X16914400Y-13992657D01*
X16914400Y-13978371D01*
X16928686Y-13949800D01*
X16957257Y-13935514D01*
X17000114Y-13935514D01*
X17028686Y-13949800D01*
X17142971Y-14249800D02*
X17157257Y-14235514D01*
X17185828Y-14192657D01*
X17200114Y-14164086D01*
X17214400Y-14121229D01*
X17228686Y-14049800D01*
X17228686Y-13992657D01*
X17214400Y-13921229D01*
X17200114Y-13878371D01*
X17185828Y-13849800D01*
X17157257Y-13806943D01*
X17142971Y-13792657D01*
X9781827Y-14438227D02*
X9781827Y-14353373D01*
X9696973Y-14353373D01*
X9696973Y-14438227D01*
X9781827Y-14438227D01*
X10242971Y-14531514D02*
X10071543Y-14531514D01*
X10157257Y-14531514D02*
X10157257Y-14231514D01*
X10128686Y-14274371D01*
X10100114Y-14302943D01*
X10071543Y-14317229D01*
X10371543Y-14502943D02*
X10385828Y-14517229D01*
X10371543Y-14531514D01*
X10357257Y-14517229D01*
X10371543Y-14502943D01*
X10371543Y-14531514D01*
X10500114Y-14260086D02*
X10514400Y-14245800D01*
X10542971Y-14231514D01*
X10614400Y-14231514D01*
X10642971Y-14245800D01*
X10657257Y-14260086D01*
X10671543Y-14288657D01*
X10671543Y-14317229D01*
X10657257Y-14360086D01*
X10485828Y-14531514D01*
X10671543Y-14531514D01*
X10857257Y-14231514D02*
X10885828Y-14231514D01*
X10914400Y-14245800D01*
X10928686Y-14260086D01*
X10942971Y-14288657D01*
X10957257Y-14345800D01*
X10957257Y-14417229D01*
X10942971Y-14474371D01*
X10928686Y-14502943D01*
X10914400Y-14517229D01*
X10885828Y-14531514D01*
X10857257Y-14531514D01*
X10828686Y-14517229D01*
X10814400Y-14502943D01*
X10800114Y-14474371D01*
X10785828Y-14417229D01*
X10785828Y-14345800D01*
X10800114Y-14288657D01*
X10814400Y-14260086D01*
X10828686Y-14245800D01*
X10857257Y-14231514D01*
X11142971Y-14231514D02*
X11171543Y-14231514D01*
X11200114Y-14245800D01*
X11214400Y-14260086D01*
X11228686Y-14288657D01*
X11242971Y-14345800D01*
X11242971Y-14417229D01*
X11228686Y-14474371D01*
X11214400Y-14502943D01*
X11200114Y-14517229D01*
X11171543Y-14531514D01*
X11142971Y-14531514D01*
X11114400Y-14517229D01*
X11100114Y-14502943D01*
X11085828Y-14474371D01*
X11071543Y-14417229D01*
X11071543Y-14345800D01*
X11085828Y-14288657D01*
X11100114Y-14260086D01*
X11114400Y-14245800D01*
X11142971Y-14231514D01*
X11371543Y-14531514D02*
X11371543Y-14331514D01*
X11371543Y-14360086D02*
X11385828Y-14345800D01*
X11414400Y-14331514D01*
X11457257Y-14331514D01*
X11485828Y-14345800D01*
X11500114Y-14374371D01*
X11500114Y-14531514D01*
X11500114Y-14374371D02*
X11514400Y-14345800D01*
X11542971Y-14331514D01*
X11585828Y-14331514D01*
X11614400Y-14345800D01*
X11628686Y-14374371D01*
X11628686Y-14531514D01*
X11771543Y-14531514D02*
X11771543Y-14331514D01*
X11771543Y-14360086D02*
X11785828Y-14345800D01*
X11814400Y-14331514D01*
X11857257Y-14331514D01*
X11885828Y-14345800D01*
X11900114Y-14374371D01*
X11900114Y-14531514D01*
X11900114Y-14374371D02*
X11914400Y-14345800D01*
X11942971Y-14331514D01*
X11985828Y-14331514D01*
X12014400Y-14345800D01*
X12028686Y-14374371D01*
X12028686Y-14531514D01*
X12614400Y-14217229D02*
X12357257Y-14602943D01*
X13000114Y-14231514D02*
X13028686Y-14231514D01*
X13057257Y-14245800D01*
X13071543Y-14260086D01*
X13085828Y-14288657D01*
X13100114Y-14345800D01*
X13100114Y-14417229D01*
X13085828Y-14474371D01*
X13071543Y-14502943D01*
X13057257Y-14517229D01*
X13028686Y-14531514D01*
X13000114Y-14531514D01*
X12971543Y-14517229D01*
X12957257Y-14502943D01*
X12942971Y-14474371D01*
X12928686Y-14417229D01*
X12928686Y-14345800D01*
X12942971Y-14288657D01*
X12957257Y-14260086D01*
X12971543Y-14245800D01*
X13000114Y-14231514D01*
X13228686Y-14502943D02*
X13242971Y-14517229D01*
X13228686Y-14531514D01*
X13214400Y-14517229D01*
X13228686Y-14502943D01*
X13228686Y-14531514D01*
X13428686Y-14231514D02*
X13457257Y-14231514D01*
X13485828Y-14245800D01*
X13500114Y-14260086D01*
X13514400Y-14288657D01*
X13528686Y-14345800D01*
X13528686Y-14417229D01*
X13514400Y-14474371D01*
X13500114Y-14502943D01*
X13485828Y-14517229D01*
X13457257Y-14531514D01*
X13428686Y-14531514D01*
X13400114Y-14517229D01*
X13385828Y-14502943D01*
X13371543Y-14474371D01*
X13357257Y-14417229D01*
X13357257Y-14345800D01*
X13371543Y-14288657D01*
X13385828Y-14260086D01*
X13400114Y-14245800D01*
X13428686Y-14231514D01*
X13785828Y-14331514D02*
X13785828Y-14531514D01*
X13714400Y-14217229D02*
X13642971Y-14431514D01*
X13828686Y-14431514D01*
X13914400Y-14231514D02*
X14114400Y-14231514D01*
X13985828Y-14531514D01*
X14214400Y-14260086D02*
X14228686Y-14245800D01*
X14257257Y-14231514D01*
X14328686Y-14231514D01*
X14357257Y-14245800D01*
X14371543Y-14260086D01*
X14385828Y-14288657D01*
X14385828Y-14317229D01*
X14371543Y-14360086D01*
X14200114Y-14531514D01*
X14385828Y-14531514D01*
X14500114Y-14231514D02*
X14500114Y-14288657D01*
X14614400Y-14231514D02*
X14614400Y-14288657D01*
X15057257Y-14645800D02*
X15042971Y-14631514D01*
X15014400Y-14588657D01*
X15000114Y-14560086D01*
X14985828Y-14517229D01*
X14971543Y-14445800D01*
X14971543Y-14388657D01*
X14985828Y-14317229D01*
X15000114Y-14274371D01*
X15014400Y-14245800D01*
X15042971Y-14202943D01*
X15057257Y-14188657D01*
X15157257Y-14260086D02*
X15171543Y-14245800D01*
X15200114Y-14231514D01*
X15271543Y-14231514D01*
X15300114Y-14245800D01*
X15314400Y-14260086D01*
X15328686Y-14288657D01*
X15328686Y-14317229D01*
X15314400Y-14360086D01*
X15142971Y-14531514D01*
X15328686Y-14531514D01*
X15685828Y-14531514D02*
X15685828Y-14231514D01*
X15814400Y-14531514D02*
X15814400Y-14374371D01*
X15800114Y-14345800D01*
X15771543Y-14331514D01*
X15728686Y-14331514D01*
X15700114Y-14345800D01*
X15685828Y-14360086D01*
X16000114Y-14531514D02*
X15971543Y-14517229D01*
X15957257Y-14502943D01*
X15942971Y-14474371D01*
X15942971Y-14388657D01*
X15957257Y-14360086D01*
X15971543Y-14345800D01*
X16000114Y-14331514D01*
X16042971Y-14331514D01*
X16071543Y-14345800D01*
X16085828Y-14360086D01*
X16100114Y-14388657D01*
X16100114Y-14474371D01*
X16085828Y-14502943D01*
X16071543Y-14517229D01*
X16042971Y-14531514D01*
X16000114Y-14531514D01*
X16271543Y-14531514D02*
X16242971Y-14517229D01*
X16228686Y-14488657D01*
X16228686Y-14231514D01*
X16500114Y-14517229D02*
X16471543Y-14531514D01*
X16414400Y-14531514D01*
X16385828Y-14517229D01*
X16371543Y-14488657D01*
X16371543Y-14374371D01*
X16385828Y-14345800D01*
X16414400Y-14331514D01*
X16471543Y-14331514D01*
X16500114Y-14345800D01*
X16514400Y-14374371D01*
X16514400Y-14402943D01*
X16371543Y-14431514D01*
X16628686Y-14517229D02*
X16657257Y-14531514D01*
X16714400Y-14531514D01*
X16742971Y-14517229D01*
X16757257Y-14488657D01*
X16757257Y-14474371D01*
X16742971Y-14445800D01*
X16714400Y-14431514D01*
X16671543Y-14431514D01*
X16642971Y-14417229D01*
X16628686Y-14388657D01*
X16628686Y-14374371D01*
X16642971Y-14345800D01*
X16671543Y-14331514D01*
X16714400Y-14331514D01*
X16742971Y-14345800D01*
X16857257Y-14645800D02*
X16871543Y-14631514D01*
X16900114Y-14588657D01*
X16914400Y-14560086D01*
X16928686Y-14517229D01*
X16942971Y-14445800D01*
X16942971Y-14388657D01*
X16928686Y-14317229D01*
X16914400Y-14274371D01*
X16900114Y-14245800D01*
X16871543Y-14202943D01*
X16857257Y-14188657D01*
X9734400Y-14856800D02*
X9799400Y-14791800D01*
X9734400Y-14726800D01*
X9669400Y-14791800D01*
X9734400Y-14856800D01*
X10242971Y-14927514D02*
X10071543Y-14927514D01*
X10157257Y-14927514D02*
X10157257Y-14627514D01*
X10128686Y-14670371D01*
X10100114Y-14698943D01*
X10071543Y-14713229D01*
X10371543Y-14898943D02*
X10385828Y-14913229D01*
X10371543Y-14927514D01*
X10357257Y-14913229D01*
X10371543Y-14898943D01*
X10371543Y-14927514D01*
X10485828Y-14627514D02*
X10671543Y-14627514D01*
X10571543Y-14741800D01*
X10614400Y-14741800D01*
X10642971Y-14756086D01*
X10657257Y-14770371D01*
X10671543Y-14798943D01*
X10671543Y-14870371D01*
X10657257Y-14898943D01*
X10642971Y-14913229D01*
X10614400Y-14927514D01*
X10528686Y-14927514D01*
X10500114Y-14913229D01*
X10485828Y-14898943D01*
X10857257Y-14627514D02*
X10885828Y-14627514D01*
X10914400Y-14641800D01*
X10928686Y-14656086D01*
X10942971Y-14684657D01*
X10957257Y-14741800D01*
X10957257Y-14813229D01*
X10942971Y-14870371D01*
X10928686Y-14898943D01*
X10914400Y-14913229D01*
X10885828Y-14927514D01*
X10857257Y-14927514D01*
X10828686Y-14913229D01*
X10814400Y-14898943D01*
X10800114Y-14870371D01*
X10785828Y-14813229D01*
X10785828Y-14741800D01*
X10800114Y-14684657D01*
X10814400Y-14656086D01*
X10828686Y-14641800D01*
X10857257Y-14627514D01*
X11142971Y-14627514D02*
X11171543Y-14627514D01*
X11200114Y-14641800D01*
X11214400Y-14656086D01*
X11228686Y-14684657D01*
X11242971Y-14741800D01*
X11242971Y-14813229D01*
X11228686Y-14870371D01*
X11214400Y-14898943D01*
X11200114Y-14913229D01*
X11171543Y-14927514D01*
X11142971Y-14927514D01*
X11114400Y-14913229D01*
X11100114Y-14898943D01*
X11085828Y-14870371D01*
X11071543Y-14813229D01*
X11071543Y-14741800D01*
X11085828Y-14684657D01*
X11100114Y-14656086D01*
X11114400Y-14641800D01*
X11142971Y-14627514D01*
X11371543Y-14927514D02*
X11371543Y-14727514D01*
X11371543Y-14756086D02*
X11385828Y-14741800D01*
X11414400Y-14727514D01*
X11457257Y-14727514D01*
X11485828Y-14741800D01*
X11500114Y-14770371D01*
X11500114Y-14927514D01*
X11500114Y-14770371D02*
X11514400Y-14741800D01*
X11542971Y-14727514D01*
X11585828Y-14727514D01*
X11614400Y-14741800D01*
X11628686Y-14770371D01*
X11628686Y-14927514D01*
X11771543Y-14927514D02*
X11771543Y-14727514D01*
X11771543Y-14756086D02*
X11785828Y-14741800D01*
X11814400Y-14727514D01*
X11857257Y-14727514D01*
X11885828Y-14741800D01*
X11900114Y-14770371D01*
X11900114Y-14927514D01*
X11900114Y-14770371D02*
X11914400Y-14741800D01*
X11942971Y-14727514D01*
X11985828Y-14727514D01*
X12014400Y-14741800D01*
X12028686Y-14770371D01*
X12028686Y-14927514D01*
X12614400Y-14613229D02*
X12357257Y-14998943D01*
X13000114Y-14627514D02*
X13028686Y-14627514D01*
X13057257Y-14641800D01*
X13071543Y-14656086D01*
X13085828Y-14684657D01*
X13100114Y-14741800D01*
X13100114Y-14813229D01*
X13085828Y-14870371D01*
X13071543Y-14898943D01*
X13057257Y-14913229D01*
X13028686Y-14927514D01*
X13000114Y-14927514D01*
X12971543Y-14913229D01*
X12957257Y-14898943D01*
X12942971Y-14870371D01*
X12928686Y-14813229D01*
X12928686Y-14741800D01*
X12942971Y-14684657D01*
X12957257Y-14656086D01*
X12971543Y-14641800D01*
X13000114Y-14627514D01*
X13228686Y-14898943D02*
X13242971Y-14913229D01*
X13228686Y-14927514D01*
X13214400Y-14913229D01*
X13228686Y-14898943D01*
X13228686Y-14927514D01*
X13428686Y-14627514D02*
X13457257Y-14627514D01*
X13485828Y-14641800D01*
X13500114Y-14656086D01*
X13514400Y-14684657D01*
X13528686Y-14741800D01*
X13528686Y-14813229D01*
X13514400Y-14870371D01*
X13500114Y-14898943D01*
X13485828Y-14913229D01*
X13457257Y-14927514D01*
X13428686Y-14927514D01*
X13400114Y-14913229D01*
X13385828Y-14898943D01*
X13371543Y-14870371D01*
X13357257Y-14813229D01*
X13357257Y-14741800D01*
X13371543Y-14684657D01*
X13385828Y-14656086D01*
X13400114Y-14641800D01*
X13428686Y-14627514D01*
X13800114Y-14627514D02*
X13657257Y-14627514D01*
X13642971Y-14770371D01*
X13657257Y-14756086D01*
X13685828Y-14741800D01*
X13757257Y-14741800D01*
X13785828Y-14756086D01*
X13800114Y-14770371D01*
X13814400Y-14798943D01*
X13814400Y-14870371D01*
X13800114Y-14898943D01*
X13785828Y-14913229D01*
X13757257Y-14927514D01*
X13685828Y-14927514D01*
X13657257Y-14913229D01*
X13642971Y-14898943D01*
X14100114Y-14927514D02*
X13928686Y-14927514D01*
X14014400Y-14927514D02*
X14014400Y-14627514D01*
X13985828Y-14670371D01*
X13957257Y-14698943D01*
X13928686Y-14713229D01*
X14214400Y-14656086D02*
X14228686Y-14641800D01*
X14257257Y-14627514D01*
X14328686Y-14627514D01*
X14357257Y-14641800D01*
X14371543Y-14656086D01*
X14385828Y-14684657D01*
X14385828Y-14713229D01*
X14371543Y-14756086D01*
X14200114Y-14927514D01*
X14385828Y-14927514D01*
X14500114Y-14627514D02*
X14500114Y-14684657D01*
X14614400Y-14627514D02*
X14614400Y-14684657D01*
X15057257Y-15041800D02*
X15042971Y-15027514D01*
X15014400Y-14984657D01*
X15000114Y-14956086D01*
X14985828Y-14913229D01*
X14971543Y-14841800D01*
X14971543Y-14784657D01*
X14985828Y-14713229D01*
X15000114Y-14670371D01*
X15014400Y-14641800D01*
X15042971Y-14598943D01*
X15057257Y-14584657D01*
X15300114Y-14727514D02*
X15300114Y-14927514D01*
X15228686Y-14613229D02*
X15157257Y-14827514D01*
X15342971Y-14827514D01*
X15685828Y-14927514D02*
X15685828Y-14627514D01*
X15814400Y-14927514D02*
X15814400Y-14770371D01*
X15800114Y-14741800D01*
X15771543Y-14727514D01*
X15728686Y-14727514D01*
X15700114Y-14741800D01*
X15685828Y-14756086D01*
X16000114Y-14927514D02*
X15971543Y-14913229D01*
X15957257Y-14898943D01*
X15942971Y-14870371D01*
X15942971Y-14784657D01*
X15957257Y-14756086D01*
X15971543Y-14741800D01*
X16000114Y-14727514D01*
X16042971Y-14727514D01*
X16071543Y-14741800D01*
X16085828Y-14756086D01*
X16100114Y-14784657D01*
X16100114Y-14870371D01*
X16085828Y-14898943D01*
X16071543Y-14913229D01*
X16042971Y-14927514D01*
X16000114Y-14927514D01*
X16271543Y-14927514D02*
X16242971Y-14913229D01*
X16228686Y-14884657D01*
X16228686Y-14627514D01*
X16500114Y-14913229D02*
X16471543Y-14927514D01*
X16414400Y-14927514D01*
X16385828Y-14913229D01*
X16371543Y-14884657D01*
X16371543Y-14770371D01*
X16385828Y-14741800D01*
X16414400Y-14727514D01*
X16471543Y-14727514D01*
X16500114Y-14741800D01*
X16514400Y-14770371D01*
X16514400Y-14798943D01*
X16371543Y-14827514D01*
X16628686Y-14913229D02*
X16657257Y-14927514D01*
X16714400Y-14927514D01*
X16742971Y-14913229D01*
X16757257Y-14884657D01*
X16757257Y-14870371D01*
X16742971Y-14841800D01*
X16714400Y-14827514D01*
X16671543Y-14827514D01*
X16642971Y-14813229D01*
X16628686Y-14784657D01*
X16628686Y-14770371D01*
X16642971Y-14741800D01*
X16671543Y-14727514D01*
X16714400Y-14727514D01*
X16742971Y-14741800D01*
X16857257Y-15041800D02*
X16871543Y-15027514D01*
X16900114Y-14984657D01*
X16914400Y-14956086D01*
X16928686Y-14913229D01*
X16942971Y-14841800D01*
X16942971Y-14784657D01*
X16928686Y-14713229D01*
X16914400Y-14670371D01*
X16900114Y-14641800D01*
X16871543Y-14598943D01*
X16857257Y-14584657D01*
M02*
