%FSLAX45Y45*%
G04 Gerber Fmt 4.5, Leading zero omitted, Abs format (unit mm)*
G04 Created by KiCad (PCBNEW (5.1.10-1-10_14)) date 2021-12-20 14:56:10*
%MOMM*%
%LPD*%
G01*
G04 APERTURE LIST*
%TA.AperFunction,Profile*%
%ADD10C,0.100000*%
%TD*%
%ADD11C,0.200000*%
%ADD12C,0.300000*%
G04 APERTURE END LIST*
D10*
X15011400Y-5232400D02*
X15011400Y-12242800D01*
X9804400Y-5232400D02*
X15011400Y-5232400D01*
X9804400Y-12242800D02*
X9804400Y-5232400D01*
X15011400Y-12242800D02*
X9804400Y-12242800D01*
D11*
X10427000Y-8456600D02*
X10547000Y-8576600D01*
X10547000Y-8456600D02*
X10427000Y-8576600D01*
X10427000Y-9472600D02*
X10547000Y-9592600D01*
X10547000Y-9472600D02*
X10427000Y-9592600D01*
X12850800Y-11627200D02*
X12970800Y-11747200D01*
X12970800Y-11627200D02*
X12850800Y-11747200D01*
X14192600Y-8720800D02*
X14312600Y-8840800D01*
X14312600Y-8720800D02*
X14192600Y-8840800D01*
X14192600Y-9660600D02*
X14312600Y-9780600D01*
X14312600Y-9660600D02*
X14192600Y-9780600D01*
X14192600Y-10600400D02*
X14312600Y-10720400D01*
X14312600Y-10600400D02*
X14192600Y-10720400D01*
D12*
X10085828Y-12713514D02*
X10085828Y-12413514D01*
X10157257Y-12413514D01*
X10200114Y-12427800D01*
X10228686Y-12456371D01*
X10242971Y-12484943D01*
X10257257Y-12542086D01*
X10257257Y-12584943D01*
X10242971Y-12642086D01*
X10228686Y-12670657D01*
X10200114Y-12699229D01*
X10157257Y-12713514D01*
X10085828Y-12713514D01*
X10385828Y-12713514D02*
X10385828Y-12513514D01*
X10385828Y-12570657D02*
X10400114Y-12542086D01*
X10414400Y-12527800D01*
X10442971Y-12513514D01*
X10471543Y-12513514D01*
X10571543Y-12713514D02*
X10571543Y-12513514D01*
X10571543Y-12413514D02*
X10557257Y-12427800D01*
X10571543Y-12442086D01*
X10585828Y-12427800D01*
X10571543Y-12413514D01*
X10571543Y-12442086D01*
X10757257Y-12713514D02*
X10728686Y-12699229D01*
X10714400Y-12670657D01*
X10714400Y-12413514D01*
X10914400Y-12713514D02*
X10885828Y-12699229D01*
X10871543Y-12670657D01*
X10871543Y-12413514D01*
X11257257Y-12713514D02*
X11257257Y-12413514D01*
X11357257Y-12627800D01*
X11457257Y-12413514D01*
X11457257Y-12713514D01*
X11728686Y-12713514D02*
X11728686Y-12556371D01*
X11714400Y-12527800D01*
X11685828Y-12513514D01*
X11628686Y-12513514D01*
X11600114Y-12527800D01*
X11728686Y-12699229D02*
X11700114Y-12713514D01*
X11628686Y-12713514D01*
X11600114Y-12699229D01*
X11585828Y-12670657D01*
X11585828Y-12642086D01*
X11600114Y-12613514D01*
X11628686Y-12599229D01*
X11700114Y-12599229D01*
X11728686Y-12584943D01*
X11871543Y-12513514D02*
X11871543Y-12813514D01*
X11871543Y-12527800D02*
X11900114Y-12513514D01*
X11957257Y-12513514D01*
X11985828Y-12527800D01*
X12000114Y-12542086D01*
X12014400Y-12570657D01*
X12014400Y-12656371D01*
X12000114Y-12684943D01*
X11985828Y-12699229D01*
X11957257Y-12713514D01*
X11900114Y-12713514D01*
X11871543Y-12699229D01*
X12142971Y-12684943D02*
X12157257Y-12699229D01*
X12142971Y-12713514D01*
X12128686Y-12699229D01*
X12142971Y-12684943D01*
X12142971Y-12713514D01*
X12142971Y-12527800D02*
X12157257Y-12542086D01*
X12142971Y-12556371D01*
X12128686Y-12542086D01*
X12142971Y-12527800D01*
X12142971Y-12556371D01*
X9679400Y-13147800D02*
X9799400Y-13267800D01*
X9799400Y-13147800D02*
X9679400Y-13267800D01*
X10242971Y-13343514D02*
X10071543Y-13343514D01*
X10157257Y-13343514D02*
X10157257Y-13043514D01*
X10128686Y-13086371D01*
X10100114Y-13114943D01*
X10071543Y-13129229D01*
X10371543Y-13314943D02*
X10385828Y-13329229D01*
X10371543Y-13343514D01*
X10357257Y-13329229D01*
X10371543Y-13314943D01*
X10371543Y-13343514D01*
X10500114Y-13072086D02*
X10514400Y-13057800D01*
X10542971Y-13043514D01*
X10614400Y-13043514D01*
X10642971Y-13057800D01*
X10657257Y-13072086D01*
X10671543Y-13100657D01*
X10671543Y-13129229D01*
X10657257Y-13172086D01*
X10485828Y-13343514D01*
X10671543Y-13343514D01*
X10857257Y-13043514D02*
X10885828Y-13043514D01*
X10914400Y-13057800D01*
X10928686Y-13072086D01*
X10942971Y-13100657D01*
X10957257Y-13157800D01*
X10957257Y-13229229D01*
X10942971Y-13286371D01*
X10928686Y-13314943D01*
X10914400Y-13329229D01*
X10885828Y-13343514D01*
X10857257Y-13343514D01*
X10828686Y-13329229D01*
X10814400Y-13314943D01*
X10800114Y-13286371D01*
X10785828Y-13229229D01*
X10785828Y-13157800D01*
X10800114Y-13100657D01*
X10814400Y-13072086D01*
X10828686Y-13057800D01*
X10857257Y-13043514D01*
X11142971Y-13043514D02*
X11171543Y-13043514D01*
X11200114Y-13057800D01*
X11214400Y-13072086D01*
X11228686Y-13100657D01*
X11242971Y-13157800D01*
X11242971Y-13229229D01*
X11228686Y-13286371D01*
X11214400Y-13314943D01*
X11200114Y-13329229D01*
X11171543Y-13343514D01*
X11142971Y-13343514D01*
X11114400Y-13329229D01*
X11100114Y-13314943D01*
X11085828Y-13286371D01*
X11071543Y-13229229D01*
X11071543Y-13157800D01*
X11085828Y-13100657D01*
X11100114Y-13072086D01*
X11114400Y-13057800D01*
X11142971Y-13043514D01*
X11371543Y-13343514D02*
X11371543Y-13143514D01*
X11371543Y-13172086D02*
X11385828Y-13157800D01*
X11414400Y-13143514D01*
X11457257Y-13143514D01*
X11485828Y-13157800D01*
X11500114Y-13186371D01*
X11500114Y-13343514D01*
X11500114Y-13186371D02*
X11514400Y-13157800D01*
X11542971Y-13143514D01*
X11585828Y-13143514D01*
X11614400Y-13157800D01*
X11628686Y-13186371D01*
X11628686Y-13343514D01*
X11771543Y-13343514D02*
X11771543Y-13143514D01*
X11771543Y-13172086D02*
X11785828Y-13157800D01*
X11814400Y-13143514D01*
X11857257Y-13143514D01*
X11885828Y-13157800D01*
X11900114Y-13186371D01*
X11900114Y-13343514D01*
X11900114Y-13186371D02*
X11914400Y-13157800D01*
X11942971Y-13143514D01*
X11985828Y-13143514D01*
X12014400Y-13157800D01*
X12028686Y-13186371D01*
X12028686Y-13343514D01*
X12614400Y-13029229D02*
X12357257Y-13414943D01*
X13000114Y-13043514D02*
X13028686Y-13043514D01*
X13057257Y-13057800D01*
X13071543Y-13072086D01*
X13085828Y-13100657D01*
X13100114Y-13157800D01*
X13100114Y-13229229D01*
X13085828Y-13286371D01*
X13071543Y-13314943D01*
X13057257Y-13329229D01*
X13028686Y-13343514D01*
X13000114Y-13343514D01*
X12971543Y-13329229D01*
X12957257Y-13314943D01*
X12942971Y-13286371D01*
X12928686Y-13229229D01*
X12928686Y-13157800D01*
X12942971Y-13100657D01*
X12957257Y-13072086D01*
X12971543Y-13057800D01*
X13000114Y-13043514D01*
X13228686Y-13314943D02*
X13242971Y-13329229D01*
X13228686Y-13343514D01*
X13214400Y-13329229D01*
X13228686Y-13314943D01*
X13228686Y-13343514D01*
X13428686Y-13043514D02*
X13457257Y-13043514D01*
X13485828Y-13057800D01*
X13500114Y-13072086D01*
X13514400Y-13100657D01*
X13528686Y-13157800D01*
X13528686Y-13229229D01*
X13514400Y-13286371D01*
X13500114Y-13314943D01*
X13485828Y-13329229D01*
X13457257Y-13343514D01*
X13428686Y-13343514D01*
X13400114Y-13329229D01*
X13385828Y-13314943D01*
X13371543Y-13286371D01*
X13357257Y-13229229D01*
X13357257Y-13157800D01*
X13371543Y-13100657D01*
X13385828Y-13072086D01*
X13400114Y-13057800D01*
X13428686Y-13043514D01*
X13785828Y-13143514D02*
X13785828Y-13343514D01*
X13714400Y-13029229D02*
X13642971Y-13243514D01*
X13828686Y-13243514D01*
X13914400Y-13043514D02*
X14114400Y-13043514D01*
X13985828Y-13343514D01*
X14214400Y-13072086D02*
X14228686Y-13057800D01*
X14257257Y-13043514D01*
X14328686Y-13043514D01*
X14357257Y-13057800D01*
X14371543Y-13072086D01*
X14385828Y-13100657D01*
X14385828Y-13129229D01*
X14371543Y-13172086D01*
X14200114Y-13343514D01*
X14385828Y-13343514D01*
X14500114Y-13043514D02*
X14500114Y-13100657D01*
X14614400Y-13043514D02*
X14614400Y-13100657D01*
X15057257Y-13457800D02*
X15042971Y-13443514D01*
X15014400Y-13400657D01*
X15000114Y-13372086D01*
X14985828Y-13329229D01*
X14971543Y-13257800D01*
X14971543Y-13200657D01*
X14985828Y-13129229D01*
X15000114Y-13086371D01*
X15014400Y-13057800D01*
X15042971Y-13014943D01*
X15057257Y-13000657D01*
X15300114Y-13043514D02*
X15242971Y-13043514D01*
X15214400Y-13057800D01*
X15200114Y-13072086D01*
X15171543Y-13114943D01*
X15157257Y-13172086D01*
X15157257Y-13286371D01*
X15171543Y-13314943D01*
X15185828Y-13329229D01*
X15214400Y-13343514D01*
X15271543Y-13343514D01*
X15300114Y-13329229D01*
X15314400Y-13314943D01*
X15328686Y-13286371D01*
X15328686Y-13214943D01*
X15314400Y-13186371D01*
X15300114Y-13172086D01*
X15271543Y-13157800D01*
X15214400Y-13157800D01*
X15185828Y-13172086D01*
X15171543Y-13186371D01*
X15157257Y-13214943D01*
X15685828Y-13343514D02*
X15685828Y-13043514D01*
X15814400Y-13343514D02*
X15814400Y-13186371D01*
X15800114Y-13157800D01*
X15771543Y-13143514D01*
X15728686Y-13143514D01*
X15700114Y-13157800D01*
X15685828Y-13172086D01*
X16000114Y-13343514D02*
X15971543Y-13329229D01*
X15957257Y-13314943D01*
X15942971Y-13286371D01*
X15942971Y-13200657D01*
X15957257Y-13172086D01*
X15971543Y-13157800D01*
X16000114Y-13143514D01*
X16042971Y-13143514D01*
X16071543Y-13157800D01*
X16085828Y-13172086D01*
X16100114Y-13200657D01*
X16100114Y-13286371D01*
X16085828Y-13314943D01*
X16071543Y-13329229D01*
X16042971Y-13343514D01*
X16000114Y-13343514D01*
X16271543Y-13343514D02*
X16242971Y-13329229D01*
X16228686Y-13300657D01*
X16228686Y-13043514D01*
X16500114Y-13329229D02*
X16471543Y-13343514D01*
X16414400Y-13343514D01*
X16385828Y-13329229D01*
X16371543Y-13300657D01*
X16371543Y-13186371D01*
X16385828Y-13157800D01*
X16414400Y-13143514D01*
X16471543Y-13143514D01*
X16500114Y-13157800D01*
X16514400Y-13186371D01*
X16514400Y-13214943D01*
X16371543Y-13243514D01*
X16628686Y-13329229D02*
X16657257Y-13343514D01*
X16714400Y-13343514D01*
X16742971Y-13329229D01*
X16757257Y-13300657D01*
X16757257Y-13286371D01*
X16742971Y-13257800D01*
X16714400Y-13243514D01*
X16671543Y-13243514D01*
X16642971Y-13229229D01*
X16628686Y-13200657D01*
X16628686Y-13186371D01*
X16642971Y-13157800D01*
X16671543Y-13143514D01*
X16714400Y-13143514D01*
X16742971Y-13157800D01*
X16857257Y-13457800D02*
X16871543Y-13443514D01*
X16900114Y-13400657D01*
X16914400Y-13372086D01*
X16928686Y-13329229D01*
X16942971Y-13257800D01*
X16942971Y-13200657D01*
X16928686Y-13129229D01*
X16914400Y-13086371D01*
X16900114Y-13057800D01*
X16871543Y-13014943D01*
X16857257Y-13000657D01*
X17400114Y-13457800D02*
X17385828Y-13443514D01*
X17357257Y-13400657D01*
X17342971Y-13372086D01*
X17328686Y-13329229D01*
X17314400Y-13257800D01*
X17314400Y-13200657D01*
X17328686Y-13129229D01*
X17342971Y-13086371D01*
X17357257Y-13057800D01*
X17385828Y-13014943D01*
X17400114Y-13000657D01*
X17514400Y-13143514D02*
X17514400Y-13343514D01*
X17514400Y-13172086D02*
X17528686Y-13157800D01*
X17557257Y-13143514D01*
X17600114Y-13143514D01*
X17628686Y-13157800D01*
X17642971Y-13186371D01*
X17642971Y-13343514D01*
X17828686Y-13343514D02*
X17800114Y-13329229D01*
X17785828Y-13314943D01*
X17771543Y-13286371D01*
X17771543Y-13200657D01*
X17785828Y-13172086D01*
X17800114Y-13157800D01*
X17828686Y-13143514D01*
X17871543Y-13143514D01*
X17900114Y-13157800D01*
X17914400Y-13172086D01*
X17928686Y-13200657D01*
X17928686Y-13286371D01*
X17914400Y-13314943D01*
X17900114Y-13329229D01*
X17871543Y-13343514D01*
X17828686Y-13343514D01*
X18014400Y-13143514D02*
X18128686Y-13143514D01*
X18057257Y-13043514D02*
X18057257Y-13300657D01*
X18071543Y-13329229D01*
X18100114Y-13343514D01*
X18128686Y-13343514D01*
X18457257Y-13143514D02*
X18457257Y-13443514D01*
X18457257Y-13157800D02*
X18485828Y-13143514D01*
X18542971Y-13143514D01*
X18571543Y-13157800D01*
X18585828Y-13172086D01*
X18600114Y-13200657D01*
X18600114Y-13286371D01*
X18585828Y-13314943D01*
X18571543Y-13329229D01*
X18542971Y-13343514D01*
X18485828Y-13343514D01*
X18457257Y-13329229D01*
X18771543Y-13343514D02*
X18742971Y-13329229D01*
X18728686Y-13300657D01*
X18728686Y-13043514D01*
X19014400Y-13343514D02*
X19014400Y-13186371D01*
X19000114Y-13157800D01*
X18971543Y-13143514D01*
X18914400Y-13143514D01*
X18885828Y-13157800D01*
X19014400Y-13329229D02*
X18985828Y-13343514D01*
X18914400Y-13343514D01*
X18885828Y-13329229D01*
X18871543Y-13300657D01*
X18871543Y-13272086D01*
X18885828Y-13243514D01*
X18914400Y-13229229D01*
X18985828Y-13229229D01*
X19014400Y-13214943D01*
X19114400Y-13143514D02*
X19228686Y-13143514D01*
X19157257Y-13043514D02*
X19157257Y-13300657D01*
X19171543Y-13329229D01*
X19200114Y-13343514D01*
X19228686Y-13343514D01*
X19442971Y-13329229D02*
X19414400Y-13343514D01*
X19357257Y-13343514D01*
X19328686Y-13329229D01*
X19314400Y-13300657D01*
X19314400Y-13186371D01*
X19328686Y-13157800D01*
X19357257Y-13143514D01*
X19414400Y-13143514D01*
X19442971Y-13157800D01*
X19457257Y-13186371D01*
X19457257Y-13214943D01*
X19314400Y-13243514D01*
X19714400Y-13343514D02*
X19714400Y-13043514D01*
X19714400Y-13329229D02*
X19685828Y-13343514D01*
X19628686Y-13343514D01*
X19600114Y-13329229D01*
X19585828Y-13314943D01*
X19571543Y-13286371D01*
X19571543Y-13200657D01*
X19585828Y-13172086D01*
X19600114Y-13157800D01*
X19628686Y-13143514D01*
X19685828Y-13143514D01*
X19714400Y-13157800D01*
X19828686Y-13457800D02*
X19842971Y-13443514D01*
X19871543Y-13400657D01*
X19885828Y-13372086D01*
X19900114Y-13329229D01*
X19914400Y-13257800D01*
X19914400Y-13200657D01*
X19900114Y-13129229D01*
X19885828Y-13086371D01*
X19871543Y-13057800D01*
X19842971Y-13014943D01*
X19828686Y-13000657D01*
M02*
